<svg version="1.1" xmlns="http://www.w3.org/2000/svg" viewBox="0 0 1394.6665649414065 549.1110432942708" width="1394.6665649414065" height="549.1110432942708">
  <!-- svg-source:excalidraw -->
  
  <defs>
    <style>
      @font-face {
        font-family: "Virgil";
        src: url("https://excalidraw.com/Virgil.woff2");
      }
      @font-face {
        font-family: "Cascadia";
        src: url("https://excalidraw.com/Cascadia.woff2");
      }
    </style>
  </defs>
  <rect x="0" y="0" width="1394.6665649414065" height="549.1110432942708" fill="#ffffff"></rect><g stroke-linecap="round" transform="translate(10 327.22218831380223) rotate(0 34.44442749023426 33.33333333333326)"><path d="M12.02 7.8 C12.02 7.8, 12.02 7.8, 12.02 7.8 M12.02 7.8 C12.02 7.8, 12.02 7.8, 12.02 7.8 M-0.83 25.15 C8.26 17.43, 14.59 11.72, 21.88 2.68 M-0.36 26.12 C5.35 22.8, 9.61 17.87, 20.99 5.25 M2.33 32.76 C11.96 21.65, 21.07 11.33, 27.16 1.93 M2.32 31.47 C11.62 20.53, 22.57 8.67, 28.59 1.14 M3.87 38.72 C10.79 26.78, 20.78 13.29, 32.73 2.45 M1.94 37.77 C8.79 30.48, 16.45 22.13, 32.21 1.9 M1.57 44.78 C12.04 34.35, 18.15 24.36, 36.75 2.82 M2.07 43.35 C16.22 28.09, 29.03 12.06, 37.59 1.68 M3.72 47.59 C10.79 38.5, 21.35 28.53, 41.78 5.43 M3.73 47.99 C13.12 36.76, 24.47 24.29, 42.15 3.69 M6.53 50.79 C18.9 39.59, 29.62 24.95, 44.79 3.28 M6.67 52.25 C17.85 39.11, 29.29 24.93, 46.74 4.23 M8.41 53.95 C21.7 40.35, 31.34 29.9, 52.62 6.91 M9.36 53.54 C16.6 44.47, 27.02 33.42, 51.04 6.73 M11.91 55.37 C27.02 37.81, 44.62 18.73, 56.79 7.48 M12.87 56.18 C22.12 45.91, 32.89 32.84, 56.1 6.11 M14.63 59.75 C32.09 39.34, 46.5 20.81, 57.68 10.92 M13.46 60.17 C22.66 50.57, 32.84 40.26, 58.3 10.06 M17.93 63.04 C26.56 48.19, 39.03 36.61, 61.14 14.28 M17.21 63.31 C30.18 48.13, 42.52 33.92, 59.88 12.59 M21.12 64.83 C35.69 47.06, 54.93 27.11, 64.19 15.39 M19.96 64.74 C35.54 46.11, 51.52 27.99, 62.36 16.87 M24.2 66.97 C35.28 56.62, 41.17 43.32, 66.95 17.95 M25.9 64.71 C37.83 52.74, 48.56 39.7, 64.32 19.54 M30.73 65.72 C41.52 55.76, 50.46 44.13, 66.88 23.95 M30.22 65.98 C42.93 51.88, 55.81 35.05, 65.47 24.26 M34.53 65.82 C49.03 52.66, 61.02 37.29, 64.87 29 M33.65 67.08 C45.02 55.95, 56.39 42.74, 66.48 30.28 M40.53 66.4 C49.24 59.25, 54.04 50.19, 65.96 35.69 M41.08 67.36 C50.93 54.22, 61.06 41.46, 67.62 34.99 M50.16 65.11 C52.85 54.63, 60.11 50.28, 66.94 40.54 M48.84 64.3 C56.32 55.55, 62.82 47.22, 68.07 39.99" stroke="#15aabf" stroke-width="0.5" fill="none"></path><path d="M31.04 -0.01 C37.33 -1.1, 46.44 1.66, 52.08 4.77 C57.72 7.88, 62.3 12.93, 64.88 18.64 C67.46 24.35, 68.88 32.4, 67.55 39.02 C66.22 45.65, 61.67 53.88, 56.91 58.36 C52.15 62.84, 45.51 65.1, 38.98 65.89 C32.45 66.68, 23.83 66.12, 17.71 63.1 C11.6 60.08, 5.2 53.92, 2.3 47.77 C-0.59 41.62, -1.26 32.86, 0.35 26.22 C1.95 19.57, 6.46 12.09, 11.94 7.88 C17.42 3.67, 28.89 2.23, 33.23 0.93 C37.57 -0.36, 37.89 -0.26, 37.97 0.13 M42.92 1.6 C49.45 2.75, 56.24 8.11, 60.79 12.8 C65.33 17.49, 69.55 23.58, 70.2 29.74 C70.84 35.9, 68.64 43.84, 64.66 49.76 C60.67 55.69, 52.68 62.41, 46.3 65.29 C39.91 68.17, 32.57 68.71, 26.35 67.02 C20.12 65.33, 13.12 60.18, 8.93 55.14 C4.74 50.1, 1.7 43.36, 1.21 36.79 C0.72 30.22, 2.56 21.55, 5.98 15.72 C9.39 9.89, 15.78 4.03, 21.71 1.82 C27.65 -0.39, 38.22 2.51, 41.58 2.44 C44.94 2.38, 41.91 0.98, 41.89 1.42" stroke="#000000" stroke-width="1" fill="none"></path></g><g stroke-linecap="round" transform="translate(123.33328247070324 327.7777099609375) rotate(0 34.44442749023426 33.33333333333326)"><path d="M3.28 18.75 C3.28 18.75, 3.28 18.75, 3.28 18.75 M3.28 18.75 C3.28 18.75, 3.28 18.75, 3.28 18.75 M1.95 27.78 C7.52 18.77, 11.83 14.53, 19.03 3.59 M2.31 26.04 C7.57 18.94, 13.58 13.96, 20.4 5.29 M-0.3 31.67 C10.55 21.77, 20.93 12.55, 27.94 5.8 M1.66 32.61 C9.97 23.51, 18.92 12.1, 26.3 5.29 M2.94 40.58 C7.44 30.81, 18.45 21.48, 31.58 1.66 M1.37 40.4 C13.29 26.43, 22.92 13.12, 32 2.3 M5.15 43.41 C13.53 30.29, 24.44 19.51, 37.24 2.59 M4.45 42.04 C17.76 26.82, 30.35 11.99, 38.15 3.41 M5.37 47.61 C11.21 37.11, 20.43 27.89, 43.47 1.87 M5.99 46.75 C17.7 32.58, 30.96 17.03, 43.47 2.28 M7.53 52.47 C16.19 38.46, 24.55 29.68, 48.18 4.78 M6.27 50.78 C18.65 39.83, 27.81 27.31, 46.73 4.48 M9.92 54.34 C24.62 37.33, 38.55 20.34, 49.45 5.51 M8.09 55.82 C16.65 45.87, 26.74 35.48, 51.29 7.52 M12.68 56.9 C27.26 39.98, 45.25 23.27, 52.34 10.74 M10.05 58.49 C26.05 40.61, 41.34 23.47, 53.78 9.69 M15.24 59.89 C29.89 43.52, 42.37 29.4, 56.34 10.04 M13.82 60.19 C31.31 43.34, 44.89 25.68, 57.33 11.65 M16.5 61.15 C30.93 47.21, 41.34 32.39, 62.15 11.01 M18.11 62.44 C34.27 44.34, 49.98 24.93, 62.15 12.67 M20.87 64.07 C38.7 48.78, 49.06 32.84, 65.19 16.38 M22.53 63.37 C33.14 52.6, 42.61 41.21, 64.91 15.03 M24.48 65.91 C36.34 53.53, 44.24 46.04, 68.27 19.88 M25.61 65.36 C41.73 47.27, 56.59 31.55, 67.18 18.99 M29.86 68.42 C40.72 55.29, 48.92 44.64, 68.51 22.89 M31.32 66.78 C45.41 50.23, 59.95 33.01, 68.16 22.66 M37.49 64.75 C49.49 53.02, 59.92 40.93, 70.06 26.79 M36.4 66.1 C48.46 52.57, 58.11 41.83, 69.22 27.55 M43.96 63.84 C51.01 56.37, 54.09 51.26, 68.96 34.86 M42.32 65.46 C50.93 56.02, 56.82 46.96, 68.59 35.67 M47.96 65.23 C55.89 57.78, 59.74 48.84, 67.14 43.13 M49.13 64.7 C56.69 56.56, 62.79 47.86, 67.15 43.5" stroke="#15aabf" stroke-width="0.5" fill="none"></path><path d="M19.34 3.67 C25.13 0.51, 33.85 0.04, 40.54 1.08 C47.23 2.12, 54.77 5.61, 59.48 9.92 C64.19 14.23, 67.78 20.49, 68.8 26.95 C69.82 33.4, 68.55 42.69, 65.59 48.66 C62.63 54.64, 56.95 59.9, 51.03 62.83 C45.12 65.75, 37.01 67.08, 30.1 66.21 C23.19 65.33, 14.4 62.11, 9.58 57.56 C4.76 53.01, 2.29 45.34, 1.19 38.93 C0.09 32.52, -0.1 25.08, 2.98 19.09 C6.07 13.11, 16.54 5.54, 19.71 3.01 C22.87 0.47, 21.73 3.39, 21.98 3.9 M37.93 1.49 C44.41 1.35, 52.71 3.16, 57.88 6.96 C63.05 10.77, 67.6 17.79, 68.94 24.33 C70.28 30.87, 68.68 40.14, 65.94 46.21 C63.2 52.28, 58.49 57.3, 52.49 60.74 C46.5 64.18, 36.78 67.18, 29.99 66.86 C23.19 66.54, 16.7 62.94, 11.72 58.84 C6.74 54.74, 1.56 48.54, 0.12 42.25 C-1.31 35.97, 0.51 27.4, 3.1 21.11 C5.69 14.82, 10.11 7.86, 15.66 4.51 C21.21 1.16, 32.99 1.72, 36.39 0.99 C39.8 0.26, 35.75 -0.47, 36.07 0.14" stroke="#000000" stroke-width="1" fill="none"></path></g><g stroke-linecap="round" transform="translate(224.4444274902345 329.44437662760424) rotate(0 34.44442749023426 33.33333333333326)"><path d="M3.62 19.05 C3.62 19.05, 3.62 19.05, 3.62 19.05 M3.62 19.05 C3.62 19.05, 3.62 19.05, 3.62 19.05 M3.76 27.18 C8.11 17.29, 16.81 13.39, 19.73 6.18 M1.76 26.21 C8.82 17.22, 16.62 9.46, 20.82 6.62 M0.58 35.3 C9.3 23.41, 20.57 14.48, 26.92 5.72 M1.64 33.54 C7.03 27.57, 11.88 20.07, 26.58 3.98 M1.05 38.15 C12.71 26.35, 24.12 16.92, 34.1 4.25 M1.31 40.08 C10.74 28.3, 18.83 18.51, 33.8 3.05 M2.82 42.99 C18.67 27.63, 30.28 11.6, 40.35 -0.52 M3.47 43.54 C13.07 30.92, 23.7 20.72, 40.93 1.49 M6.76 45.84 C14.44 34.05, 23.42 23.28, 42.43 1.57 M7.03 45.97 C20.87 31.38, 34.58 14.21, 43.45 3.56 M9.61 51.87 C14.61 42.81, 26.29 31.5, 49.35 2.64 M7.61 51.2 C19.02 38.31, 31.29 24.48, 48.21 4.87 M10.14 55.24 C19.5 40.7, 33.38 26.68, 50.05 4.71 M9.52 53.99 C20.4 42.1, 32.08 28.97, 50.96 5.53 M11.35 55.49 C22.74 44.93, 34.78 34.56, 55.38 7.05 M11.71 57.54 C25.99 42.62, 39.92 25.93, 56.13 6.67 M13.81 61.7 C30.92 43.46, 43.22 25.64, 57.68 9.1 M15.02 60.85 C29.29 44.26, 40.32 30.1, 60.2 8.5 M19.89 62.56 C34.95 46.72, 48.39 28.99, 63.49 11.29 M20.15 61.98 C32.78 47.18, 44.25 33.15, 62.28 12.41 M23.85 62.3 C39.32 44.77, 56.73 25.5, 64.33 18.18 M23.56 63.18 C36.54 47.3, 50.4 31.92, 64.63 17.21 M27.28 67.01 C37.24 52.57, 47.96 41.19, 65.54 19.87 M26.77 66.37 C40.42 48.94, 55.28 32.65, 65.35 21.75 M28.57 69.3 C39.13 57.37, 47.9 48, 67.71 24.55 M29.62 67.02 C42.77 53.47, 56.37 37.59, 67.65 24.74 M35.65 65.16 C48.34 52.89, 61.94 37.53, 69.48 29.72 M36.81 66.17 C48.87 52.45, 61.25 37.92, 68.4 29.01 M44.27 66.87 C48.58 58.23, 57.14 49.41, 67.71 36.24 M42 64.53 C52.9 54.3, 61.79 44.57, 68.16 34.88 M48.63 65.06 C52.51 56, 60.4 54.16, 69.5 41.49 M50.26 63.78 C55.6 56.02, 62.43 48.79, 68.99 42.41" stroke="#15aabf" stroke-width="0.5" fill="none"></path><path d="M38.58 -0.41 C45.01 -0.11, 53.73 3.47, 58.6 8.18 C63.48 12.9, 66.54 21.29, 67.84 27.88 C69.15 34.46, 69.25 41.93, 66.41 47.69 C63.56 53.45, 56.91 59.3, 50.77 62.45 C44.63 65.6, 36.08 67.47, 29.57 66.59 C23.05 65.71, 16.38 61.73, 11.66 57.17 C6.95 52.6, 2.67 45.52, 1.29 39.2 C-0.08 32.89, 0.57 25.2, 3.43 19.26 C6.29 13.33, 11.64 6.62, 18.47 3.6 C25.3 0.58, 39.41 1.17, 44.43 1.14 C49.45 1.1, 48.83 2.79, 48.61 3.36 M42.14 0.86 C48.75 1.9, 56.22 6.17, 60.88 11 C65.55 15.83, 69.67 23.51, 70.14 29.83 C70.61 36.14, 67.14 43.42, 63.69 48.89 C60.24 54.37, 55.72 59.86, 49.44 62.66 C43.16 65.47, 32.82 66.99, 26.01 65.73 C19.2 64.46, 12.91 59.92, 8.59 55.07 C4.26 50.23, 0.73 43.31, 0.07 36.64 C-0.6 29.97, 1.02 20.64, 4.6 15.07 C8.18 9.5, 15.42 5.49, 21.56 3.24 C27.71 0.99, 37.89 1.86, 41.49 1.58 C45.08 1.3, 43.1 1.36, 43.12 1.56" stroke="#000000" stroke-width="1" fill="none"></path></g><g stroke-linecap="round" transform="translate(53.88880411783873 11.66656494140625) rotate(0 34.44442749023426 33.33333333333326)"><path d="M3.4 18.86 C3.4 18.86, 3.4 18.86, 3.4 18.86 M3.4 18.86 C3.4 18.86, 3.4 18.86, 3.4 18.86 M3.97 25.57 C7.97 20.27, 14.58 12.06, 21.18 3.06 M2.77 26.7 C6.71 20.13, 10.52 16.17, 21.45 4.74 M-0.47 33.28 C9.72 27.8, 13.68 19.27, 25.99 3.31 M1.54 33.47 C10.48 23.09, 19.07 12.73, 25.89 3.77 M0.8 39.98 C6.83 31.99, 16.22 23.61, 34.07 4.5 M2.79 37.95 C13.58 25.65, 25.98 13.38, 31.8 4.3 M1.71 42.69 C15.44 28.47, 27.59 15.39, 37.35 4.72 M3.94 42.64 C15.46 29.55, 25.94 17.61, 37.61 2.63 M4.27 45.73 C21.62 31.32, 31.66 15.7, 42.72 4.5 M5.09 45.72 C16.68 33.68, 26.4 21.07, 43.99 2.16 M7.86 49.87 C22.3 34.35, 35.62 16.34, 47.38 6.19 M7.48 50 C22.82 35.03, 34.34 19.77, 48.33 4.65 M9.74 53.64 C20.59 43.42, 29.32 32.4, 53.18 4.51 M9.15 54.12 C19.74 42.55, 28.27 33.55, 52.37 6.58 M10.92 57.25 C29.28 37.03, 45.37 21.3, 56.66 7.53 M12.04 58.19 C22.97 45.08, 32.71 33.27, 55.31 7.88 M17.36 59.74 C33.33 40.51, 50.42 19.86, 59.53 7.71 M16.38 58.8 C31.63 42.26, 45.91 25.78, 59.56 8.88 M17.92 63.3 C34.46 44.96, 46.19 32.18, 59.94 13.37 M19.81 61.17 C30.53 48.95, 39.46 37.89, 61.17 13.47 M22.15 64.69 C35.86 49.96, 44.06 35.97, 62.22 19.44 M22.34 64.31 C36.21 48.98, 48.09 33.07, 62.76 17.79 M26.85 67.32 C42.46 50.48, 55.16 32.52, 64.21 23.42 M26.14 65.01 C35.48 54.07, 46.16 44.13, 64.02 21.92 M30.66 68.42 C42.55 51.22, 53.71 36.97, 68.39 23.75 M29.29 66.75 C44.13 53.44, 55.48 38.46, 66.07 24.06 M35.15 67.64 C46.5 52.63, 61.47 38.6, 67.21 28.92 M36.08 66.12 C46.15 55.02, 54.26 44.72, 67.92 29.52 M43.55 67.18 C52.43 53.6, 61.66 43, 68.17 38.09 M42.85 64.8 C49.37 55.5, 59.37 47.25, 66.8 37.09 M47.8 66.18 C55 56.42, 62.39 47.38, 67.04 45.22 M48.39 65.73 C52.87 59.91, 57.52 55.03, 66.52 43" stroke="#fa5252" stroke-width="0.5" fill="none"></path><path d="M41.11 0.54 C47.6 0.92, 54.86 4.56, 59.32 9.19 C63.77 13.81, 66.92 21.66, 67.84 28.3 C68.76 34.93, 67.73 43.04, 64.84 48.99 C61.95 54.94, 56.43 61.03, 50.51 64 C44.59 66.98, 35.97 68.16, 29.34 66.83 C22.7 65.49, 15.49 60.85, 10.69 55.99 C5.9 51.14, 1.74 43.93, 0.57 37.69 C-0.6 31.45, 0.62 24.31, 3.66 18.57 C6.69 12.82, 12.05 5.93, 18.77 3.21 C25.5 0.49, 39.29 2.23, 44 2.24 C48.72 2.25, 47.08 2.73, 47.08 3.26 M44.8 2.04 C51.18 3.02, 56.64 6.43, 60.81 11.69 C64.99 16.95, 69.57 26.82, 69.85 33.59 C70.12 40.36, 66.16 46.89, 62.45 52.3 C58.73 57.72, 53.81 64.14, 47.57 66.08 C41.33 68.02, 31.74 66.17, 25.02 63.95 C18.31 61.73, 11.67 57.67, 7.27 52.79 C2.87 47.9, -0.99 40.89, -1.37 34.64 C-1.76 28.38, 0.75 20.61, 4.96 15.24 C9.18 9.87, 17.58 4.72, 23.93 2.42 C30.29 0.12, 39.95 1.27, 43.11 1.43 C46.27 1.6, 43.06 2.93, 42.91 3.41" stroke="#000000" stroke-width="1" fill="none"></path></g><g stroke-linecap="round" transform="translate(173.33338419596373 10) rotate(0 34.44442749023426 33.33333333333326)"><path d="M2.57 20.79 C2.57 20.79, 2.57 20.79, 2.57 20.79 M2.57 20.79 C2.57 20.79, 2.57 20.79, 2.57 20.79 M0.35 26.93 C7.84 20.08, 13.7 14.24, 18.27 9.34 M2.58 26.89 C8.43 20.42, 13.19 15.07, 18.54 7.25 M0.29 33 C12.64 24.06, 17.82 14.02, 24.97 7.62 M1.11 32.98 C8.95 25.29, 14.8 17.13, 26.23 5.27 M1.25 40.15 C14.01 26.59, 25.61 10.55, 36.18 1.75 M0.87 40.28 C14.64 27.11, 24.6 13.64, 37.14 0.21 M4.45 42.41 C13.98 33.64, 21.42 24.11, 42.63 -0.68 M3.85 42.89 C13.3 32.65, 20.7 24.94, 41.82 1.39 M4.97 46.78 C21.63 28.52, 36.04 14.71, 46.12 2.34 M6.09 47.72 C15.96 35.87, 24.62 25.3, 44.77 2.69 M10.09 50.77 C24.54 33.29, 40.13 14.36, 48.33 3.28 M9.12 49.84 C23.01 34.86, 35.97 19.91, 48.36 4.44 M10 55.09 C26.12 37.23, 37.43 24.94, 50.71 6.67 M11.89 52.96 C22.28 41.13, 30.88 30.45, 51.94 6.77 M12.26 58.74 C26.9 42.92, 36.04 27.84, 55.62 9.72 M12.45 58.37 C27.38 41.81, 40.31 24.68, 56.16 8.07 M15.66 62.88 C33.48 43.51, 48.37 23.03, 58.91 12.19 M14.95 60.58 C25.72 47.93, 37.91 36.25, 58.72 10.69 M19.46 63.99 C33.42 44.47, 46.61 27.87, 63.1 12.52 M18.09 62.31 C35.01 46.63, 48.45 29.24, 60.78 12.83 M21.99 65.47 C36.55 46.63, 54.81 28.82, 62.57 16.93 M22.91 63.95 C35.52 49.9, 46.14 36.72, 63.28 17.54 M27.76 68.03 C41.79 48.32, 56.32 31.62, 66.81 22.34 M27.06 65.64 C38.21 50.92, 52.88 37.31, 65.45 21.34 M30.69 68.54 C45.21 50.48, 59.76 33.2, 68.97 25.69 M31.28 68.09 C40.28 56.87, 49.63 46.59, 68.45 23.47 M38.69 65.42 C43.48 55.96, 51.05 51.43, 69.67 26.14 M37.07 65.64 C45.65 56.48, 53.39 47.27, 70.48 27.8 M43.53 63.53 C52.88 53.65, 61.53 46.98, 69.68 34.88 M43.86 63.07 C54.95 51.15, 64.9 41.28, 70.56 34.54 M52.04 60.05 C57.16 55.04, 66.06 44.68, 67.56 42.01 M51.29 61.2 C58.54 55.09, 66.38 46.34, 69.39 40.85" stroke="#fa5252" stroke-width="0.5" fill="none"></path><path d="M36.72 -0.27 C43.04 -0.22, 51.15 4.16, 56.43 8.39 C61.71 12.62, 66.88 18.76, 68.38 25.09 C69.88 31.41, 68.29 40.17, 65.42 46.34 C62.56 52.51, 56.99 58.67, 51.18 62.11 C45.36 65.54, 37 67.56, 30.54 66.97 C24.08 66.37, 17.25 62.98, 12.42 58.55 C7.59 54.12, 3.22 46.66, 1.57 40.38 C-0.09 34.11, -0.03 26.79, 2.49 20.89 C5.01 14.98, 10.3 8.51, 16.7 4.97 C23.11 1.43, 36.56 0.24, 40.93 -0.34 C45.3 -0.93, 43.04 0.73, 42.93 1.47 M45.24 1.84 C51.61 3.72, 59.94 9, 63.78 14.32 C67.63 19.64, 68.71 27.36, 68.33 33.75 C67.95 40.14, 65.62 47.16, 61.5 52.66 C57.39 58.17, 49.9 64.88, 43.65 66.79 C37.41 68.7, 30.22 66.61, 24.05 64.11 C17.88 61.6, 10.78 56.91, 6.62 51.75 C2.47 46.59, -1.09 39.55, -0.86 33.16 C-0.63 26.77, 3.57 18.84, 8 13.43 C12.43 8.01, 19.18 2.68, 25.7 0.67 C32.21 -1.33, 43.67 1.17, 47.09 1.4 C50.5 1.63, 46.71 1.64, 46.19 2.07" stroke="#000000" stroke-width="1" fill="none"></path></g><g stroke-linecap="round"><g transform="translate(45.55552164713549 332.7777099609375) rotate(0 22.942829559991736 -129.232393336026)"><path d="M-0.31 -0.7 C7.48 -43.82, 38.49 -215.32, 46.19 -258.23 M1.73 1.54 C9.46 -41.97, 38.31 -216.4, 45.58 -260.01" stroke="#000000" stroke-width="1" fill="none"></path></g></g><g stroke-linecap="round"><g transform="translate(153.33333333333326 322.7777099609375) rotate(0 -23.78059749584483 -124.79158132108864)"><path d="M-0.83 -1.13 C-8.87 -42.7, -40.55 -207.11, -48.5 -248.54 M0.94 0.89 C-6.7 -41.12, -38.33 -208.86, -46.16 -250.48" stroke="#000000" stroke-width="1" fill="none"></path></g></g><g stroke-linecap="round"><g transform="translate(251.11114501953125 330.55562337239576) rotate(0 -67.78788047875429 -133.24911607327095)"><path d="M0.03 0.08 C-22.21 -44.24, -112.23 -220.49, -134.59 -264.84 M-1.41 -0.92 C-23.73 -45.06, -113.4 -222.59, -135.61 -266.58" stroke="#000000" stroke-width="1" fill="none"></path></g></g><g stroke-linecap="round"><g transform="translate(63.333333333333485 335) rotate(0 63.7067116541554 -131.65702298755457)"><path d="M0.29 0.54 C21.53 -43.33, 106.94 -219.99, 128.42 -263.86 M-1.01 -0.22 C19.94 -43.87, 105.64 -218.52, 127.23 -262.59" stroke="#000000" stroke-width="1" fill="none"></path></g></g><g stroke-linecap="round"><g transform="translate(167.777811686198 330.55562337239576) rotate(0 18.148654666294576 -128.91927755024432)"><path d="M-0.68 -1.19 C5.64 -44.41, 30.69 -216, 36.98 -258.63 M1.17 0.79 C7.44 -42.35, 30.3 -214.26, 36.19 -257.54" stroke="#000000" stroke-width="1" fill="none"></path></g></g><g stroke-linecap="round"><g transform="translate(262.222188313802 329.444376627604) rotate(0 -20.817961602232657 -127.03536435282626)"><path d="M-1.08 -0.58 C-7.91 -43.04, -34.57 -213.12, -41.58 -255.8 M0.56 1.73 C-6.33 -40.45, -35.31 -211.45, -42.19 -254.39" stroke="#000000" stroke-width="1" fill="none"></path></g></g><g transform="translate(57.7777099609375 435) rotate(0 108.5 51)"><text x="0" y="38" font-family="Virgil, Segoe UI Emoji" font-size="36px" fill="#000000" text-anchor="start" style="white-space: pre;" direction="ltr">级联相关网络</text><text x="0" y="89" font-family="Virgil, Segoe UI Emoji" font-size="36px" fill="#000000" text-anchor="start" style="white-space: pre;" direction="ltr">(a)初始状态</text></g><g stroke-linecap="round" transform="translate(470.55554707845045 330.44427490234375) rotate(0 34.44442749023426 33.33333333333326)"><path d="M11.78 7.59 C11.78 7.59, 11.78 7.59, 11.78 7.59 M11.78 7.59 C11.78 7.59, 11.78 7.59, 11.78 7.59 M1.51 25.78 C5.43 20.36, 12.25 13.12, 21.25 3.88 M3.87 24.12 C6.53 19.33, 11.96 13.07, 19.57 4.41 M4.11 27.89 C11.51 16.34, 21.79 8.17, 25.4 0.68 M5.1 27.65 C12.37 20.47, 17.95 13.28, 27.68 2.48 M5.58 31.81 C13.87 24.63, 22.37 13.07, 31.94 0.45 M5.25 33.49 C10.74 27.04, 16.02 20.35, 33.25 1.21 M3.19 41.21 C17.93 24.69, 28.19 10.07, 35.89 4.19 M4.08 39.23 C17.79 25.34, 28.43 12.05, 37.16 1.86 M5.42 48.34 C19.39 29.42, 30.94 16.17, 41.71 1.36 M4.52 48.03 C19.73 29.58, 33.41 12.04, 42.4 3.47 M4.45 50.82 C18.75 37.65, 31.74 22.89, 45.16 5.67 M6.34 51.28 C15.19 38.64, 26.08 28.4, 47.06 4.48 M9.53 53.87 C25.23 36.34, 37.75 17.1, 51.86 6.81 M8.72 52.6 C26.25 34.01, 42.33 15.86, 50.11 6.26 M11.41 54.65 C29.61 37.07, 43.47 20.58, 53.8 7.73 M11.83 55.99 C28.8 37.94, 44.42 17.83, 55.08 6.22 M16.21 58.59 C33.12 39, 48.03 21.58, 59.92 8.34 M13.91 60.01 C27.4 45.22, 39.5 30.21, 57.89 9.28 M19.27 63.3 C29.14 49.42, 41.43 32.44, 59.29 11.83 M18.36 61.47 C29.41 48.73, 39.08 35.81, 61.1 12.08 M22.45 63.68 C38.16 45.95, 53.34 26.74, 62.97 17.07 M22.08 62.37 C34.39 47.32, 46.98 32.98, 63.05 15.08 M23.95 64.34 C35.13 51.05, 46.77 38.33, 63.9 16.72 M26.68 64.1 C40.07 47.79, 55.91 31, 64.93 18.62 M28.17 66.9 C44.23 50.34, 56.81 34.71, 66.84 21.64 M29.35 66.63 C44.98 49.32, 60.03 31.7, 67.86 23.01 M35.63 66.95 C43.59 55.69, 57.25 42.89, 70.17 28.74 M34.06 67.16 C39.99 58.99, 49.35 50.83, 67.91 28.29 M36.13 70.09 C47.31 55.68, 58.11 45.87, 69.06 35.32 M37.87 68.1 C47.55 56.44, 57.95 45.66, 68.48 34.33 M47.27 67.59 C53 56.74, 63.46 44.65, 70.11 39.25 M44.7 66.47 C52.1 58.97, 58.91 50.34, 70.07 38.85" stroke="#15aabf" stroke-width="0.5" fill="none"></path><path d="M31.95 0.78 C38.4 -0.11, 48.34 2.04, 54.13 5.37 C59.92 8.69, 64.31 14.81, 66.68 20.74 C69.04 26.67, 70.04 34.45, 68.34 40.94 C66.63 47.43, 61.85 55.24, 56.46 59.68 C51.06 64.12, 42.62 67.39, 35.96 67.57 C29.3 67.75, 22.1 64.31, 16.49 60.76 C10.88 57.21, 4.7 52.17, 2.3 46.28 C-0.1 40.4, 0.49 31.88, 2.07 25.43 C3.65 18.98, 6.03 11.92, 11.78 7.6 C17.52 3.27, 32.05 0.68, 36.55 -0.52 C41.06 -1.71, 38.84 -0.2, 38.83 0.44 M19.07 1.63 C24.76 -1.69, 34.71 -1.97, 41.4 -0.62 C48.08 0.73, 54.89 4.86, 59.2 9.75 C63.51 14.63, 66.44 22.15, 67.26 28.7 C68.08 35.24, 67.38 43.09, 64.12 49.04 C60.85 54.99, 53.88 61.34, 47.67 64.38 C41.46 67.42, 33.03 68.75, 26.86 67.26 C20.7 65.78, 15.26 60.59, 10.67 55.47 C6.08 50.35, 0.12 43.2, -0.69 36.56 C-1.51 29.93, 2.52 21.27, 5.8 15.67 C9.08 10.06, 16.69 5.06, 18.96 2.94 C21.23 0.81, 19.05 2.44, 19.41 2.92" stroke="#000000" stroke-width="1" fill="none"></path></g><g stroke-linecap="round" transform="translate(583.8888295491538 330.999796549479) rotate(0 34.44442749023426 33.33333333333326)"><path d="M6.05 14.54 C6.05 14.54, 6.05 14.54, 6.05 14.54 M6.05 14.54 C6.05 14.54, 6.05 14.54, 6.05 14.54 M5.81 21.27 C11.07 17.37, 14.51 12.38, 19.17 3.69 M4.14 22.47 C10.34 16.53, 15.07 9.58, 19.71 5.3 M2.21 29.3 C9.4 20.91, 20 9.78, 22.96 5.28 M1.97 32.04 C6.88 25.69, 11.81 21.03, 24.76 5.4 M0.22 37.87 C8.46 31.15, 12.35 22.7, 28.77 3.41 M1.9 37.46 C13.68 23.71, 25.18 12.11, 29.53 5.74 M4.94 43.01 C15.05 26.78, 27.09 10.85, 37.8 6.08 M2.95 42.35 C11.97 30.79, 21.6 20.87, 35.47 5.35 M6.62 47.22 C14.65 32.04, 28.35 20.42, 38.83 6.91 M6.31 46.34 C13.81 34.78, 22.24 25.95, 40.94 5.1 M6.76 50.94 C20.83 36.93, 33.31 19.8, 47.68 3.52 M7.23 49.68 C17.04 37.84, 29.29 25.59, 46.49 5.24 M8.9 55.56 C19.02 41.07, 27.41 31.92, 51.37 8.22 M7.63 55.47 C17.2 44.48, 27.28 31.85, 50.82 7.27 M10.08 58.38 C21.79 44.01, 34.53 31.78, 54.85 10.02 M11.42 57.79 C26.93 40.32, 40.36 23.82, 53.34 9.18 M14.31 61.23 C26.47 44.68, 40.76 31.68, 55.86 10.85 M15.73 59.52 C29.86 42.77, 43.79 26.54, 56.8 10.82 M20.07 60.8 C35.07 43.38, 47.01 25.15, 60.3 11.37 M18.24 61.86 C33.18 43.09, 47.89 27.79, 60.55 12.91 M22.36 64.57 C36.06 48.58, 48.22 32.75, 63.87 16.68 M21.04 63.42 C36.94 44.68, 53.49 27.74, 61.88 15.94 M24.82 64.39 C36.7 50.89, 49.16 34.85, 62.6 21.85 M24.59 64.99 C36.89 52.39, 48.69 38.31, 64.5 20.86 M29.94 68.85 C43.26 51.66, 57.55 32.97, 65.19 27.1 M29.67 67.18 C37.38 58.51, 44.79 49.43, 66.57 25.51 M33.76 65.96 C47.5 54.18, 59.73 40.86, 68.35 27.64 M33.98 66.15 C45.13 55.55, 56.28 41.55, 67.91 29.59 M41.43 66.49 C49.99 54.33, 63.14 40.44, 71.65 33.34 M39.45 66.23 C49.29 55.19, 60.05 43.67, 70.67 33.52 M49.2 62.81 C55.99 55.68, 61.55 47.63, 67.06 41.88 M48.08 63.97 C55.17 56.35, 61.12 49.27, 66.66 42.82" stroke="#15aabf" stroke-width="0.5" fill="none"></path><path d="M43.55 1.97 C49.77 3.16, 56.76 7.08, 60.87 12.03 C64.98 16.98, 67.91 25.1, 68.21 31.65 C68.51 38.2, 66.07 45.94, 62.66 51.32 C59.26 56.7, 53.73 61.4, 47.79 63.91 C41.85 66.43, 33.74 67.96, 27.02 66.43 C20.3 64.9, 11.8 59.7, 7.47 54.72 C3.14 49.74, 1.29 43.2, 1.04 36.53 C0.78 29.86, 2.48 20.25, 5.93 14.69 C9.37 9.12, 15.05 5.27, 21.71 3.15 C28.38 1.03, 41.33 1.67, 45.9 1.97 C50.46 2.28, 49.2 4.58, 49.09 4.98 M31.34 0.33 C37.42 -0.34, 46.36 1.67, 52.09 4.97 C57.83 8.28, 63.26 14.03, 65.75 20.15 C68.23 26.27, 68.73 35.38, 67.02 41.7 C65.3 48.02, 60.49 54.08, 55.47 58.08 C50.45 62.08, 43.33 64.94, 36.89 65.7 C30.44 66.47, 22.64 66.26, 16.77 62.68 C10.91 59.09, 4.41 50.3, 1.69 44.19 C-1.03 38.08, -1.16 32.31, 0.47 25.99 C2.09 19.68, 6.09 10.79, 11.46 6.33 C16.82 1.86, 29.22 0.18, 32.65 -0.8 C36.09 -1.79, 32.06 -0.46, 32.06 0.4" stroke="#000000" stroke-width="1" fill="none"></path></g><g stroke-linecap="round" transform="translate(684.999974568685 332.666463216146) rotate(0 34.44442749023426 33.33333333333326)"><path d="M5.48 14.04 C5.48 14.04, 5.48 14.04, 5.48 14.04 M5.48 14.04 C5.48 14.04, 5.48 14.04, 5.48 14.04 M1.97 23.52 C7.96 17.24, 12.87 12.72, 17.7 6.58 M3.17 22.57 C8.7 15.98, 13.22 10.7, 19.3 6.2 M-0.14 29.35 C10.55 20.82, 18.47 7.94, 25.78 0.84 M2.6 30.81 C10.83 20.51, 20.77 9.56, 25.9 1.84 M3.09 36.18 C14.8 21.08, 24.79 8.02, 29.95 4.28 M2.68 35.65 C8.3 28.54, 16.06 20.14, 32.28 3.25 M5.14 39.11 C14.45 25.74, 24.01 17.2, 38 2.2 M4.49 39.9 C14.65 27.73, 26.41 13.99, 37.27 2.69 M6.93 42.91 C14.4 33.78, 25.46 18.66, 43.45 1.92 M6.05 44.49 C17.79 28.57, 32.3 13.66, 41.64 3.28 M6.81 50.88 C21.77 34.29, 33.54 18.67, 46.11 2.22 M5.55 49.17 C22.36 31.78, 38.77 12.87, 47.82 2.1 M8.35 54.52 C17.1 39.38, 31.22 29.52, 51.96 3.93 M8.26 53.93 C25.38 35.12, 40.83 16.67, 51 4.75 M11.56 56.35 C18.58 48.24, 27.71 37.43, 55.56 8.02 M10.98 57.71 C21.67 43.45, 33.29 30.66, 54.72 7.13 M16.21 57.34 C23.93 47.89, 35.24 35.6, 56.78 10.56 M14.51 59.6 C28.38 42.63, 42.72 25.98, 56.75 10.26 M17.59 62.52 C33.42 40.69, 48.48 22.69, 59.87 12.5 M18.66 60.24 C26.44 49.23, 37.75 37.88, 61.4 11.88 M22.42 63.06 C30.98 51.17, 39.71 42.72, 64.06 15.87 M21.26 61.77 C30.31 51.68, 41.14 39.65, 63.32 14.46 M23.38 63.98 C37.7 48.72, 49.39 33.16, 66.8 18.14 M23.99 65.31 C35.46 53.27, 45.53 39.86, 65.81 19.34 M30.97 65.66 C45.55 47.98, 58.59 30.59, 68.87 20.78 M29.29 66.3 C42.62 50.72, 55.49 36.48, 67.28 23.15 M33.46 67.08 C47.85 53.15, 60.77 38.45, 66.33 27.98 M33.64 65.56 C44.81 55.33, 52.59 45.14, 68.27 28.32 M39.36 64.4 C49.69 55.32, 58.23 47.16, 70.36 32.2 M39.11 65.62 C49.83 54.76, 60.08 43.48, 70.54 32.43 M43.33 67.31 C52.54 56.16, 60.93 48.51, 71.84 36.1 M44.49 66.98 C51.59 58.27, 59.13 50.9, 72.78 33.96 M58.46 55.72 C61.05 53.52, 65.49 46.65, 68.11 44.75 M58.72 56.39 C61.69 53.2, 64.23 50.08, 68.51 44.42" stroke="#15aabf" stroke-width="0.5" fill="none"></path><path d="M46.2 1.69 C52.55 2.99, 58.61 8.12, 62.49 13.26 C66.37 18.39, 69.49 25.79, 69.49 32.5 C69.5 39.21, 66.66 47.93, 62.52 53.52 C58.37 59.11, 50.96 64.21, 44.61 66.03 C38.26 67.85, 30.78 66.48, 24.42 64.43 C18.07 62.39, 10.4 58.86, 6.48 53.77 C2.57 48.67, 1.04 40.53, 0.91 33.86 C0.78 27.2, 1.75 19.23, 5.71 13.76 C9.68 8.29, 17.24 2.79, 24.67 1.05 C32.11 -0.7, 45.16 2.26, 50.32 3.29 C55.48 4.33, 56.02 6.71, 55.63 7.27 M41.28 -0.64 C47.73 0.19, 54.8 4.79, 59.12 9.66 C63.45 14.54, 66.4 22.04, 67.25 28.58 C68.09 35.13, 67.42 42.98, 64.17 48.94 C60.93 54.9, 53.98 61.27, 47.78 64.33 C41.58 67.39, 33.15 68.75, 26.98 67.29 C20.81 65.82, 15.36 60.65, 10.75 55.55 C6.14 50.45, 0.15 43.31, -0.68 36.68 C-1.51 30.04, 2.49 21.38, 5.74 15.76 C9 10.15, 13.12 5.64, 18.85 2.98 C24.59 0.33, 36.53 0.16, 40.14 -0.17 C43.76 -0.5, 40.35 0.22, 40.55 0.97" stroke="#000000" stroke-width="1" fill="none"></path></g><g stroke-linecap="round" transform="translate(514.4443511962893 14.888651529947765) rotate(0 34.44442749023426 33.33333333333326)"><path d="M6.26 13.39 C6.26 13.39, 6.26 13.39, 6.26 13.39 M6.26 13.39 C6.26 13.39, 6.26 13.39, 6.26 13.39 M4.95 23.25 C6.21 20.72, 9.26 14.13, 20.35 5.12 M3.99 23.11 C8.84 16.08, 15 9.85, 19.97 5.47 M-0.77 31.85 C7.98 23.09, 12.38 16.77, 23.57 5.18 M0.69 32.22 C9.54 22.92, 17.71 12.46, 24.58 4.5 M2.88 37.08 C10.34 24.82, 19.8 13.11, 33.06 1.58 M2.35 35.59 C11.7 26.49, 19.77 16.1, 32.02 3.45 M2.63 40.02 C8.72 30.46, 19.65 25.55, 35.6 4.47 M3.42 39.67 C11.62 31.48, 18.24 24.34, 36.09 3.36 M4 43.58 C19.96 28.81, 29.96 15.65, 39.95 5.25 M5.58 43.87 C17.71 30.17, 30.88 15.13, 41.3 4.28 M8.79 49.71 C16.2 38.28, 24.6 29.02, 45.63 5.97 M7.08 48.86 C19.63 36.26, 30.7 22.46, 45.51 3.86 M8.59 51.99 C19.24 39.89, 35.19 25.56, 48.39 7.95 M8 54.42 C18.51 41.31, 29.35 31.07, 49.21 5.18 M11.47 54.25 C24.12 42.24, 34.05 33.14, 53.63 7.88 M12.84 55.18 C21.63 43.73, 31.89 32.66, 52.74 8 M13.62 58.47 C30.89 41.79, 45.32 21.81, 57.22 11.2 M15.87 57.79 C24.3 47.32, 33.1 36.59, 56.92 11.34 M19.94 60.63 C32.12 41.78, 48.15 24.09, 60.31 11.76 M17.66 59.9 C32.94 43.82, 47.85 26.47, 59.69 12.35 M21.63 63.88 C33.5 47.98, 48.84 32.67, 64.73 13.66 M20.34 62.5 C34.17 49.12, 46.02 33.7, 63.32 15.3 M22.94 65.58 C31.38 54.52, 39.5 47.89, 64.57 18.66 M24.28 66.22 C41.19 46.87, 56.7 29.53, 65.77 20.21 M27.93 68.5 C35.37 57.18, 43.12 51.05, 64.78 24.25 M28.58 67.68 C36.73 57.49, 46.28 47.67, 67.16 24.06 M33.99 69.43 C48.4 53.99, 62.02 34.4, 68.8 27.07 M32.46 69.23 C44.88 54.38, 57.29 41.49, 69.14 27.49 M36.59 68.55 C44.33 60.67, 53.02 53.64, 70.6 32.52 M37.81 67.61 C47.89 57.34, 57.51 48.21, 70.82 31.48 M46.1 66.27 C54.23 55.16, 65.89 42.23, 73.48 33.87 M45.77 65.93 C50.3 60.42, 56.17 53.9, 71.34 35.76 M55.24 57.7 C62.94 52.6, 65.09 46.83, 69.02 44.48 M56.04 59.21 C60.16 54.24, 64.38 50.33, 68.63 44.13" stroke="#fa5252" stroke-width="0.5" fill="none"></path><path d="M23.65 1.78 C29.37 -0.66, 38.05 0.17, 44.32 2.18 C50.58 4.2, 57.06 8.79, 61.23 13.89 C65.41 19, 69.01 26.21, 69.37 32.82 C69.72 39.43, 67.48 48.19, 63.36 53.55 C59.25 58.91, 51.11 62.9, 44.7 64.97 C38.29 67.05, 31.15 68.14, 24.93 66 C18.7 63.86, 11.49 57.41, 7.35 52.12 C3.22 46.83, 0.37 40.64, 0.14 34.24 C-0.1 27.85, 0.85 19.31, 5.93 13.77 C11.01 8.22, 25.17 3.27, 30.63 0.98 C36.1 -1.3, 38.62 -0.41, 38.75 0.06 M23.07 0.98 C29.15 -1.55, 38.21 -1.71, 44.69 0.42 C51.17 2.54, 58.03 8.39, 61.97 13.76 C65.92 19.12, 68.22 26.16, 68.36 32.61 C68.5 39.05, 66.55 46.75, 62.79 52.42 C59.03 58.1, 52.47 64.75, 45.8 66.67 C39.12 68.58, 29.46 66.05, 22.75 63.93 C16.03 61.81, 9.54 59.29, 5.51 53.94 C1.48 48.59, -1.64 38.72, -1.43 31.8 C-1.23 24.89, 2.59 17.58, 6.75 12.48 C10.91 7.37, 20.63 2.73, 23.54 1.17 C26.46 -0.4, 23.86 2.46, 24.23 3.1" stroke="#000000" stroke-width="1" fill="none"></path></g><g stroke-linecap="round" transform="translate(633.8889312744143 13.222086588541515) rotate(0 34.44442749023426 33.33333333333326)"><path d="M8.67 11.51 C8.67 11.51, 8.67 11.51, 8.67 11.51 M8.67 11.51 C8.67 11.51, 8.67 11.51, 8.67 11.51 M2.95 24.16 C11.9 15.07, 16.73 8.93, 21.31 5.32 M2.81 24.12 C8.94 17.06, 15.82 11.42, 21.65 3.28 M-0.09 34.11 C6.96 22.73, 16.41 13.26, 28.81 3.22 M0.28 33.86 C7.96 25.12, 14.54 15.68, 28.14 2.67 M2.71 35.98 C7.6 28.62, 13.05 24.71, 30.59 3.1 M1.21 37.87 C11.39 26.67, 20.26 18.2, 32.47 1.97 M3.22 39.66 C14.02 29.6, 29.54 13, 38.77 0.88 M2.87 41.86 C10.64 32.57, 19.49 24.14, 37.65 3.14 M4.35 47.07 C18.32 28.56, 33.94 13.96, 44.17 3.96 M4.64 45.47 C20.19 29.09, 34.43 12.46, 43.2 1.84 M8.06 50.78 C18.95 35.8, 32.02 19.2, 50.18 2.48 M7.21 50.7 C23.93 32.07, 39.37 13.61, 48.07 2.47 M7.16 52.2 C24.23 38.67, 39.11 19.6, 53.31 3.83 M9.59 53.9 C18.49 42.75, 30.32 29.47, 50.54 4.53 M10.56 58.12 C20.88 45.79, 34.14 33.67, 53.63 6.63 M11.49 56.13 C25.58 39.96, 40.07 24.59, 53.75 8.37 M15.18 59.43 C27.96 45.21, 37.52 33.63, 58.1 8.7 M14.5 59.7 C31.19 39.87, 47.65 21.4, 58.24 11.02 M17.74 60.66 C33.24 41.85, 49.88 24.83, 59.71 13.42 M17 61.5 C30.02 47.95, 41.82 35.35, 60.3 12.31 M21.37 63.66 C35.69 48.45, 50.62 32.15, 62.76 14.84 M19.99 64.52 C32.21 51.44, 42.37 40.25, 64.4 13.84 M23.47 65.69 C33.95 52.11, 48.82 40.57, 64.68 21.57 M24.12 67.75 C33.19 55.77, 44.24 45.61, 66.22 18.68 M30.17 66.57 C41.2 51.14, 57.45 34.71, 67.84 22.37 M29.34 67.09 C43.57 51.17, 58.15 34.68, 67.65 24.71 M35.73 68.55 C45.19 57.87, 50.48 47.41, 67.58 29.33 M35.53 67.14 C42.5 58.41, 51.41 49.41, 67.99 27.68 M40.88 66.42 C50.86 56.91, 61.71 43.62, 69.94 33.19 M39.94 67 C46.48 60.36, 54.15 52.8, 68.91 34.33 M46.15 65.16 C56.32 55.59, 64.64 45.66, 70.28 35.01 M45.8 65.82 C55.06 56.41, 63.29 45.97, 72.17 37.84 M55.93 60.67 C58.77 55.92, 61.11 54.12, 65.95 49.15 M57.04 59.72 C59.72 56.47, 63.18 51.8, 65.69 48.82" stroke="#fa5252" stroke-width="0.5" fill="none"></path><path d="M46.83 1.6 C52.93 3.23, 60.19 8.51, 63.91 14.16 C67.63 19.82, 69.64 28.66, 69.14 35.5 C68.64 42.35, 65.07 50.31, 60.91 55.22 C56.75 60.13, 50.63 63.26, 44.17 64.96 C37.71 66.66, 28.42 67.55, 22.14 65.43 C15.86 63.3, 10.34 57.81, 6.5 52.2 C2.66 46.59, -1.22 38.5, -0.9 31.78 C-0.59 25.05, 4 17.05, 8.38 11.85 C12.76 6.66, 18.43 2.08, 25.36 0.64 C32.3 -0.81, 45.83 2.49, 49.99 3.19 C54.14 3.9, 50.6 4.45, 50.28 4.85 M17.82 2.97 C22.99 -0.24, 31.21 -1.31, 37.9 -0.32 C44.6 0.66, 53.12 4.08, 57.99 8.86 C62.86 13.65, 66.04 21.67, 67.12 28.39 C68.2 35.12, 66.97 43.57, 64.46 49.21 C61.94 54.86, 58.01 59.52, 52.05 62.25 C46.08 64.98, 35.35 66.65, 28.66 65.58 C21.98 64.52, 16.78 60.29, 11.92 55.84 C7.07 51.4, 1.05 45.25, -0.49 38.92 C-2.03 32.6, -0.42 23.79, 2.67 17.9 C5.75 12.01, 15.18 5.76, 18.01 3.59 C20.84 1.43, 19.25 4.23, 19.63 4.93" stroke="#000000" stroke-width="1" fill="none"></path></g><g stroke-linecap="round"><g transform="translate(506.111068725586 335.999796549479) rotate(0 22.977220200250507 -128.9960456557572)"><path d="M-0.77 0.88 C6.92 -42.4, 38.98 -215.45, 46.72 -258.87 M1.03 0.29 C8.61 -42.84, 39.06 -214.16, 46.38 -257.32" stroke="#000000" stroke-width="1" fill="none"></path></g></g><g stroke-linecap="round"><g transform="translate(613.8888804117837 325.999796549479) rotate(0 -23.909064569825546 -123.80489544197923)"><path d="M0.88 1.17 C-7.21 -40.17, -39.53 -207.22, -47.76 -248.78 M-0.12 0.73 C-8.43 -40.32, -41.05 -205.37, -48.69 -247.18" stroke="#000000" stroke-width="1" fill="none"></path></g></g><g stroke-linecap="round"><g transform="translate(711.6666920979817 333.77770996093705) rotate(0 -67.02687235639581 -133.1263103591898)"><path d="M1.17 0.02 C-21.1 -44.5, -111.85 -221.82, -134.33 -266.27 M0.32 -1.01 C-22.02 -45.47, -112.82 -220.95, -135.22 -265.11" stroke="#000000" stroke-width="1" fill="none"></path></g></g><g stroke-linecap="round"><g transform="translate(523.8888804117839 338.2220865885415) rotate(0 64.53937491743815 -132.11646363916032)"><path d="M0.02 0.11 C21.24 -43.85, 106.89 -218.76, 128.17 -262.61 M-1.43 -0.87 C20.1 -44.67, 108.6 -220.3, 130.51 -264.35" stroke="#000000" stroke-width="1" fill="none"></path></g></g><g stroke-linecap="round"><g transform="translate(628.3333587646484 333.77770996093705) rotate(0 18.054177475858722 -128.7113528594017)"><path d="M0.11 -0.72 C6.15 -43.88, 31.24 -216.19, 37.39 -258.94 M-1.29 1.52 C4.56 -41.54, 30.54 -214.56, 36.83 -258.02" stroke="#000000" stroke-width="1" fill="none"></path></g></g><g stroke-linecap="round"><g transform="translate(722.7777353922525 332.66646321614553) rotate(0 -21.140206839943545 -128.20899213087586)"><path d="M-0.72 0.73 C-7.95 -41.83, -36.57 -212.42, -43.39 -255.21 M1.11 0.06 C-5.78 -42.87, -34.08 -214.66, -41.29 -257.15" stroke="#000000" stroke-width="1" fill="none"></path></g></g><g transform="translate(493.888880411784 437.11104329427076) rotate(0 185.5 51)"><text x="0" y="38" font-family="Virgil, Segoe UI Emoji" font-size="36px" fill="#000000" text-anchor="start" style="white-space: pre;" direction="ltr">级联相关网络</text><text x="0" y="89" font-family="Virgil, Segoe UI Emoji" font-size="36px" fill="#000000" text-anchor="start" style="white-space: pre;" direction="ltr">(b)增加第一个隐层结点</text></g><g stroke-linecap="round" transform="translate(760.0000508626305 208.333231608073) rotate(0 34.44442749023426 33.33333333333326)"><path d="M1.01 22.07 C1.01 22.07, 1.01 22.07, 1.01 22.07 M1.01 22.07 C1.01 22.07, 1.01 22.07, 1.01 22.07 M2.46 26.87 C8.13 21.22, 12.75 12.86, 15.97 9.96 M1.04 27.41 C8.06 21.67, 13.93 14.68, 18.36 9.56 M1.19 34.44 C10.08 28.05, 15.57 18.7, 26.25 4.19 M2.48 33.08 C10.65 23.74, 19.25 12.99, 26.12 7.01 M2.58 38.32 C13.01 28.98, 20.91 17.53, 33.77 0.59 M3.15 38.02 C13.89 27.25, 24.71 13.91, 35.45 1.26 M3.91 45.24 C12.4 30.44, 24.27 18.79, 40.1 0.8 M3.59 43.34 C16.04 30.39, 26.79 14.71, 39.46 0.81 M6.67 47.06 C16.06 34.89, 27.89 21.71, 43.9 2.62 M5.98 47.33 C16.95 35.3, 26.85 20.99, 44.1 3.1 M8.02 51.68 C23.59 35.09, 36.37 15.8, 49.3 4.28 M7.43 51.59 C16.45 39.85, 25.56 28.9, 48.36 3.94 M8.82 56.09 C24.63 38.22, 40.13 20.24, 54.04 6.03 M9.87 55.28 C22.87 38.82, 36.8 23.35, 52.26 6.28 M10.51 56.33 C20.75 48.79, 30.93 35.66, 57.52 7.75 M12.66 58.21 C23.01 43.15, 34.8 30.99, 56.67 7.05 M15.87 60.31 C28.57 44.25, 46.84 23.21, 58.93 12.85 M15.23 60.94 C30 43.67, 47.13 25.07, 59.26 10.21 M20.44 62.19 C31.78 45.98, 46.44 30.72, 62.04 13.09 M18.28 62.24 C32.08 48.43, 43.12 34.26, 61.12 12.78 M24.76 65.05 C38.35 44.51, 56.52 27.58, 63.36 15.27 M23.85 63.04 C39.39 45.87, 55.28 26.63, 64.73 16.7 M25.73 66.72 C43.58 49.09, 58.3 32.29, 67.56 19.06 M26.45 65.37 C39.22 51.84, 52.53 36.19, 65.18 19.88 M31.38 66.89 C42.4 53.44, 56.77 36.2, 67.61 23.15 M31.73 66.75 C40.88 56.41, 49.48 45.31, 70.1 23.47 M35.1 67.54 C46.43 53.61, 56.31 40.26, 70.31 30.4 M34.41 67.71 C46.7 55.05, 57.27 41.27, 69.08 30.29 M43.62 66.01 C49.64 57.98, 57.37 46.76, 70.23 34.12 M42.16 66.1 C51.29 54.59, 61.14 44.27, 69.33 36.2 M48.67 62.94 C57.26 57.56, 61.61 51.48, 69.33 42.04 M51.03 62.21 C54.95 56.89, 60.42 52.26, 69.17 41.34" stroke="#82c91e" stroke-width="0.5" fill="none"></path><path d="M35.26 0.28 C41.74 -0.05, 49.91 3.29, 55.34 6.98 C60.76 10.67, 65.82 16.17, 67.8 22.42 C69.78 28.67, 69.58 38.2, 67.21 44.49 C64.83 50.78, 59.01 56.36, 53.53 60.16 C48.05 63.95, 41.07 67.33, 34.33 67.27 C27.58 67.2, 18.39 63.74, 13.06 59.77 C7.72 55.81, 4.32 49.8, 2.33 43.48 C0.35 37.17, -1 28.04, 1.16 21.89 C3.33 15.74, 8.55 9.96, 15.31 6.57 C22.07 3.18, 36.38 2.13, 41.71 1.56 C47.04 0.99, 47.51 2.67, 47.26 3.17 M47.99 1.05 C54.2 3.03, 61.37 9.37, 64.96 15.2 C68.55 21.02, 70.47 29.16, 69.55 36 C68.63 42.84, 63.84 51.38, 59.45 56.24 C55.07 61.1, 49.41 63.93, 43.23 65.17 C37.05 66.4, 28.76 66.01, 22.37 63.63 C15.97 61.25, 8.54 56.38, 4.86 50.89 C1.19 45.41, 0 37.09, 0.33 30.73 C0.67 24.37, 2.5 17.73, 6.87 12.73 C11.23 7.72, 19.88 2.46, 26.51 0.69 C33.14 -1.08, 43.01 1.86, 46.64 2.11 C50.28 2.36, 48.34 1.45, 48.33 2.19" stroke="#000000" stroke-width="1" fill="none"></path></g><g stroke-linecap="round"><g transform="translate(534.4444783528645 347.2222900390625) rotate(0 115.28025846540461 -50.2017790806791)"><path d="M0.98 0.04 C39.26 -16.84, 192.31 -83.7, 230.52 -100.45 M0.04 -0.98 C38.13 -17.77, 191.59 -82.75, 229.85 -99.14" stroke="#000000" stroke-width="1" fill="none"></path></g></g><g stroke-linecap="round"><g transform="translate(646.666768391927 345) rotate(0 60.33358312570955 -42.75447820272461)"><path d="M-1.1 -1.04 C18.65 -15.57, 99.2 -72.45, 119.38 -86.54 M0.52 1.03 C20.59 -13.44, 101.99 -71.3, 121.77 -85.51" stroke="#000000" stroke-width="1" fill="none"></path></g></g><g stroke-linecap="round"><g transform="translate(744.4444783528645 345) rotate(0 18.305250394631543 -36.549661632194216)"><path d="M0.48 -0.17 C6.58 -12.05, 31.5 -59.25, 37.34 -70.91 M-0.73 -1.3 C5.21 -13.6, 30.32 -61.16, 36.74 -72.93" stroke="#000000" stroke-width="1" fill="none"></path></g></g><g stroke-linecap="round"><g transform="translate(762.222188313802 227.222188313802) rotate(0 -91.12965192805663 -84.79186764967477)"><path d="M-0.57 -0.44 C-31.15 -28.31, -152.35 -139.35, -182.88 -167.28 M1.33 -1.72 C-29.42 -29.94, -152.58 -141.62, -183.58 -169.14" stroke="#000000" stroke-width="1" fill="none"></path></g></g><g stroke-linecap="round"><g transform="translate(775.5555216471355 209.44437662760402) rotate(0 -39.65960801637266 -73.91312945089135)"><path d="M0.1 -0.3 C-13.12 -24.56, -65.17 -121.53, -78.23 -145.84 M-1.31 -1.5 C-14.83 -26.08, -66.43 -123.07, -79.42 -147.53" stroke="#000000" stroke-width="1" fill="none"></path></g></g><g stroke-linecap="round" transform="translate(990.333231608073 328.2220865885415) rotate(0 34.44442749023426 33.33333333333326)"><path d="M8.1 11.01 C8.1 11.01, 8.1 11.01, 8.1 11.01 M8.1 11.01 C8.1 11.01, 8.1 11.01, 8.1 11.01 M3.3 22.25 C8.47 18.46, 11.1 16.45, 15.93 6.28 M3.82 22.15 C8.44 16.59, 14.58 11.47, 17.74 6.36 M-0.16 30.86 C6.93 23.43, 14.06 16.26, 27.53 1.53 M2.18 30.66 C7.52 24.05, 11.38 18.31, 26.46 2 M1.49 34.61 C12.11 24.48, 23.13 8.27, 30.38 3.63 M2.6 35.52 C12.61 24.23, 20.64 13.42, 30.66 4.65 M4.07 39.2 C12.6 30.85, 18.69 24.09, 35.26 5.05 M3.65 40.1 C10.02 32.28, 18.43 24.81, 35.24 4.78 M6.57 46.36 C15.19 35.7, 21.79 23.94, 39.8 6.25 M5.03 44.8 C18.31 30.16, 32.06 13.16, 40.6 4.18 M7.72 51.76 C18.37 37.19, 30.8 23.54, 46.27 2.45 M5.32 50.8 C18.78 33.67, 33.41 17.13, 45.59 4.56 M7.23 53.6 C19.52 38.84, 30.49 27.03, 50.12 5.58 M8.38 54.43 C20.25 40.72, 32.66 26.52, 51.27 3.26 M10.33 54.51 C22.4 43.44, 30.45 35.81, 55.24 7.12 M11.12 56.94 C22.76 43.68, 34.92 29.04, 55.31 5.99 M13.64 57.43 C26.6 42.27, 40.61 29.1, 56.33 8.71 M14.55 58.16 C27.68 43.53, 40.56 28.63, 57.65 9.14 M17.71 62.99 C31.25 47.67, 43.92 33.83, 61.62 14.29 M17.49 61.63 C29.08 48.43, 40.47 36.36, 60.24 11.83 M21.56 65.09 C34.18 48.3, 50.15 28.64, 63.37 13.71 M20.3 64.13 C30.99 50.1, 44.36 37.27, 62.89 15.3 M23.81 63.05 C38.14 49.09, 55.15 31.46, 64.35 17.92 M25.22 63.51 C34.56 54.88, 43.45 43.79, 66.87 17.88 M30.11 66.04 C44.28 47.45, 59.36 30.96, 67.17 24.01 M30.95 65.01 C42.95 49.75, 54.98 36.97, 67.39 21.89 M33.45 64.86 C43.31 56.87, 49.84 46.35, 67.99 26.62 M36.18 64.83 C43.26 57.88, 50.39 49.02, 68.55 26.84 M40.81 64.14 C47.72 55.9, 55.78 48.5, 70.5 30.82 M39.42 66.14 C48.44 55.33, 55.43 46.95, 68.54 32.13 M45.02 68.42 C49.19 61.58, 54.02 55.74, 71.16 36.75 M44.05 66.96 C54 55.93, 63.33 44.63, 69.94 37.48 M56.49 59.15 C58.11 57.38, 58.92 55.19, 62.78 51.03 M55.72 60.28 C57 57.75, 59.31 55.32, 63.9 50.52" stroke="#15aabf" stroke-width="0.5" fill="none"></path><path d="M27.44 1.55 C33.74 -0.45, 43.02 -0.26, 49.2 2.21 C55.39 4.67, 61.25 10.53, 64.57 16.35 C67.88 22.18, 69.76 30.75, 69.09 37.15 C68.42 43.55, 65 50.04, 60.58 54.74 C56.16 59.44, 49.35 63.77, 42.56 65.36 C35.78 66.96, 26.17 66.94, 19.87 64.31 C13.56 61.69, 7.96 55.35, 4.73 49.62 C1.51 43.89, -0.06 36.42, 0.53 29.96 C1.12 23.49, 3.28 15.61, 8.28 10.81 C13.27 6, 26.05 2.68, 30.5 1.15 C34.95 -0.38, 34.91 1.3, 34.98 1.64 M18.13 3.44 C23.73 0.26, 34.31 -1.43, 41.06 -0.09 C47.81 1.25, 54 6.81, 58.64 11.49 C63.29 16.16, 67.92 21.89, 68.93 27.94 C69.93 34, 67.83 41.75, 64.67 47.8 C61.51 53.85, 56.07 61.15, 49.95 64.24 C43.82 67.32, 34.43 67.47, 27.94 66.3 C21.44 65.13, 15.68 61.93, 10.98 57.21 C6.28 52.49, 0.77 44.3, -0.26 37.98 C-1.29 31.66, 1.67 25.29, 4.81 19.28 C7.94 13.28, 16.16 4.7, 18.56 1.94 C20.95 -0.82, 18.83 2.2, 19.2 2.73" stroke="#000000" stroke-width="1" fill="none"></path></g><g stroke-linecap="round" transform="translate(1103.6665140787763 328.7776082356768) rotate(0 34.44442749023426 33.33333333333326)"><path d="M15.15 5.22 C15.15 5.22, 15.15 5.22, 15.15 5.22 M15.15 5.22 C15.15 5.22, 15.15 5.22, 15.15 5.22 M5.37 24.47 C8.51 20.11, 13.43 13.01, 21.64 5.19 M5.26 22.46 C8.94 19.54, 13.07 14.69, 21.72 3.85 M4.4 28.54 C12.89 19.79, 21.66 12.91, 27.36 1.08 M4.2 31 C12.55 19.21, 21.76 9.13, 27.83 3.91 M3 35.05 C15.97 23.21, 22.88 12.65, 33.89 2.66 M3.91 36.95 C13.09 24.5, 22.79 14.84, 34.91 1.26 M1.12 45.54 C14.33 29.39, 29.06 15.63, 39.94 0.43 M2.02 43.69 C10.93 34.99, 20.27 23.62, 39.67 1.7 M6.42 47.97 C14.38 35.84, 21.18 27.59, 44.45 5.75 M4.86 46.56 C15.14 35.97, 23.09 26.22, 42.38 4.08 M9.29 50.54 C20.35 37.16, 32.28 24.15, 45.37 6.01 M8.32 49.83 C21.4 34.34, 35.1 17.2, 47.48 4.66 M10.11 53.9 C19.01 41.42, 30.87 27.3, 52.57 6.47 M10.94 54.11 C24.58 38.83, 37.73 21.96, 50.26 6.18 M10.75 58.62 C21.81 44.5, 36.3 32.29, 55.83 7.43 M13.19 56.99 C24.72 44.44, 34.85 31.49, 54.69 8.13 M13.42 60.26 C28.95 43.26, 46.49 23.62, 57.71 10.05 M14.15 61.33 C30.57 42.52, 46.76 23.92, 58.14 9.86 M20.68 63.01 C29.62 51.69, 40.01 40.07, 63.02 12.53 M19.33 62.07 C28.47 51.25, 38.74 39.69, 60.56 13.87 M23.08 63.09 C38.11 47.01, 50.24 30.66, 62.19 16.42 M22.12 62.84 C36.74 46.99, 52.52 29.9, 63.78 17.35 M25.77 62.85 C40.93 51.41, 52.41 35.24, 66.13 18.3 M26.23 65.18 C37.28 54.17, 45.92 42.74, 66.09 21.03 M32.07 66.17 C41.79 53.35, 53.62 39.63, 69.7 24.15 M31.04 67.19 C43.16 51.42, 57.76 35.98, 67.58 22.73 M34.21 69.03 C44.87 56.71, 53.09 44.99, 69.12 25.94 M34.18 69.3 C46.09 56.73, 56.07 43.94, 69.35 27.18 M39.42 67.42 C49.51 56.76, 60.38 46, 68.84 32.8 M41.42 67.31 C47.63 57.51, 56.31 48.77, 70.15 32.3 M48.89 65.53 C54.21 57.95, 60.52 53.13, 68.86 41.35 M47.43 65.79 C53.36 58.83, 59.03 52.96, 69.58 38.81" stroke="#15aabf" stroke-width="0.5" fill="none"></path><path d="M37.01 0.94 C43.19 0.82, 50.4 3.77, 55.48 7.78 C60.57 11.8, 65.59 18.73, 67.52 25.05 C69.46 31.37, 69.61 39.51, 67.1 45.68 C64.58 51.85, 58.27 58.7, 52.45 62.07 C46.62 65.45, 38.66 66.38, 32.13 65.91 C25.6 65.45, 18.5 63.22, 13.26 59.3 C8.01 55.37, 2.51 48.74, 0.67 42.35 C-1.17 35.96, -0.21 27.17, 2.23 20.95 C4.67 14.73, 9 8.42, 15.32 5.03 C21.64 1.65, 35.54 1.29, 40.14 0.65 C44.73 0.01, 43.19 0.86, 42.9 1.2 M39.99 1.21 C46.35 1.86, 53.34 4.81, 58.33 9.38 C63.31 13.95, 68.87 22.16, 69.89 28.65 C70.91 35.15, 67.95 42.55, 64.45 48.34 C60.95 54.13, 54.64 60.5, 48.88 63.38 C43.13 66.25, 36.38 66.47, 29.91 65.57 C23.45 64.68, 14.92 62.64, 10.1 58.01 C5.29 53.38, 2.09 44.31, 1.03 37.79 C-0.04 31.28, 0.47 24.73, 3.7 18.91 C6.93 13.1, 14.62 6.04, 20.42 2.9 C26.22 -0.23, 35.46 0.41, 38.48 0.11 C41.51 -0.2, 38.62 0.31, 38.56 1.09" stroke="#000000" stroke-width="1" fill="none"></path></g><g stroke-linecap="round" transform="translate(1204.7776590983076 330.44427490234375) rotate(0 34.44442749023426 33.33333333333326)"><path d="M8.79 10.29 C8.79 10.29, 8.79 10.29, 8.79 10.29 M8.79 10.29 C8.79 10.29, 8.79 10.29, 8.79 10.29 M4.8 22.61 C9.01 18.82, 10.48 12.64, 18.82 4.53 M2.79 23.07 C8.96 17.89, 13.19 11.64, 17.49 6.49 M0.8 30.74 C9.18 22.39, 19.38 11.22, 24.79 3.57 M3.26 29.22 C8.49 21.73, 15.46 14.55, 27.62 2.43 M1.31 37.23 C10.71 23.24, 21.39 14.39, 31.19 4.18 M3.21 35.3 C11.35 24.4, 22.29 14.39, 29.8 4.22 M4.94 39.69 C10.56 33.6, 18.57 24.44, 33.59 3.1 M3.1 40.36 C16.97 26.75, 28.17 13.12, 34.86 3.35 M5.8 45.87 C10.53 35.67, 19.17 29.44, 42.03 3.44 M4.39 46.08 C15.96 31.66, 28.36 18.39, 40.36 4.44 M6.04 51.08 C14.67 40.99, 23.74 27.62, 46.81 5.46 M5.33 49.95 C22.39 30.65, 37.76 13.66, 45.47 3.85 M9.05 50.81 C22.28 36.67, 33.84 24.65, 51.05 4.48 M9.25 53.72 C23.09 37.41, 35.33 21.2, 50.76 3.38 M12.75 54.35 C24.14 43.51, 37.4 28.33, 53.91 5.77 M11.11 56.84 C23.51 41.66, 35.51 28.57, 54.61 6.98 M14.03 57.17 C28.31 44.14, 39.94 28.1, 57.03 11.12 M15.1 58.64 C29.43 42.17, 43.99 25.02, 56.84 9.15 M18.68 61.77 C30.83 48.06, 42.71 35.66, 59.14 10.97 M17.74 61.01 C29.46 48.36, 40.45 34.46, 60.48 12.89 M19.25 65.61 C30.32 50.97, 41.21 38.66, 62.67 16.12 M19 64.11 C30.91 52.86, 41.64 39.73, 63.6 15.15 M22.89 66.66 C36.68 53.42, 45.66 40.16, 64.19 16.75 M25.21 65.75 C40.95 47.19, 56.27 30.54, 66.92 17.77 M29.32 64.84 C41.77 51.18, 53.3 39.83, 67.71 23.64 M30.34 64.68 C41.84 52.08, 53.71 37.27, 66.3 22.41 M35.3 66.39 C47.41 49.88, 60.1 36.19, 65.77 28.19 M35.57 66.69 C43.91 56.13, 52.06 45.58, 67.01 28.48 M39.83 64.93 C46.67 59.02, 53.41 50.63, 68.04 32.38 M39.72 65.58 C50.4 53.08, 62.12 39.71, 67.54 32.8 M43.41 68.43 C52.73 57.12, 64.81 43.82, 70.59 37.86 M43.68 67.85 C52.09 57.68, 61.57 47.25, 68.04 38.63 M55.06 60.87 C55.74 58.92, 56.72 58.11, 60.89 52.57 M53.72 61.62 C56.55 58.52, 59.81 55.23, 61.79 53.35" stroke="#15aabf" stroke-width="0.5" fill="none"></path><path d="M50.12 2.61 C56.12 4.71, 61.92 11.28, 65.06 17.2 C68.21 23.12, 69.84 31.74, 68.97 38.12 C68.11 44.5, 64.46 50.89, 59.89 55.46 C55.33 60.03, 48.4 64.15, 41.57 65.56 C34.75 66.97, 25.17 66.7, 18.95 63.91 C12.73 61.11, 7.29 54.59, 4.24 48.77 C1.19 42.95, -0.14 35.43, 0.65 28.98 C1.44 22.54, 4.44 14.66, 8.96 10.09 C13.48 5.51, 20.42 2.22, 27.76 1.54 C35.09 0.86, 48.42 5.02, 52.98 6.01 C57.54 6.99, 55.63 7.07, 55.12 7.43 M31.49 -0.38 C37.92 -1.27, 45.28 2.57, 51.08 5.81 C56.87 9.05, 63.45 13.5, 66.26 19.05 C69.06 24.59, 69.31 32.42, 67.91 39.08 C66.51 45.74, 62.93 54.44, 57.86 59.03 C52.8 63.61, 44.06 65.95, 37.51 66.59 C30.95 67.23, 24.39 66.17, 18.54 62.89 C12.69 59.6, 5.24 52.69, 2.41 46.88 C-0.42 41.06, 0.2 34.62, 1.57 28 C2.94 21.38, 5.83 12, 10.64 7.15 C15.44 2.3, 27.03 0.16, 30.39 -1.11 C33.75 -2.37, 30.5 -1.26, 30.79 -0.44" stroke="#000000" stroke-width="1" fill="none"></path></g><g stroke-linecap="round" transform="translate(1034.2220357259118 12.66646321614553) rotate(0 34.44442749023426 33.33333333333326)"><path d="M3.57 17.67 C3.57 17.67, 3.57 17.67, 3.57 17.67 M3.57 17.67 C3.57 17.67, 3.57 17.67, 3.57 17.67 M1.88 26.82 C8.17 17.98, 12.08 15.13, 18.78 5.27 M2.34 26.33 C8.18 19.55, 12.96 13.08, 20.73 4.71 M1.94 31.38 C8.04 27.72, 11.31 18.81, 28.28 2.81 M0.42 32.32 C9.59 22.04, 19.07 12.85, 27.14 3.63 M2.53 37.73 C6.78 30.65, 16.15 22.61, 33.32 3.08 M0.6 38.14 C9.93 28.74, 20.15 17.2, 33.36 1.51 M2.46 41.91 C16.33 29.22, 27.06 14.44, 38.18 2.73 M3.13 43.46 C13.95 30.78, 24.73 18.4, 38.43 0.14 M5.46 45.12 C18.65 29.06, 35.85 14.31, 41.83 3.43 M5.66 46.21 C16.87 33.11, 29.2 18.78, 42.83 2.11 M7.49 51.03 C23.34 33.06, 35.96 15.5, 47.92 6.71 M6.36 51.06 C15.17 39.43, 26.33 28.01, 46.31 4.8 M6.95 54.23 C18.13 40.85, 31.44 29.87, 51.02 6.88 M9.86 55.02 C21.88 38.82, 34.04 23.34, 49.91 6.52 M8.83 58.31 C23.69 45.82, 34.16 31.63, 54.01 7.13 M11.32 58.75 C22.13 44.64, 35.08 29.43, 55.22 7.78 M12.69 60.98 C26.51 46.06, 37.26 33.15, 59.65 10.42 M14.16 60.87 C28.89 43.96, 42.89 26.54, 57.69 9.39 M18.35 63.74 C32.16 47.44, 47.35 28.94, 59.9 11.59 M17.58 62.8 C31.94 46.23, 45.06 30.52, 61.82 11.71 M23.14 63.46 C36.99 45.15, 53.16 25.93, 64.13 15.51 M21.63 63.52 C38.07 46.31, 52.61 29.94, 63.17 16.05 M27.5 65.53 C35.98 53.52, 44.41 43.11, 64.5 21.15 M26.59 65.92 C37.19 52.48, 49.67 39.28, 65.52 19.87 M29 67.23 C39.88 54.34, 53.11 42.09, 68.87 23.52 M28.83 67.37 C43.94 50.96, 56.85 33.81, 67.64 23.95 M37.14 64.8 C41.99 56.89, 49.66 47.4, 69.48 26.51 M37.44 65.95 C49.66 50.4, 61.87 34.72, 69.76 26.41 M41.62 64.71 C52.38 54.3, 60.64 41.57, 71.14 32.52 M42.27 62.92 C49.11 56.03, 55.1 48.46, 71.56 31.49 M50.3 61.88 C56.62 56.86, 60.95 49.38, 68.75 40.12 M49.72 62.14 C54.36 57.42, 58.72 50.39, 69.52 38.44" stroke="#fa5252" stroke-width="0.5" fill="none"></path><path d="M39.2 0.78 C45.44 1.22, 53.64 5.5, 58.6 10.12 C63.56 14.74, 67.99 22, 68.95 28.53 C69.91 35.05, 67.59 43.62, 64.36 49.25 C61.13 54.88, 55.36 59.47, 49.56 62.31 C43.76 65.15, 36.21 67.14, 29.55 66.3 C22.88 65.46, 14.45 61.98, 9.59 57.28 C4.73 52.58, 1.41 44.68, 0.38 38.11 C-0.65 31.54, 0.18 23.55, 3.41 17.86 C6.63 12.17, 12.32 6.62, 19.76 3.98 C27.19 1.34, 42.48 1.81, 48.03 2.03 C53.57 2.26, 53.34 4.81, 53.02 5.33 M21.65 1.68 C27.71 -1, 38.38 -0.19, 44.89 1.56 C51.39 3.32, 56.86 7.13, 60.68 12.2 C64.49 17.27, 67.18 25.54, 67.78 31.99 C68.38 38.45, 67.76 45.31, 64.26 50.93 C60.76 56.55, 53.16 63.38, 46.79 65.71 C40.41 68.03, 32.58 66.66, 26.03 64.88 C19.48 63.11, 11.56 60.15, 7.47 55.05 C3.39 49.95, 2.08 41, 1.52 34.29 C0.97 27.57, 0.9 20.1, 4.13 14.75 C7.37 9.39, 18.08 3.98, 20.92 2.17 C23.76 0.35, 20.7 3.25, 21.17 3.86" stroke="#000000" stroke-width="1" fill="none"></path></g><g stroke-linecap="round" transform="translate(1153.6666158040368 10.99989827473928) rotate(0 34.44442749023426 33.33333333333326)"><path d="M8.14 12.37 C8.14 12.37, 8.14 12.37, 8.14 12.37 M8.14 12.37 C8.14 12.37, 8.14 12.37, 8.14 12.37 M3.2 26.8 C5.25 19.8, 13.3 12.07, 19.19 6.55 M2.72 26.42 C7.4 19.71, 12.38 13.76, 18.64 5.78 M0.35 33.62 C10.88 22.24, 16.12 15.04, 26.81 3.54 M1.29 31.53 C9.14 23.2, 18.09 14.58, 27.62 1.91 M1.36 34.99 C10.85 27.54, 19.35 19.17, 33.87 1.88 M1.77 36.73 C12.15 27.24, 20.4 16.24, 32.29 2.28 M3.87 42.52 C12.31 32.72, 18.67 21.46, 39.66 2.26 M5.42 41.24 C13.83 31.15, 22.53 19.21, 37.06 3.37 M3.99 45.14 C18.14 32.23, 33.6 14.13, 43.47 3.28 M5.08 45.44 C15.55 34.34, 24.77 23.65, 42.15 3.78 M6.16 52.93 C22.48 30.99, 39.21 15.31, 50.53 1.36 M6.19 50.59 C21.42 34.19, 36.79 15.59, 48.61 1.96 M9 53.01 C20.42 41.55, 34.24 25.56, 51.85 5.37 M9.79 54.51 C25.11 34.19, 41.18 15.17, 51.48 4.62 M12.63 57.47 C22.06 46.67, 29.83 34.8, 54 7.44 M13.07 55.28 C29.35 37.08, 44.52 19.76, 54.65 7.39 M16.45 58.67 C24.87 46.74, 35.29 37.89, 58.44 10.89 M16.34 58.46 C25.95 46.64, 35.08 35.15, 57.4 10.54 M20.36 61.91 C35.92 44.81, 49.32 23.17, 60 13.35 M19.42 61.45 C32.3 45.33, 46.05 30.78, 60.12 13.91 M21.98 62.52 C35.41 47.23, 47.92 34.38, 62.81 16.87 M22.04 64.49 C31.78 53.18, 42.3 41.67, 63.34 14.84 M27.17 65.02 C34.76 53.53, 43.9 41.62, 68.09 18.04 M27.56 63.53 C35.78 54.53, 44.29 44.64, 66.8 18.12 M31.32 64.73 C44.59 51.6, 58.48 35.81, 68.13 24.42 M31.46 65.78 C43.02 51.31, 53.87 38.03, 68.56 22.18 M35.79 64.16 C45.19 54.02, 53.03 43.97, 68.04 29.8 M36.94 65.8 C45.02 54.66, 53.02 45.24, 67.93 28.26 M41.83 65.83 C49.19 56.9, 54.24 49.75, 72.37 30.45 M40.04 66.2 C51.16 53.7, 61.6 41.14, 71.34 32.33 M43.17 69.76 C56.49 54.98, 67.33 42.9, 72.36 35.92 M43.43 68.9 C53.79 57.44, 61.81 47.11, 70.69 37.84" stroke="#fa5252" stroke-width="0.5" fill="none"></path><path d="M48.12 2.4 C54.13 4.57, 60.74 11.03, 64.26 16.51 C67.77 21.99, 69.69 28.95, 69.2 35.29 C68.72 41.63, 65.94 49.38, 61.35 54.54 C56.76 59.7, 48.34 64.74, 41.65 66.24 C34.95 67.75, 27.23 66.18, 21.18 63.57 C15.13 60.96, 8.95 56.15, 5.37 50.59 C1.78 45.04, -0.78 36.59, -0.35 30.25 C0.09 23.91, 3.44 17.29, 7.98 12.56 C12.51 7.83, 19.23 3.02, 26.87 1.87 C34.51 0.71, 48.59 4.08, 53.8 5.66 C59.01 7.23, 58.45 10.91, 58.13 11.29 M34.11 1.4 C40.46 0.97, 49.72 2.38, 55.2 5.83 C60.68 9.28, 64.96 15.61, 67 22.1 C69.03 28.59, 69.62 38.37, 67.44 44.77 C65.26 51.17, 59.23 56.75, 53.91 60.5 C48.59 64.26, 42.25 67.36, 35.51 67.29 C28.77 67.22, 18.97 63.81, 13.47 60.09 C7.96 56.38, 4.55 51.43, 2.48 44.98 C0.42 38.53, -0.85 28.07, 1.07 21.4 C2.98 14.74, 8.4 8.76, 13.99 4.98 C19.58 1.2, 30.98 -0.63, 34.59 -1.3 C38.2 -1.97, 35.57 0.25, 35.66 0.95" stroke="#000000" stroke-width="1" fill="none"></path></g><g stroke-linecap="round"><g transform="translate(1025.8887532552085 333.7776082356768) rotate(0 22.87148250807229 -129.33721692040558)"><path d="M0.38 0.95 C8.13 -42.5, 39.02 -216.28, 46.63 -259.63 M-0.89 0.41 C6.79 -42.39, 38.52 -215.42, 46.25 -258.48" stroke="#000000" stroke-width="1" fill="none"></path></g></g><g stroke-linecap="round"><g transform="translate(1133.6665649414062 323.7776082356768) rotate(0 -23.78169527327009 -124.62649869076438)"><path d="M0.95 1.07 C-7.31 -40.4, -40.36 -206.85, -48.52 -248.44 M-0.01 0.59 C-7.98 -41.28, -38.05 -208.47, -46.19 -250.33" stroke="#000000" stroke-width="1" fill="none"></path></g></g><g stroke-linecap="round"><g transform="translate(1231.4443766276042 331.5555216471348) rotate(0 -66.81704573438657 -132.14260168071985)"><path d="M1.07 -0.74 C-21.32 -45.19, -111.48 -221.74, -134 -265.78 M0.18 1.49 C-22.37 -42.86, -112.26 -219.6, -134.71 -264.35" stroke="#000000" stroke-width="1" fill="none"></path></g></g><g stroke-linecap="round"><g transform="translate(1043.6665649414065 335.9998982747393) rotate(0 63.96598802134383 -132.16194829644792)"><path d="M-0.74 0.45 C20.55 -43.54, 106.97 -219.01, 128.67 -262.89 M1.08 -0.36 C22.1 -44.2, 106.28 -220.68, 127.61 -264.77" stroke="#000000" stroke-width="1" fill="none"></path></g></g><g stroke-linecap="round"><g transform="translate(1148.111043294271 331.5555216471348) rotate(0 18.169961129118008 -129.61694610159998)"><path d="M0.45 -0.22 C6.46 -42.96, 30.99 -214.11, 37.11 -257.2 M-0.77 -1.38 C5.02 -44.41, 30.16 -216.26, 36.4 -259.01" stroke="#000000" stroke-width="1" fill="none"></path></g></g><g stroke-linecap="round"><g transform="translate(1242.555419921875 330.4442749023433) rotate(0 -21.25176804756586 -128.22232712996026)"><path d="M-0.22 0.45 C-7.04 -42.13, -34.48 -212.53, -41.64 -255.04 M-1.79 -0.36 C-8.65 -43.34, -35.79 -214.21, -42.28 -256.89" stroke="#000000" stroke-width="1" fill="none"></path></g></g><g transform="translate(1013.6665649414065 434.8888549804683) rotate(0 185.5 51)"><text x="0" y="38" font-family="Virgil, Segoe UI Emoji" font-size="36px" fill="#000000" text-anchor="start" style="white-space: pre;" direction="ltr">级联相关网络</text><text x="0" y="89" font-family="Virgil, Segoe UI Emoji" font-size="36px" fill="#000000" text-anchor="start" style="white-space: pre;" direction="ltr">(c)增加第二个隐层结点</text></g><g stroke-linecap="round" transform="translate(1279.777735392253 206.11104329427098) rotate(0 34.44442749023426 33.33333333333326)"><path d="M5.13 16.38 C5.13 16.38, 5.13 16.38, 5.13 16.38 M5.13 16.38 C5.13 16.38, 5.13 16.38, 5.13 16.38 M3.32 24.08 C7.56 21.89, 12.64 15.86, 21.8 3.47 M3.03 24.26 C9.47 17.4, 16.06 11.42, 21.07 2.99 M0.13 36.27 C9.28 21.41, 20.21 9.89, 27.72 4.73 M-0.43 33.74 C10.34 22.91, 18.13 12.65, 27.48 3.2 M2.44 38.76 C11.58 24.61, 21.58 16.1, 34.93 1.34 M1.78 38.41 C12.72 25.45, 24.31 13.7, 33.66 1.51 M3.53 40.56 C12.19 34.07, 21.36 22.28, 40.12 1.1 M4.63 42.44 C12.26 32.23, 19.14 24.09, 39.72 2.85 M4.86 45.19 C16.71 34.25, 23.76 24.91, 43.83 1.73 M6.59 46.17 C17.81 32.96, 29.29 20.11, 43.66 2.02 M8.78 49.09 C21.21 34.19, 34.46 16.19, 48.39 3.29 M7.52 50.3 C17.28 38.04, 28.52 24.86, 48.44 3.94 M9.68 56.53 C24.21 40.77, 37.7 21.76, 50.27 4.46 M7.06 56.61 C18.38 43.02, 31.39 30.28, 51.58 5.73 M13.14 57.4 C24.71 45.28, 33.64 32.44, 54.14 7.99 M10.89 57.61 C26.33 40.33, 42.79 21.67, 54.36 7.98 M13.99 61.2 C30.39 42.87, 46.1 24.84, 56.71 10.34 M16.03 60.3 C25.74 48.62, 36.13 36.83, 58.85 10.15 M19.37 62.33 C28.01 51.68, 39.05 39.49, 60.51 13.46 M19.06 61.27 C34.55 44, 48.45 26.81, 60.93 12.28 M21.28 61.99 C35.84 47.2, 52.94 29.68, 63.91 17.8 M21.92 62.47 C36.29 49.18, 48.76 33.36, 63.42 15.66 M24.5 66.3 C37.01 55.67, 44.37 44.23, 65.52 22.54 M26.91 65.06 C38.03 51.43, 50.24 37.33, 65.73 21.03 M29.8 69.21 C40.8 53.25, 56.69 37.69, 65.48 23.32 M29.16 68.18 C40 55.64, 49.81 43.22, 66.3 23.99 M33.71 70.05 C46.29 58, 55.16 45.18, 67.32 28.08 M33.6 68.31 C45.25 55.54, 57.11 42.78, 67.66 28.74 M41.24 67.98 C46.45 56.79, 56.28 47.99, 70.48 30.42 M40.83 67.54 C48.62 57.59, 57.11 49.04, 70.17 33.19 M45.65 67.6 C51.85 60.19, 57.41 55.1, 67.65 39.31 M44.06 68.96 C51.32 60.04, 58.06 51.54, 68.46 40.53" stroke="#82c91e" stroke-width="0.5" fill="none"></path><path d="M20.57 3 C26.19 0.22, 35.8 -1.03, 42.54 0.41 C49.28 1.85, 56.71 6.65, 61.01 11.65 C65.3 16.65, 67.91 23.71, 68.32 30.39 C68.73 37.07, 66.84 45.95, 63.44 51.73 C60.05 57.52, 54.17 62.82, 47.95 65.11 C41.73 67.4, 32.88 67.09, 26.11 65.45 C19.34 63.81, 11.7 60.33, 7.33 55.29 C2.96 50.25, 0.26 41.69, -0.11 35.21 C-0.48 28.73, 0.5 22.24, 5.09 16.42 C9.68 10.6, 22.36 2.88, 27.44 0.3 C32.51 -2.28, 35.45 0.36, 35.56 0.93 M21.8 2.2 C27.8 -0.44, 38.43 0.14, 44.94 1.86 C51.44 3.58, 56.71 7.26, 60.83 12.52 C64.96 17.78, 69.43 27.14, 69.7 33.44 C69.97 39.73, 66.39 45.33, 62.46 50.3 C58.53 55.27, 52.32 60.97, 46.11 63.28 C39.89 65.58, 31.43 65.63, 25.16 64.13 C18.9 62.64, 12.61 59.29, 8.51 54.31 C4.41 49.33, 1.16 40.8, 0.58 34.25 C0 27.71, 1.63 20.46, 5.03 15.01 C8.43 9.57, 17.97 3.8, 20.97 1.59 C23.97 -0.61, 22.78 1.27, 23.02 1.78" stroke="#000000" stroke-width="1" fill="none"></path></g><g stroke-linecap="round"><g transform="translate(1054.222162882487 345.00010172526027) rotate(0 115.14433685251976 -49.73584288067036)"><path d="M0.52 -0.94 C38.93 -17.81, 192.86 -84.23, 230.96 -100.65 M-0.67 1.18 C37.63 -15.6, 191.81 -82.34, 230.52 -99.45" stroke="#000000" stroke-width="1" fill="none"></path></g></g><g stroke-linecap="round"><g transform="translate(1166.4444529215496 342.77781168619777) rotate(0 60.38943195268047 -42.722922525058266)"><path d="M-0.94 0.96 C18.85 -13.52, 99.1 -72, 119.35 -86.41 M0.77 0.42 C20.9 -13.98, 101.83 -71.22, 121.72 -85.32" stroke="#000000" stroke-width="1" fill="none"></path></g></g><g stroke-linecap="round"><g transform="translate(1264.222162882487 342.77781168619777) rotate(0 19.043447207588144 -35.37874835881405)"><path d="M0.96 -0.65 C6.85 -12.25, 29.86 -58.71, 35.81 -70.55 M0.01 1.62 C6.22 -10.25, 32.08 -60.32, 38.08 -72.38" stroke="#000000" stroke-width="1" fill="none"></path></g></g><g stroke-linecap="round"><g transform="translate(1281.9998728434246 224.99999999999955) rotate(0 -91.10934526513944 -83.20849719730057)"><path d="M-0.65 -0.85 C-30.96 -28.97, -152.22 -139.98, -182.77 -167.73 M1.21 1.31 C-29.12 -26.68, -152.39 -137.71, -183.43 -166.17" stroke="#000000" stroke-width="1" fill="none"></path></g></g><g stroke-linecap="round"><g transform="translate(1295.333206176758 207.22218831380178) rotate(0 -38.87698461276483 -73.36047511373954)"><path d="M-0.85 0.56 C-13.97 -23.88, -64.98 -122.73, -77.73 -147.28 M0.9 -0.19 C-12.45 -24.42, -65.52 -121.86, -78.65 -146.07" stroke="#000000" stroke-width="1" fill="none"></path></g></g><g stroke-linecap="round" transform="translate(1278.3331807454429 102.77770996093773) rotate(0 34.44442749023426 33.33333333333326)"><path d="M4.53 18.51 C4.53 18.51, 4.53 18.51, 4.53 18.51 M4.53 18.51 C4.53 18.51, 4.53 18.51, 4.53 18.51 M3.99 26.92 C9.89 20.7, 12.25 12.86, 21.47 6.47 M3.26 25.92 C7.46 20.73, 13.15 14.42, 20.16 5.85 M0.37 35.91 C12.29 21.96, 21.97 13.52, 25.27 4.41 M1.58 34.64 C5.72 27.73, 12.1 23.19, 26.23 4.63 M1.59 38.35 C12.74 27.36, 24.28 12.72, 32.98 5.08 M1.98 39.63 C7.47 31.91, 15.23 25.22, 31.74 4.82 M2.83 44.45 C15.81 28.7, 28.71 14.23, 39.93 1.25 M3.32 44.29 C14.24 33.44, 21.58 22.29, 41.46 0.32 M6.3 45.51 C17.93 31.67, 32.67 17.69, 43.43 2.96 M6.81 46.71 C20.93 30.11, 36.71 12.99, 44.15 2.26 M6.96 53.23 C19.19 39.07, 27.43 28.42, 49.02 5.95 M6.97 50.84 C23.51 33.29, 39.01 14.74, 47.99 5.25 M9.21 53.59 C23.93 39.18, 41.61 19.5, 53.9 8.67 M9.37 54.2 C23.9 38.62, 37.52 23.57, 51.22 6.16 M12.71 59.28 C21.76 50.04, 31.73 38.14, 55.41 9.14 M11.82 60.09 C24.98 43.97, 38.33 28.43, 55.78 8.85 M14.19 61.01 C22.97 49.23, 34.8 39.78, 58.88 11.04 M15.24 60.72 C32.28 41.6, 49.78 22.34, 58.39 10.02 M18.82 63.45 C34.6 48.44, 48.38 30.61, 60.91 14.6 M18.25 62.95 C29.13 51.75, 39.67 38.3, 62.97 13.96 M22.61 63.79 C32.42 51.46, 44.84 38.8, 66.47 17.24 M22.75 64.7 C34.54 51.45, 45.92 39.6, 64.96 16.97 M26.34 68.16 C42.42 48.91, 56.63 31.65, 68.21 20.42 M27.09 67.17 C37.58 53.43, 47.87 41.11, 65.8 20.03 M31.42 69.75 C40.71 58.54, 46.01 50, 67.58 22.25 M29.02 68.73 C45.41 51.65, 59.48 35.07, 69.24 23.24 M34.4 67.89 C45.07 57.6, 55.58 44.92, 70.14 28.95 M35.5 67.85 C45.41 55.52, 54.95 45.02, 69.85 29.05 M42.96 67.25 C52.06 54.31, 60.78 46.19, 69.37 36.38 M41.78 66.14 C48.24 59.73, 52.51 52.5, 68.01 37.66 M47.03 67.67 C53.44 60.21, 54.72 57.42, 65.82 44.44 M47.77 65.93 C55.04 57.65, 61.24 51.39, 66.24 45.19" stroke="#82c91e" stroke-width="0.5" fill="none"></path><path d="M40.51 0.85 C47.03 1.6, 55.05 6, 59.84 10.48 C64.63 14.96, 68.49 21.24, 69.23 27.72 C69.97 34.2, 67.43 43.31, 64.29 49.36 C61.15 55.4, 56.27 61.01, 50.38 63.98 C44.48 66.94, 35.65 68.18, 28.93 67.13 C22.2 66.07, 14.82 62.44, 10.05 57.62 C5.28 52.8, 1.19 44.75, 0.3 38.2 C-0.6 31.65, 1.71 24.08, 4.69 18.33 C7.66 12.59, 11.47 6.73, 18.12 3.75 C24.78 0.77, 39.76 0.42, 44.6 0.46 C49.45 0.51, 47.46 3.22, 47.19 4.01 M21.65 2.99 C27.13 0.01, 35.17 -1.45, 41.48 -0.19 C47.78 1.06, 54.79 5.19, 59.5 10.51 C64.2 15.82, 69.19 25.25, 69.71 31.69 C70.23 38.14, 66.28 43.97, 62.64 49.2 C59 54.44, 53.87 60.5, 47.87 63.1 C41.88 65.71, 33.33 66.12, 26.67 64.85 C20 63.57, 12.46 60.43, 7.87 55.46 C3.28 50.5, -0.3 41.39, -0.86 35.07 C-1.42 28.75, 0.96 23.05, 4.53 17.54 C8.09 12.03, 17.6 4.33, 20.55 2 C23.49 -0.33, 21.78 3.16, 22.21 3.59" stroke="#000000" stroke-width="1" fill="none"></path></g><g stroke-linecap="round"><g transform="translate(1051.1111450195312 339.444376627604) rotate(0 114.72899853115274 -100.8230903374357)"><path d="M-0.54 -0.48 C37.98 -33.57, 191.69 -166.1, 230 -199.37 M1.37 -1.78 C39.93 -35.14, 191.73 -168.32, 229.63 -201.17" stroke="#000000" stroke-width="1" fill="none"></path></g></g><g stroke-linecap="round"><g transform="translate(1156.6667683919272 335) rotate(0 62.86630040972494 -91.50875632092351)"><path d="M0.24 -0.4 C20.9 -30.87, 103.66 -152.44, 124.61 -182.61 M-1.09 -1.66 C19.88 -31.98, 105.75 -151, 126.82 -181.28" stroke="#000000" stroke-width="1" fill="none"></path></g></g><g stroke-linecap="round"><g transform="translate(1253.3334350585938 331.6666666666665) rotate(0 17.246761042624712 -88.16856920992325)"><path d="M-0.93 0.41 C5.02 -28.93, 29.41 -147.19, 35.43 -176.75 M0.78 -0.42 C6.58 -29.5, 28.85 -146.03, 34.41 -175.26" stroke="#000000" stroke-width="1" fill="none"></path></g></g><g stroke-linecap="round"><g transform="translate(1281.1111450195312 127.22218831380201) rotate(0 -89.46632134161587 -35.85291353758578)"><path d="M-0.56 -1.03 C-30.44 -13.16, -149.81 -60.95, -179.94 -72.75 M1.34 1.05 C-28.54 -10.92, -149.68 -58.98, -180.27 -71.49" stroke="#000000" stroke-width="1" fill="none"></path></g></g><g stroke-linecap="round"><g transform="translate(1286.6667683919272 110.55552164713527) rotate(0 -33.420753783804116 -28.76566159598832)"><path d="M-0.38 -1.08 C-11.84 -10.54, -56.48 -47.44, -67.6 -56.86 M1.62 0.97 C-10.08 -8.8, -56.94 -48.97, -68.46 -58.51" stroke="#000000" stroke-width="1" fill="none"></path></g></g></svg>