<svg version="1.1" xmlns="http://www.w3.org/2000/svg" viewBox="0 0 450.7843051838378 504.9998982747368" width="450.7843051838378" height="504.9998982747368">
  <!-- svg-source:excalidraw -->
  
  <defs>
    <style>
      @font-face {
        font-family: "Virgil";
        src: url("https://excalidraw.com/Virgil.woff2");
      }
      @font-face {
        font-family: "Cascadia";
        src: url("https://excalidraw.com/Cascadia.woff2");
      }
    </style>
  </defs>
  <rect x="0" y="0" width="450.7843051838378" height="504.9998982747368" fill="#ffffff"></rect><g stroke-linecap="round" transform="translate(132.45087012524436 14.44447835286519) rotate(0 34.44442749023426 33.33333333333326)"><path d="M5.32 15.22 C5.32 15.22, 5.32 15.22, 5.32 15.22 M5.32 15.22 C5.32 15.22, 5.32 15.22, 5.32 15.22 M3.83 24.07 C9.53 17.15, 16.35 10.5, 21.65 3.63 M4.47 23.64 C11.35 16.11, 16.96 6.85, 22.31 1.02 M2.43 30.3 C12.36 21.67, 20.22 9.78, 26.51 0.69 M1.45 31.17 C8.6 22.71, 15.83 14.7, 27.75 2.4 M2.27 36.07 C15.42 23.73, 24.59 10.74, 32.27 1.25 M3.2 37.23 C12.95 25.54, 22.84 13.06, 32.39 2.53 M2.41 40.69 C17.52 29.07, 26.68 16.09, 38.41 0.76 M4.28 41.1 C16.38 27.55, 27.88 13.44, 38.56 2.27 M4.15 46.62 C20.47 28.94, 32.4 13.35, 45.59 1.54 M5.91 44.81 C16.59 33.73, 26.44 20.41, 44.79 1.22 M8.91 47.86 C18.15 35.36, 30.27 23.72, 48.15 2.05 M7.01 49.32 C22.48 31.7, 36.9 14.6, 47.62 2.81 M7.44 54.61 C22.5 39.67, 32.44 22.61, 50.6 5.8 M8.56 54.97 C19.56 41.84, 29.94 30.54, 51.18 5.07 M12.36 58.57 C24.28 44.91, 34.94 31.64, 56.22 7.22 M11.4 56.64 C21.06 45.48, 29.46 34.96, 55.01 8.27 M14.78 59.42 C27.94 43.24, 38.73 30.61, 56.3 8.82 M15.96 58.03 C28.42 43.72, 41.99 28.55, 56.49 9.87 M19.42 62.62 C30.27 46.8, 42.88 32.97, 59.26 13.24 M18.66 61.24 C29.47 48.34, 41.21 34.79, 61.14 12.48 M20.51 61.56 C34.63 51.56, 42.05 40.79, 63.98 16.99 M22.87 62.76 C35.73 48.03, 49.16 31.51, 63.13 15.27 M25.65 64.17 C39.66 51.64, 50.92 38.19, 64.19 18.68 M26.1 63.9 C36.41 53.49, 45.66 42.22, 64.91 20.15 M31.7 66.56 C42.77 53.37, 52.6 39.93, 65.78 24.76 M30.98 64.21 C38.35 56.91, 44.38 47.99, 65.61 25.24 M36.03 64.39 C43.75 58.25, 53.02 48.17, 68.66 29.35 M35.71 64.71 C46.53 53.05, 56.59 40.74, 68.2 28.55 M40.99 65.76 C50.15 54.77, 59.64 47.95, 71.28 31.62 M41.75 64.54 C52.46 52.04, 64.18 38.42, 71.1 31.12 M45.83 65.81 C54.28 59.09, 60.39 47.51, 67.96 41.46 M46.93 65.4 C51.43 60.15, 57.63 52.68, 68.74 40.57" stroke="#fa5252" stroke-width="0.5" fill="none"></path><path d="M21.47 1.61 C27.39 -1.06, 37.24 -0.89, 43.79 0.86 C50.33 2.6, 56.65 7.08, 60.74 12.08 C64.83 17.08, 67.86 24.39, 68.33 30.86 C68.79 37.34, 67.21 45.22, 63.54 50.96 C59.86 56.69, 52.64 62.93, 46.29 65.26 C39.95 67.59, 31.97 66.9, 25.47 64.94 C18.96 62.98, 11.35 58.46, 7.28 53.49 C3.21 48.52, 1.37 41.48, 1.04 35.1 C0.71 28.73, 0.68 21.06, 5.31 15.23 C9.94 9.4, 23.48 2.47, 28.83 0.09 C34.18 -2.28, 37.38 0.49, 37.42 0.97 M25.63 0.44 C32.08 -1.18, 43.12 -0.03, 49.4 2.54 C55.68 5.11, 60.24 10.26, 63.29 15.86 C66.34 21.46, 68.05 29.53, 67.68 36.16 C67.31 42.79, 65.51 50.49, 61.07 55.66 C56.64 60.83, 47.68 65.6, 41.07 67.17 C34.45 68.75, 27.31 67.77, 21.39 65.11 C15.47 62.45, 9.28 57.15, 5.53 51.21 C1.78 45.27, -1.82 36.1, -1.11 29.47 C-0.41 22.84, 4.92 16.43, 9.77 11.41 C14.62 6.38, 25.23 0.98, 27.97 -0.68 C30.71 -2.34, 26.05 0.54, 26.22 1.47" stroke="#000000" stroke-width="1" fill="none"></path></g><g stroke-linecap="round" transform="translate(250.7842034585775 10) rotate(0 34.44442749023426 33.33333333333326)"><path d="M11.19 8.4 C11.19 8.4, 11.19 8.4, 11.19 8.4 M11.19 8.4 C11.19 8.4, 11.19 8.4, 11.19 8.4 M2.06 26.61 C6.93 19.41, 11.06 15.94, 20.38 3.81 M1.39 27.11 C6.58 21.17, 11.15 15.42, 20.37 4.83 M0.77 31.87 C7.39 24.03, 11.36 17.74, 28.95 3.04 M1.16 32.24 C9.21 22.38, 16.11 14.33, 27.17 0.9 M2.95 36.55 C11.19 26.99, 21.93 15.52, 31.51 0.61 M2.37 38.18 C10.68 26.81, 19.95 16.48, 32.45 1.79 M2.7 43.37 C10.47 32.56, 20.54 20.91, 38.45 2.44 M1.46 42.35 C12.63 32.9, 20.26 23, 38.95 1.95 M5.48 46.8 C17.27 33.54, 29.73 17.04, 43.36 0.86 M3.9 46.86 C16.9 33.64, 28.49 20.07, 42.53 1.85 M6.95 48.72 C18.36 38.31, 28.05 25.92, 47.82 3.47 M6.8 51.25 C19.43 36.5, 31.26 21.83, 46.8 3.94 M9.75 51.24 C18.73 43.59, 24.97 32.45, 50.15 6.51 M9.49 52.61 C20.07 42.09, 31.3 29.46, 51.72 5.28 M11.6 54.91 C26.32 39.25, 39.6 22.51, 55.59 6.72 M11.51 56.87 C24.3 41.99, 37.37 29.01, 55.52 6.6 M15.42 57.97 C31.07 39.4, 48.83 18.68, 59.68 7.73 M14.46 59.34 C28.92 43.57, 42.53 25.64, 58 9.81 M18.17 62.36 C27.17 51.84, 39.56 36.91, 61.79 12.69 M16.69 61.81 C34.74 43.51, 50.95 22.94, 59.73 11.86 M19.57 61.97 C30.19 54.34, 37.85 44.47, 63.86 15.37 M21.83 64.07 C34.89 47.71, 49.91 31.32, 62.74 17.04 M27.63 64.4 C35.64 55.52, 45.9 43.39, 63.22 17.56 M26.13 64.79 C40.44 49.28, 53.69 33.98, 65.07 19.53 M31.42 67.2 C44.5 50.45, 55.15 36.16, 67.38 24.2 M31.05 64.99 C37.09 57.38, 45.14 49.68, 67.4 23.73 M33.16 68.09 C41.95 59.25, 50.55 49.01, 66.84 28.73 M35.15 67.46 C40.72 58.62, 49.31 50.52, 67.65 26.83 M37.73 69.54 C49.11 56.29, 58.32 46.37, 68.5 33.22 M37.4 68.47 C51.3 54.53, 62.69 41.4, 68.25 34.09 M45.33 67.13 C53.59 59.27, 58.81 51.66, 67.81 38.52 M45.7 65.37 C50.89 60.74, 56.08 54.1, 70.03 38.16" stroke="#fa5252" stroke-width="0.5" fill="none"></path><path d="M32.36 -0.28 C38.76 -1.41, 46.88 0.46, 52.53 4.12 C58.19 7.78, 63.64 15.5, 66.31 21.66 C68.98 27.82, 70.04 34.87, 68.56 41.07 C67.07 47.27, 62.72 54.52, 57.37 58.86 C52.03 63.21, 43.42 66.79, 36.48 67.13 C29.54 67.47, 21.4 64.41, 15.74 60.91 C10.09 57.41, 5.02 52.01, 2.53 46.14 C0.05 40.27, -0.66 32.07, 0.84 25.72 C2.34 19.37, 5.23 12.17, 11.51 8.04 C17.79 3.9, 32.97 1.88, 38.52 0.92 C44.07 -0.03, 44.92 2.02, 44.82 2.3 M48.53 1.92 C54.59 4.18, 62.12 10.85, 65.43 16.91 C68.73 22.97, 69.21 31.83, 68.35 38.27 C67.48 44.7, 64.7 50.77, 60.22 55.52 C55.73 60.26, 47.84 65.39, 41.44 66.74 C35.04 68.09, 28.04 66.21, 21.83 63.61 C15.61 61.02, 7.75 56.81, 4.15 51.18 C0.55 45.54, -0.55 36.42, 0.25 29.81 C1.05 23.2, 4.22 16.61, 8.96 11.52 C13.69 6.43, 22.19 0.77, 28.66 -0.74 C35.13 -2.25, 44.63 1.56, 47.79 2.47 C50.94 3.38, 47.66 4.27, 47.59 4.71" stroke="#000000" stroke-width="1" fill="none"></path></g><g stroke-linecap="round" transform="translate(16.89545020336891 175.5555216471355) rotate(0 34.44442749023426 33.33333333333326)"><path d="M10.77 9.36 C10.77 9.36, 10.77 9.36, 10.77 9.36 M10.77 9.36 C10.77 9.36, 10.77 9.36, 10.77 9.36 M1.64 24.31 C7.28 18.39, 10.32 14.51, 18.8 5.98 M3.15 24.92 C9.19 17, 14.5 10.91, 20.38 5.58 M4.54 28.81 C13.29 17.41, 22.28 8.95, 27.14 -0.75 M4.6 28.08 C12.19 20.25, 20.35 10.72, 27.62 0.67 M4.85 33.79 C12.15 28.39, 18.15 20.84, 34.8 0.48 M5.26 34.61 C15.17 22.67, 25.06 10.23, 32.75 2.67 M5.84 41.47 C15.61 28.8, 22.44 17.1, 35.41 4.84 M4.77 41.12 C15.16 28.12, 26.58 15.5, 36.62 4.08 M4.31 48.34 C16.01 32.37, 29.9 15.7, 41.94 6.18 M3.81 47.52 C15.69 33.38, 29.1 19.54, 41.23 3.79 M8.51 51.49 C20.44 37.4, 32.26 23.02, 45.42 3.59 M5.84 50.51 C17.53 37.68, 30.06 23.98, 46.28 4.82 M8.59 55.08 C22.54 41.25, 31.8 29.07, 49.04 5.32 M9.35 53.27 C22.64 38.79, 36.21 22.6, 51.11 7.43 M13.81 56.9 C21.83 43.13, 35.9 28.9, 54.31 8.63 M12.91 57.14 C26.8 40.3, 42.12 23.23, 54.63 8.12 M16.7 58.45 C26.46 45.15, 35.62 31.97, 57.83 9.16 M15.14 59 C24.39 49.77, 32.62 39.59, 57.92 10.27 M18.59 62.18 C33.54 46.21, 48.3 28.12, 61.4 12.3 M18.01 63.58 C34.44 42.08, 50.5 23.99, 60.14 12.63 M22.31 63.75 C37.57 47.53, 49.52 32.75, 61.51 14.35 M21.39 62.97 C36.71 46.27, 52.26 27.94, 63.89 15.66 M25.74 65.75 C43.9 46.68, 59.73 27.17, 67.43 17.84 M26.44 65.52 C34.95 53.24, 45.16 42.45, 67.01 18.11 M30.57 65.99 C45.25 49.26, 55.07 36.59, 64.74 22.99 M30.09 65.32 C41.33 54.23, 50.39 43.7, 66.03 25.58 M34.39 67.7 C43.68 56.86, 51.21 48.76, 68.67 30.72 M35.05 67.58 C42.49 56.87, 50.35 47.48, 67.24 28.79 M41.5 66.61 C46.66 61.4, 51.34 52.56, 67.66 34.63 M40.35 66.89 C47.29 59.18, 54.62 50, 68.1 34.68 M47.01 64.56 C56.26 54.96, 62.95 47.16, 69.45 40.3 M49.31 64.02 C56.11 55.41, 62.28 47.58, 69.16 40.98" stroke="#82c91e" stroke-width="0.5" fill="none"></path><path d="M30.29 0.1 C36.52 -0.95, 45.89 1.98, 51.78 5.14 C57.66 8.29, 62.71 13.23, 65.58 19.02 C68.45 24.8, 70.3 33.36, 69 39.84 C67.71 46.31, 62.84 53.28, 57.81 57.87 C52.79 62.46, 45.71 66.68, 38.85 67.37 C31.99 68.06, 22.66 65.42, 16.67 62.02 C10.68 58.61, 5.45 52.78, 2.92 46.96 C0.39 41.14, 0.21 33.32, 1.48 27.1 C2.75 20.87, 4.64 14.18, 10.53 9.63 C16.42 5.07, 31.41 1.18, 36.8 -0.23 C42.2 -1.63, 42.9 0.72, 42.89 1.2 M24.56 1.4 C30.6 -0.62, 39.44 0.45, 45.76 2.64 C52.08 4.84, 58.49 9.25, 62.5 14.57 C66.5 19.89, 70.17 28.27, 69.78 34.57 C69.4 40.88, 64.49 47.28, 60.18 52.43 C55.86 57.57, 50.27 63.58, 43.89 65.46 C37.52 67.34, 28.29 65.81, 21.94 63.69 C15.58 61.57, 9.35 57.84, 5.76 52.74 C2.17 47.64, 0.32 39.63, 0.39 33.07 C0.46 26.51, 2.04 18.55, 6.17 13.37 C10.29 8.2, 22.13 4, 25.13 1.99 C28.14 -0.02, 24.18 0.73, 24.21 1.31" stroke="#000000" stroke-width="1" fill="none"></path></g><g stroke-linecap="round" transform="translate(134.6733636148275 174.9998982747395) rotate(0 34.44442749023426 33.33333333333326)"><path d="M7.3 14.29 C7.3 14.29, 7.3 14.29, 7.3 14.29 M7.3 14.29 C7.3 14.29, 7.3 14.29, 7.3 14.29 M2.43 27.79 C5.79 21.6, 10.56 15.47, 20.96 4.46 M2.72 27.09 C9.13 19.55, 15.07 10.54, 20.21 3.91 M2.7 33.17 C12.5 20.79, 21.49 10.93, 27.14 2.38 M1.39 34.26 C10.87 21.96, 20.59 10.77, 26.13 3.86 M3.57 38.53 C12.8 24.16, 24.37 13.41, 31.2 3.3 M2.4 38.98 C10.03 30.62, 17.18 22.16, 32.36 3.79 M4.63 40.67 C10.68 32.56, 18.62 26.58, 37.51 4.35 M4.55 41.65 C13.04 33.93, 20.51 23.89, 38.67 3.05 M5 45.79 C14.29 34.88, 24.85 24.88, 43.23 5.71 M6.52 47.21 C20.24 29.23, 34.2 14.3, 42.23 3.87 M5.56 53.84 C21.4 34.7, 36.56 18.48, 50.3 3.68 M6.87 52.79 C20.43 35.82, 34.54 18.42, 47.46 3.73 M9.59 54.88 C19.2 43.64, 31.2 30.84, 52.39 6.85 M8.54 55.18 C21.25 41.07, 33.84 26.93, 50.77 6.63 M13.12 58.51 C24.8 44.32, 32.48 29.51, 55.47 7.89 M12.99 57.49 C23.38 45.29, 34.58 31.43, 54.96 8.13 M16.9 58.49 C22.36 49.53, 32.5 40.71, 56.11 12.52 M15.95 58.92 C25.76 49.04, 35.04 37.84, 57.34 11.45 M19.23 62.54 C30.7 49.13, 38.21 38.82, 59.6 15.34 M18.13 61.79 C27.72 51.96, 35.91 39.79, 61.59 12.53 M22.09 63.81 C29.85 55.53, 40.21 42.77, 65.98 15.22 M23.08 64.16 C39.41 45.93, 55.17 26.72, 63.71 16.59 M26.59 67.68 C40.81 49.67, 53.28 32.2, 64.25 19.67 M24.54 67.84 C34.3 56.36, 44.81 44.6, 65.98 19.7 M30.38 67.93 C40.81 53.92, 53.96 40.47, 66.43 24.18 M31.61 65.74 C43.08 53.32, 54.24 39.52, 66.82 25.28 M37.26 68.35 C47.14 56.66, 56.1 43.6, 68.38 29.65 M36.17 66.69 C49.09 53.03, 60.98 36.79, 69.46 28.77 M41.82 66.63 C45.43 59.97, 54.8 55.08, 68.63 33.99 M41.33 66.45 C49.71 56.89, 57.92 47.41, 70.58 34.34 M48.29 66.46 C53.36 59.93, 57.29 54.18, 72.42 37.25 M46.17 67.08 C52.06 59.9, 58.43 52.57, 72.11 37.28" stroke="#82c91e" stroke-width="0.5" fill="none"></path><path d="M25.05 1.75 C31.28 -0.31, 40.31 0.34, 46.69 2.5 C53.06 4.67, 59.55 9.36, 63.3 14.75 C67.05 20.15, 69.45 28.56, 69.19 34.87 C68.94 41.17, 65.86 47.62, 61.77 52.6 C57.68 57.58, 51.14 62.71, 44.65 64.76 C38.16 66.81, 29.22 67.05, 22.84 64.89 C16.45 62.72, 10.26 57.22, 6.34 51.77 C2.41 46.32, -0.93 38.5, -0.73 32.2 C-0.52 25.9, 2.4 19.24, 7.57 13.98 C12.75 8.72, 25.32 2.9, 30.32 0.63 C35.32 -1.63, 37.4 -0.14, 37.57 0.41 M25.12 0.02 C31.31 -2.08, 40.87 -1.02, 47.38 1.7 C53.89 4.42, 60.69 10.79, 64.16 16.34 C67.62 21.89, 68.58 28.57, 68.17 34.98 C67.76 41.39, 65.8 49.92, 61.71 54.8 C57.61 59.67, 50.34 62.68, 43.6 64.24 C36.86 65.81, 27.47 66.27, 21.27 64.18 C15.06 62.09, 9.76 57.02, 6.35 51.72 C2.94 46.41, 0.58 38.91, 0.81 32.32 C1.04 25.73, 3.56 17.31, 7.74 12.18 C11.91 7.05, 23.01 3.15, 25.85 1.55 C28.68 -0.05, 24.66 2.32, 24.75 2.59" stroke="#000000" stroke-width="1" fill="none"></path></g><g stroke-linecap="round" transform="translate(253.56211687003577 173.88875325520826) rotate(0 34.44442749023426 33.33333333333326)"><path d="M15.61 5.62 C15.61 5.62, 15.61 5.62, 15.61 5.62 M15.61 5.62 C15.61 5.62, 15.61 5.62, 15.61 5.62 M5.76 25.46 C11.37 18.56, 15.86 11.27, 22.13 4.04 M5.04 23.12 C8.88 20.08, 11.34 15.27, 21.96 4.52 M4.85 29.33 C10.7 25.26, 18.13 17.3, 30.26 2.6 M4.52 29.66 C12.97 20.63, 20.68 11.03, 29.8 1.79 M3.9 37.49 C14 25.43, 24.43 17.53, 37.48 -0.42 M4.66 36.27 C16.69 22.31, 29.69 7.21, 37.29 -0.92 M2.84 44.34 C16.04 31.86, 27.05 14.63, 40.06 2.63 M3.94 43.93 C12.23 34.27, 22.2 22.47, 40.84 1.74 M4.95 45.9 C22.07 31.33, 35.51 12.03, 43.14 1.09 M4.84 46.56 C13.89 38.52, 21.48 29.26, 45.02 2.5 M8.91 51.57 C20.27 35.98, 35.4 20.34, 48.11 6.56 M9.06 50.59 C17.81 40.67, 27.77 29.05, 47.2 3.78 M11.23 54.15 C26.45 38.18, 39.76 22.75, 51.71 6.65 M11.16 54.82 C25.93 37.42, 39.3 21.02, 51.77 7.28 M14.76 55.72 C20.83 47.56, 30.59 39.45, 55.97 9.41 M12.22 58.08 C22.32 47.01, 32.53 35.09, 55.31 8.21 M16.66 61.8 C22.62 50.18, 34.36 40.26, 57.4 8.46 M15.03 61.25 C30.95 43.41, 45.51 27, 58.96 10.26 M17.49 61.95 C37.73 42.85, 53.05 25.18, 60.15 15.06 M18.38 63.63 C30.36 50.22, 41.04 37.13, 60.78 13.47 M21.9 63.68 C31.09 55.73, 40.32 43.78, 65.29 15.3 M22.85 64.64 C36.02 49.85, 48.32 34.73, 64.14 17.19 M28.38 64.28 C40.1 51, 50.36 40.87, 65.95 20.91 M27.89 65.54 C39.55 52.64, 50.77 39.71, 66.2 20.78 M33.23 64.99 C42.53 53.92, 53.87 43.55, 67.27 23.47 M30.83 67.36 C45.82 50.96, 58.94 34.61, 68.87 25.58 M35.67 67.56 C42.92 59.24, 50.77 50.32, 66.24 32.45 M35.28 69.29 C48.65 54.03, 61.54 38.98, 67.98 30.77 M43.05 66.92 C49.82 57.8, 58.21 47.74, 68.17 36.13 M41.5 67.14 C51.04 57.88, 58.92 48.36, 68.86 36.11 M50.22 63.1 C57.39 55.85, 60.48 47.74, 66.69 44.71 M48.94 65.08 C56.19 57.1, 62.17 50.51, 67.54 42.86" stroke="#82c91e" stroke-width="0.5" fill="none"></path><path d="M36.09 -0.41 C42.67 -0.39, 51.11 3.71, 56.29 7.79 C61.48 11.88, 65.39 17.87, 67.21 24.1 C69.03 30.32, 69.44 39.11, 67.22 45.13 C65 51.15, 59.64 56.64, 53.88 60.21 C48.12 63.78, 39.34 66.62, 32.64 66.55 C25.94 66.49, 18.83 63.73, 13.68 59.8 C8.53 55.87, 3.68 49.34, 1.74 43 C-0.2 36.65, -0.23 27.93, 2.04 21.74 C4.32 15.56, 9.39 9.36, 15.38 5.88 C21.36 2.4, 33.62 1.75, 37.94 0.88 C42.26 0.01, 41.37 0.18, 41.3 0.67 M35.88 0.25 C42.56 0.34, 51.68 4.7, 56.9 8.67 C62.12 12.65, 65.71 18.05, 67.18 24.09 C68.65 30.12, 68.36 38.38, 65.73 44.9 C63.09 51.42, 57.03 59.69, 51.37 63.2 C45.72 66.71, 38.23 66.57, 31.8 65.96 C25.38 65.36, 17.85 63.61, 12.81 59.56 C7.77 55.5, 3.03 48.36, 1.56 41.65 C0.1 34.95, 1.35 25.48, 4.02 19.31 C6.69 13.14, 11.99 7.68, 17.59 4.61 C23.2 1.54, 34.4 1.59, 37.66 0.9 C40.91 0.2, 37.19 0.26, 37.15 0.46" stroke="#000000" stroke-width="1" fill="none"></path></g><g stroke-linecap="round" transform="translate(371.89545020336925 172.77770996093773) rotate(0 34.44442749023426 33.33333333333326)"><path d="M9.32 10.75 C9.32 10.75, 9.32 10.75, 9.32 10.75 M9.32 10.75 C9.32 10.75, 9.32 10.75, 9.32 10.75 M2.37 24.32 C7.74 19.09, 11.16 16.41, 19.42 5.85 M2.86 24.8 C8.85 18.34, 13.8 11.43, 19.22 6 M3.85 31.05 C7.56 20.51, 17.87 13.03, 27.81 1.63 M2.17 32.08 C9.84 22, 18.29 12.23, 27.48 1.56 M1.45 36.41 C13.79 24.99, 22.68 13.09, 31.45 3.92 M3.65 36.81 C9.38 29.78, 14.87 22.58, 32.24 1.38 M5.36 40.33 C14.42 28.08, 26.43 15.52, 36.09 3.81 M4.27 41.71 C15.31 26.66, 28.17 13.57, 36.99 2.19 M3.8 47.73 C17.38 31.35, 32.09 16.49, 44.73 1.33 M5.62 46.42 C13.92 35.39, 23.83 24.25, 43.39 2.22 M7.14 50.64 C20.13 32.04, 35.62 14.25, 45.7 2.52 M5.95 50.76 C19.14 35.87, 30.32 22.86, 47.23 3.48 M8.05 53.88 C25.66 35.13, 40.34 16.21, 52.03 5.79 M10.02 53.6 C19.93 41.11, 31.05 28.5, 51.58 5.3 M13.66 57.67 C26.73 39.18, 41.41 22.16, 56.36 9.59 M13.2 56.64 C20.52 45.52, 30.32 35.86, 53.49 7.19 M13.65 58.71 C31.74 43.64, 43.47 25, 57.63 10.97 M15.22 58.73 C24.85 47.68, 36.58 35.71, 56.52 10.59 M20.34 60.36 C33.38 43.69, 48.05 27.04, 59.25 14.03 M18.24 61.19 C31.37 46.14, 44.17 31.65, 60.74 12.48 M22.89 64.47 C36.31 46.62, 49.44 32.13, 64.57 16.21 M20.71 62.86 C30.83 52.97, 42.01 40.06, 63.97 14.93 M26.66 65.8 C40.74 46.35, 57.98 27.36, 67 16.26 M26.66 65.66 C40.32 49.24, 52.4 33.68, 65.72 18.16 M32.12 63.59 C45.83 47.94, 58.52 31.02, 65.47 25.06 M30.32 65.41 C44.58 49.98, 58.81 33.73, 66.53 24.62 M34.9 67.27 C48.05 52.51, 60.37 38.95, 67.14 27.71 M36.09 64.67 C49.22 50.16, 61.57 36.61, 68.37 28.24 M41.26 66.72 C46.35 57.91, 53.97 47.66, 67.66 34.73 M41.72 64.24 C51.23 53, 62.33 42.52, 68.82 32.82 M51.49 58.72 C56.03 55.25, 64.64 45.21, 69.87 36.66 M51.61 60.76 C57.64 52.98, 63.74 46.88, 69.54 37.81" stroke="#82c91e" stroke-width="0.5" fill="none"></path><path d="M27.4 0.42 C33.87 -1.15, 43.75 0.66, 50.07 3.53 C56.38 6.4, 62.1 11.93, 65.26 17.63 C68.42 23.34, 70.01 31.5, 69.01 37.76 C68.02 44.02, 64 50.61, 59.3 55.19 C54.61 59.77, 47.41 63.98, 40.85 65.24 C34.29 66.5, 26.1 65.57, 19.96 62.76 C13.82 59.96, 7.25 54.03, 4.02 48.43 C0.78 42.82, -0.31 35.41, 0.55 29.15 C1.42 22.89, 4.16 15.75, 9.21 10.87 C14.26 6, 26.5 1.56, 30.86 -0.09 C35.23 -1.75, 35.32 0.21, 35.4 0.94 M50.53 2.26 C56.24 4.63, 60.82 12.05, 63.68 17.8 C66.55 23.56, 68.45 30.43, 67.7 36.79 C66.95 43.15, 63.84 50.9, 59.17 55.99 C54.49 61.07, 46.42 66, 39.65 67.31 C32.87 68.62, 24.21 66.64, 18.52 63.86 C12.83 61.08, 8.63 56.36, 5.52 50.61 C2.41 44.86, -0.92 35.81, -0.15 29.36 C0.62 22.9, 5.43 16.89, 10.14 11.89 C14.85 6.89, 21.62 0.7, 28.11 -0.64 C34.6 -1.99, 45.74 3.12, 49.07 3.82 C52.4 4.52, 48.2 3.04, 48.09 3.57" stroke="#000000" stroke-width="1" fill="none"></path></g><g stroke-linecap="round" transform="translate(93.0065697915852 336.66651407877566) rotate(0 34.44442749023426 33.33333333333326)"><path d="M8.21 12.44 C8.21 12.44, 8.21 12.44, 8.21 12.44 M8.21 12.44 C8.21 12.44, 8.21 12.44, 8.21 12.44 M2.56 25.43 C9.23 17.32, 18.2 10.92, 19.15 4.5 M2.35 24.29 C8.58 18.42, 11.88 12.47, 21.53 3.93 M2.93 34.66 C8.67 23.21, 18.09 14.5, 26.81 1.65 M0.39 33.49 C10.11 23.87, 16.17 14.77, 28.54 2.77 M2.72 37.14 C10.93 27.66, 17.91 19.06, 33.07 1.7 M2.21 37.39 C12.35 26.05, 22.45 14.36, 33.28 3.16 M4.73 41.41 C15.94 28.69, 28.2 15.35, 36.89 4.16 M2.65 43.37 C12.61 32.54, 21.47 22.25, 38.87 3.1 M3.67 47.02 C16.64 32.57, 27.84 18.66, 43.7 3.66 M5.26 47.56 C15.26 33.67, 26.99 19.75, 43.95 2.19 M5.04 52.12 C14.48 38.92, 25.67 28.57, 49.48 3.6 M4.92 53.67 C21.91 34.48, 36.6 17.01, 48.64 2.45 M8.46 55.38 C21.52 40.88, 32.33 25.39, 53.56 5.53 M9.08 54.04 C20.03 42.35, 31.53 28.62, 51.1 4.85 M9.38 58.15 C24.69 38.79, 38.85 25.35, 56.06 9.25 M11.16 57.04 C23.98 44.87, 35.08 29.64, 54.79 8.64 M14.26 61.25 C29.19 44.13, 39.49 29.55, 58.01 10.93 M15.66 59 C26.62 46.81, 36.5 33.03, 58.42 10.65 M19.55 61.14 C33.98 46.51, 46.51 28.99, 59.49 11.01 M18.88 61.63 C33.64 45.2, 47.85 29.13, 61.9 12.34 M19.75 63.56 C40.09 46.12, 55.14 24.32, 63.8 16.35 M20.81 64.77 C30.76 52.8, 38.45 44.55, 64.3 15.19 M22.84 65.88 C32.24 58.61, 42.02 48.7, 65.52 17.8 M24.36 65.98 C36.33 53.78, 44.93 43.33, 65.74 19.42 M28.39 64.96 C38.66 57.51, 47.04 46.91, 67.97 26.33 M29.35 67.57 C40.11 55.93, 47.63 45.68, 66.66 25.33 M36.51 67.07 C44.83 55.56, 55.79 45.07, 68.01 30.94 M35.15 67.72 C44.24 57.65, 52 46.7, 68.45 30.37 M39.78 69 C49.98 54.73, 61.04 41.42, 68.21 36.24 M40.55 66.76 C51.76 54.05, 62.74 41.1, 69.4 33.98 M44.14 67.39 C55.94 56.96, 65.08 45.77, 72.24 36.89 M44.38 67.72 C55.52 56.12, 66.05 44.03, 71.9 37.09" stroke="#15aabf" stroke-width="0.5" fill="none"></path><path d="M46.66 2.06 C52.9 3.83, 60.49 8.53, 64.03 14.07 C67.57 19.62, 68.48 28.77, 67.9 35.31 C67.32 41.85, 64.62 48.22, 60.54 53.3 C56.46 58.38, 49.8 63.95, 43.43 65.79 C37.06 67.62, 28.75 66.49, 22.33 64.3 C15.91 62.12, 8.66 58.11, 4.91 52.69 C1.16 47.26, -0.77 38.5, -0.18 31.74 C0.41 24.99, 4.03 17.38, 8.44 12.17 C12.84 6.97, 19.69 1.91, 26.25 0.5 C32.81 -0.91, 43.92 3.08, 47.78 3.72 C51.64 4.36, 49.44 4.11, 49.39 4.34 M46.52 1.02 C53.05 2.63, 60.04 9.68, 63.86 15.24 C67.68 20.8, 69.77 28.22, 69.46 34.38 C69.15 40.54, 66.21 47.26, 61.99 52.2 C57.77 57.14, 50.67 62.07, 44.16 64 C37.65 65.94, 29.43 65.76, 22.95 63.81 C16.47 61.86, 9.24 57.26, 5.27 52.33 C1.29 47.39, -1.06 40.67, -0.91 34.2 C-0.76 27.73, 1.79 19.18, 6.17 13.5 C10.54 7.82, 18.74 2.16, 25.35 0.1 C31.96 -1.95, 42.45 0.86, 45.82 1.15 C49.19 1.44, 45.6 1.28, 45.56 1.86" stroke="#000000" stroke-width="1" fill="none"></path></g><g stroke-linecap="round" transform="translate(206.33985226228856 337.2220357259109) rotate(0 34.44442749023426 33.33333333333326)"><path d="M4.55 17.21 C4.55 17.21, 4.55 17.21, 4.55 17.21 M4.55 17.21 C4.55 17.21, 4.55 17.21, 4.55 17.21 M2.88 25.67 C9.47 19.92, 17.81 8.23, 22.11 3.6 M1.74 26.75 C8.87 16.81, 15.93 10.1, 21.55 4.06 M2.63 32.77 C6.14 27.42, 12.39 19.78, 26.81 3.51 M1.46 34.72 C8.17 24.76, 15.41 17.99, 27.93 3.4 M1.28 39.09 C13.85 23.44, 27.29 10.85, 32.15 3.66 M1.53 38.78 C10.08 29.2, 18.29 19.53, 33.6 3.67 M2.37 43.69 C16.1 29.16, 29.23 12.55, 39.23 2.58 M4.32 43.13 C11.04 34.88, 18.24 26.72, 38.16 3.56 M5.45 47.08 C17.08 32.12, 29.28 17.75, 44.01 3.33 M5.98 45.58 C19.99 28.67, 34 14.12, 42.54 2.79 M6.61 49.06 C20.85 32.3, 37.92 18.81, 47.27 6.44 M8.16 51.26 C17.15 38.61, 27.86 28.48, 46.12 4.87 M10.37 54.33 C20.3 40.96, 29.27 31.86, 51 6.19 M9.03 54.05 C23.79 38.56, 36.47 22.39, 50.32 7.23 M12.88 55.94 C22.19 42.14, 37.45 30.95, 55.77 8.32 M11.76 57.78 C27.09 41.28, 39.32 25.95, 55.16 8.67 M17.12 61.57 C28.02 43.88, 41.39 28.64, 58.5 9.86 M14.87 60.4 C30.61 41.46, 44.79 25.32, 58.22 11.1 M18.82 61.98 C33.11 45.87, 44.47 32.12, 60.39 13.26 M19.31 62.2 C33.26 46.07, 47.54 30.31, 61.72 13.4 M22.29 65.08 C35.3 50.92, 43.92 37.18, 65.47 14.04 M23.5 63.71 C35.05 47.59, 50.31 33.09, 64.31 14.91 M25.66 64.61 C40.05 52.54, 51.77 37.77, 63.74 19.13 M25.76 66.15 C34.44 54.21, 44.9 45.18, 65.35 19.6 M27.4 67.73 C45.43 50.15, 60.28 36.18, 69.09 23.26 M30.01 68.89 C40.18 54.51, 51.72 42.91, 68.08 24.25 M34.79 67.86 C48.74 52.56, 63.66 36.08, 71.16 27.07 M35.45 68.08 C47.22 53.44, 58.16 41.98, 70.6 28.39 M42 66.14 C48.49 56.94, 55.91 48.49, 73.29 33.54 M39.77 67.91 C50.28 55.59, 60.57 44.33, 71.02 32.51 M49.06 64.75 C57.95 54.96, 66.08 46.7, 68.33 42.09 M49.39 63.75 C53.91 59.17, 57.92 54.1, 68.52 40.01" stroke="#15aabf" stroke-width="0.5" fill="none"></path><path d="M41.78 1.62 C48.15 2.34, 54.74 5.64, 59.31 10.25 C63.88 14.85, 68.54 22.62, 69.21 29.24 C69.89 35.87, 66.79 44.24, 63.35 50.01 C59.9 55.78, 54.65 61.34, 48.56 63.86 C42.47 66.37, 33.29 66.53, 26.81 65.1 C20.33 63.66, 14.13 59.85, 9.67 55.25 C5.22 50.65, 0.95 43.82, 0.06 37.51 C-0.82 31.21, 1.04 23.3, 4.35 17.44 C7.67 11.58, 12.86 4.97, 19.95 2.36 C27.04 -0.25, 41.92 1.37, 46.9 1.78 C51.88 2.18, 50.28 4.14, 49.82 4.8 M26.65 1.93 C32.87 0.17, 43.3 1.04, 49.67 3.52 C56.04 6, 61.9 11.29, 64.88 16.79 C67.86 22.3, 68.56 30.12, 67.54 36.55 C66.52 42.99, 63.27 50.67, 58.75 55.41 C54.23 60.14, 46.83 63.74, 40.39 64.97 C33.96 66.2, 25.86 65.45, 20.12 62.81 C14.37 60.17, 9.22 54.48, 5.93 49.14 C2.64 43.79, 0.11 37.07, 0.38 30.74 C0.66 24.41, 3.18 16.11, 7.58 11.14 C11.98 6.16, 23.55 2.33, 26.79 0.88 C30.03 -0.57, 26.84 1.74, 27.01 2.43" stroke="#000000" stroke-width="1" fill="none"></path></g><g stroke-linecap="round" transform="translate(307.4509972818198 338.8887023925779) rotate(0 34.44442749023426 33.33333333333326)"><path d="M2.99 19.83 C2.99 19.83, 2.99 19.83, 2.99 19.83 M2.99 19.83 C2.99 19.83, 2.99 19.83, 2.99 19.83 M2.53 26.73 C11.79 19.96, 15.12 10.5, 20.72 6.54 M3.61 25.85 C8.71 18.02, 17.03 10.7, 21.17 4.17 M0.81 33.34 C9.43 25.02, 15.79 15.19, 26.67 4.17 M2.75 33.69 C9.08 24.36, 18.57 15.71, 26.55 5.62 M2.63 38.85 C8.91 31.04, 18.25 20.11, 33.51 3.02 M2.32 38.89 C11.85 27.93, 21.28 18.43, 33.52 4.23 M4.81 43.33 C16.55 30.44, 26.27 17.63, 38.37 0.77 M4.25 42.87 C12.03 33.79, 19.87 26.32, 39.35 2.8 M7.18 45.23 C19.8 29.91, 32.99 17.61, 43.84 5.11 M5.68 46.8 C19.17 30.32, 35.07 13.27, 43.31 4.15 M6.73 49.25 C15.01 42.33, 26.55 31.47, 48.76 4.33 M8.93 50.58 C19.95 36.97, 33.5 20.9, 47.19 4.92 M10.99 54.48 C25.32 34.83, 43.92 17.9, 50.97 7.01 M10.7 54.22 C18.94 44.21, 26.55 34.46, 52.01 6.39 M11.58 55.54 C27.84 40.1, 46.64 21.93, 54.91 8.86 M13.42 58.13 C21.29 46.98, 30.3 38.56, 55.26 8.59 M18.26 57.89 C25.84 46.28, 35.84 37.66, 58.25 11.34 M17.1 59.67 C30.37 41.84, 46.47 25.63, 59.49 10.03 M20.47 63.06 C27.87 51.25, 37.65 37.34, 62.15 14.09 M20.7 61.49 C31.56 49.04, 42.81 35.48, 62.28 13.36 M25.38 63.94 C32.97 51.33, 40.93 44.64, 61.26 18.2 M24.01 62.07 C34.9 50.29, 47.37 36.21, 62.12 17.84 M26.72 66.17 C37.89 55.26, 46.33 41.89, 64.57 19.68 M28.26 64.3 C40.18 50.44, 54.99 33.6, 65.04 21.96 M30.23 68.8 C38.6 58.92, 50.54 48.47, 66.93 24.3 M31.39 67.27 C40.48 55.16, 52.32 43.18, 67.92 25.46 M37.05 66.1 C45.26 58.44, 52.3 50.05, 69.07 29.23 M37.27 67.33 C47.1 53.67, 60.11 41.04, 70.38 28.22 M41.38 65.78 C48.51 56.81, 56.38 51.07, 70.49 36.38 M43.15 65.46 C50.4 56.75, 58.72 47.59, 69.46 36.74 M49.7 65.79 C54.35 59.89, 60.54 51.88, 69.46 41.56 M48.7 65.27 C56.33 56.68, 63.46 48.34, 67.38 42.46" stroke="#15aabf" stroke-width="0.5" fill="none"></path><path d="M18.92 3.11 C24.16 -0.14, 31.66 -0.1, 38.06 0.78 C44.47 1.66, 52.36 3.92, 57.37 8.4 C62.39 12.88, 66.79 21.14, 68.14 27.65 C69.49 34.17, 68.5 41.51, 65.48 47.51 C62.46 53.51, 55.99 60.52, 50.02 63.65 C44.05 66.77, 36.06 67.36, 29.66 66.27 C23.25 65.17, 16.29 61.68, 11.61 57.08 C6.92 52.47, 2.98 44.83, 1.54 38.63 C0.1 32.43, -0.91 26.05, 2.96 19.86 C6.84 13.68, 19.79 4.84, 24.78 1.54 C29.77 -1.77, 32.61 -0.38, 32.9 0.04 M45.9 2.58 C52.1 4.21, 58.79 9.06, 62.62 13.92 C66.45 18.79, 68.96 25.51, 68.88 31.76 C68.81 38, 66.11 46.04, 62.16 51.39 C58.2 56.73, 51.66 61.57, 45.17 63.84 C38.68 66.11, 29.77 66.52, 23.23 64.99 C16.69 63.46, 9.92 59.84, 5.93 54.67 C1.93 49.49, -0.97 40.94, -0.73 33.95 C-0.49 26.96, 3.3 18.19, 7.36 12.72 C11.41 7.25, 17.35 3.09, 23.6 1.12 C29.84 -0.84, 41.19 0.82, 44.84 0.94 C48.5 1.05, 45.56 1.37, 45.54 1.82" stroke="#000000" stroke-width="1" fill="none"></path></g><g stroke-linecap="round"><g transform="translate(64.67321102693677 239.99989827473928) rotate(0 22.770146731908085 47.332715559750795)"><path d="M-0.19 0.43 C9.1 20.67, 23 45.18, 44.15 94.23 M-0.39 0.55 C10.34 20.62, 19.11 40.83, 45.93 93.9" stroke="#000000" stroke-width="1" fill="none"></path></g></g><g stroke-linecap="round"><g transform="translate(71.33987769360351 238.88885498046875) rotate(0 71.93831943037605 53.52172570706648)"><path d="M0.62 1.27 C46.67 34.41, 94.01 68.39, 143.49 106.22 M-0.19 0.82 C38.94 30.13, 76.9 58.43, 144.07 103.52" stroke="#000000" stroke-width="1" fill="none"></path></g></g><g stroke-linecap="round"><g transform="translate(74.67321102693677 232.22218831380178) rotate(0 120.8281306423359 58.286793722691755)"><path d="M1 -1.01 C56.41 28.76, 112.59 54.28, 240.95 117.59 M-0.2 -0.7 C63.68 29.04, 126.87 59.68, 241.86 117.27" stroke="#000000" stroke-width="1" fill="none"></path></g></g><g stroke-linecap="round"><g transform="translate(122.45112443839503 336.66656494140625) rotate(0 20.39042238611728 -48.72291253879666)"><path d="M1.77 0.72 C8.16 -22.56, 17.63 -45.44, 41.58 -98.16 M-0.8 0.54 C13.24 -36.55, 27.53 -71.87, 40.74 -97.88" stroke="#000000" stroke-width="1" fill="none"></path></g></g><g stroke-linecap="round"><g transform="translate(135.7844577717285 338.88885498046875) rotate(0 64.97669399343431 -51.78205461862194)"><path d="M-0.59 -1.82 C38.94 -31.44, 73.75 -64.05, 129.14 -103.6 M-0.66 0.99 C44.61 -38.89, 91.27 -75.42, 130.62 -104.56" stroke="#000000" stroke-width="1" fill="none"></path></g></g><g stroke-linecap="round"><g transform="translate(154.67321102693677 348.88885498046875) rotate(0 110.3976685576986 -63.74698486362547)"><path d="M-1.57 -0.21 C65.94 -36.45, 129.7 -71.91, 220.96 -126.8 M-0.28 -0.66 C76.04 -42.11, 150.81 -84.09, 222.37 -127.28" stroke="#000000" stroke-width="1" fill="none"></path></g></g><g stroke-linecap="round"><g transform="translate(231.3398776936035 336.66656494140625) rotate(0 -25.450909770714816 -50.283836117635246)"><path d="M0.8 1.52 C-15.03 -32.07, -32.73 -66.44, -49.61 -102.08 M-0.04 -0.78 C-17.49 -32.27, -31.84 -62.83, -51.7 -101.19" stroke="#000000" stroke-width="1" fill="none"></path></g></g><g stroke-linecap="round"><g transform="translate(254.67321102693677 341.11114501953125) rotate(0 13.834144683865247 -50.8173733822382)"><path d="M0.06 -1.36 C6.04 -25.03, 13.01 -52.23, 24.94 -101.59 M0.91 -0.04 C11.43 -37.71, 20.23 -75.18, 27.61 -100.42" stroke="#000000" stroke-width="1" fill="none"></path></g></g><g stroke-linecap="round"><g transform="translate(354.67321102693677 342.2221883138018) rotate(0 17.85675481179112 -52.547320076574806)"><path d="M1.05 1.26 C7.84 -24.96, 15.24 -46.75, 36.63 -106.35 M-0.92 -0.16 C10.71 -33.2, 21.99 -67.45, 36.26 -106.26" stroke="#000000" stroke-width="1" fill="none"></path></g></g><g stroke-linecap="round"><g transform="translate(340.2288343993325 339.9998982747393) rotate(0 -20.342290369483294 -51.71668581881863)"><path d="M0.82 -1.76 C-8.78 -24.43, -19.16 -47.25, -39.4 -104.15 M-0.3 0.72 C-12.3 -31.58, -23.79 -60.67, -41.51 -102.69" stroke="#000000" stroke-width="1" fill="none"></path></g></g><g stroke-linecap="round"><g transform="translate(325.7844577717285 342.2221883138018) rotate(0 -67.07315646732854 -58.157407598880354)"><path d="M0.67 -0.45 C-34.85 -29.13, -71.35 -60.96, -134.82 -115.55 M-0.69 -0.92 C-36.08 -31.56, -72.15 -63.24, -133.8 -115.86" stroke="#000000" stroke-width="1" fill="none"></path></g></g><g stroke-linecap="round"><g transform="translate(65.78445777172851 178.88885498046875) rotate(0 38.6294394377619 -53.02547368841874)"><path d="M1.2 -0.31 C27.7 -38.58, 54.4 -72.39, 76.16 -103.7 M-0.04 -0.06 C29.57 -40, 58.89 -78.62, 77.3 -105.99" stroke="#000000" stroke-width="1" fill="none"></path></g></g><g stroke-linecap="round"><g transform="translate(165.7844577717285 176.66656494140625) rotate(0 1.0644373143516646 -48.144714906190984)"><path d="M-0.33 -1.26 C-1.01 -24.34, 1.94 -52.02, 1.53 -95.14 M0.18 -0.39 C2.36 -37.2, 3.27 -74.03, 1.94 -95.9" stroke="#000000" stroke-width="1" fill="none"></path></g></g><g stroke-linecap="round"><g transform="translate(269.11779110506177 177.7777099609375) rotate(0 -41.61793396311498 -50.75377012013155)"><path d="M-1.92 -1.96 C-22.2 -29.04, -49.5 -58.85, -83.29 -102.23 M0.55 0.72 C-22.22 -27.22, -44.32 -53.94, -83.79 -102.19" stroke="#000000" stroke-width="1" fill="none"></path></g></g><g stroke-linecap="round"><g transform="translate(386.89550106599927 179.99989827473928) rotate(0 -96.61796790017013 -56.523350741146146)"><path d="M0.94 -0.06 C-52.54 -32.64, -103.15 -61.91, -192.93 -113.07 M-0.18 0.02 C-66.11 -36.45, -130.95 -74.38, -194.17 -112.01" stroke="#000000" stroke-width="1" fill="none"></path></g></g><g stroke-linecap="round"><g transform="translate(73.56216773266601 182.22218831380178) rotate(0 93.85739434009096 -59.4519813495275)"><path d="M1.44 -1.19 C62.39 -41.13, 126.14 -81.94, 187.21 -118.31 M0.5 -0.6 C67.43 -43.07, 134.13 -86.02, 186.29 -117.12" stroke="#000000" stroke-width="1" fill="none"></path></g></g><g stroke-linecap="round"><g transform="translate(183.562167732666 177.7777099609375) rotate(0 46.76391666351503 -52.423162954238705)"><path d="M1.05 0.66 C34.16 -39.59, 69.42 -75.05, 93.94 -105.54 M-0.41 0.69 C26.86 -28.83, 52.82 -58.03, 93.53 -105.1" stroke="#000000" stroke-width="1" fill="none"></path></g></g><g stroke-linecap="round"><g transform="translate(288.00654436027 174.44437662760402) rotate(0 1.0978486497769637 -49.578240567818284)"><path d="M1.61 -1.19 C3.29 -35.54, 1.42 -72, 1.62 -98.29 M-0.12 0.23 C0.6 -25.92, 1.94 -53.4, 2.04 -99.38" stroke="#000000" stroke-width="1" fill="none"></path></g></g><g stroke-linecap="round"><g transform="translate(399.11779110506177 172.22218831380178) rotate(0 -45.374982649460435 -50.424516428261995)"><path d="M-1.81 0.84 C-27.25 -33.46, -53.49 -63.09, -88.61 -101.69 M-0.5 -0.44 C-29.47 -33.19, -59.63 -68.61, -90.25 -101.36" stroke="#000000" stroke-width="1" fill="none"></path></g></g><g stroke-linecap="round"><g transform="translate(135.7844577717285 208.88885498046875) rotate(0 -25.95055998085695 0.27037724986053036)"><path d="M1.86 0.15 C-15.1 1.06, -35.54 0.25, -52.41 -0.85 M-0.97 -0.76 C-16.57 -0.11, -34.41 1.75, -53.76 1.33" stroke="#e67700" stroke-width="1" fill="none"></path></g></g><g stroke-linecap="round"><g transform="translate(40.22883439933253 238.88885498046875) rotate(0 -15.396990574585857 18.34017903823417)"><path d="M-0.68 1.27 C-5.68 14.68, -15.23 29.55, -29.8 59.04 M-0.57 -0.2 C-10.57 22.85, -20.88 42.95, -29.1 60.8 M-30.23 61.5 C-26.57 29.52, -26.07 1.23, -22.31 -24.84 M-28.45 61.52 C-25.02 26.08, -23.37 -7.08, -21.75 -24.17" stroke="#e67700" stroke-width="1" fill="none"></path></g></g><g stroke-linecap="round"><g transform="translate(263.562167732666 193.33323160807277) rotate(0 -90.75588919501752 1.776144278856691)"><path d="M0.04 -1.4 C-56.33 2.66, -116.09 2.58, -180.79 2.64 M-0.9 -0.98 C-56.39 2.07, -111.03 3.22, -181.55 4.95" stroke="#e67700" stroke-width="1" fill="none"></path></g></g><g stroke-linecap="round"><g transform="translate(378.00654436027 184.44437662760402) rotate(0 -152.0873218575538 1.466149911032062)"><path d="M-0.98 -0.98 C-89.08 1.74, -174.98 3.9, -303.92 3.91 M-0.26 0.43 C-94.38 -1.4, -189.67 -0.55, -303.31 3.91" stroke="#e67700" stroke-width="1" fill="none"></path></g></g><g transform="translate(180.22863094881177 443.9998982747368) rotate(0 85.5 25.5)"><text x="0" y="38" font-family="Virgil, Segoe UI Emoji" font-size="36px" fill="#e67700" text-anchor="start" style="white-space: pre;" direction="ltr">Elman网络</text></g></svg>