<svg version="1.1" xmlns="http://www.w3.org/2000/svg" viewBox="0 0 480.27344790384524 498.99989827473814" width="480.27344790384524" height="498.99989827473814">
  <!-- svg-source:excalidraw -->
  
  <defs>
    <style class="style-fonts">
      @font-face {
        font-family: "Virgil";
        src: url("https://excalidraw.com/Virgil.woff2");
      }
      @font-face {
        font-family: "Cascadia";
        src: url("https://excalidraw.com/Cascadia.woff2");
      }
      @font-face {
        font-family: "Assistant";
        src: url("https://excalidraw.com/Assistant-Regular.woff2");
      }
    </style>
    
  </defs>
  <rect x="0" y="0" width="480.27344790384524" height="498.99989827473814" fill="#ffffff"></rect><g stroke-linecap="round" transform="translate(131.1107889811201 14.44447835286519) rotate(0 34.44442749023426 33.33333333333326)"><path d="M5.32 15.22 C5.32 15.22, 5.32 15.22, 5.32 15.22 M5.32 15.22 C5.32 15.22, 5.32 15.22, 5.32 15.22 M3.74 23.13 C12.84 14.99, 18.6 5.82, 22.11 2 M3.74 23.13 C10.02 16.74, 15.81 9.74, 22.11 2 M1.51 31.79 C11.26 23.85, 17.29 12.27, 27.75 1.6 M1.51 31.79 C12.05 19.65, 20.56 9.31, 27.75 1.6 M2.56 36.68 C6.79 30.6, 13.09 24.35, 32.74 1.96 M2.56 36.68 C11.21 25.67, 20.95 15.05, 32.74 1.96 M4.27 40.81 C14.41 27.38, 25.01 15.79, 38.38 1.57 M4.27 40.81 C14.37 28.82, 24.24 16.73, 38.38 1.57 M5.98 44.95 C20.57 28.47, 33.33 13.48, 44.03 1.17 M5.98 44.95 C19.99 29.41, 33.82 13.41, 44.03 1.17 M7.03 49.83 C19.52 35.5, 30.17 21, 47.7 3.04 M7.03 49.83 C18.29 36.57, 30.55 21.65, 47.7 3.04 M8.08 54.72 C23.46 38.21, 38.21 21.07, 50.72 5.67 M8.08 54.72 C18.19 44.17, 27.19 32.75, 50.72 5.67 M11.75 56.59 C19.39 46.19, 27.88 37.38, 54.4 7.54 M11.75 56.59 C25.54 40.49, 38.88 25.49, 54.4 7.54 M15.43 58.46 C33.43 39.8, 48.21 21.02, 57.42 10.16 M15.43 58.46 C28.45 42.62, 42.41 27.71, 57.42 10.16 M18.45 61.09 C32.53 44.35, 46.13 28.13, 61.09 12.03 M18.45 61.09 C32.35 45.29, 46.31 29.49, 61.09 12.03 M22.12 62.95 C32.87 51.58, 44.2 35.72, 62.8 16.16 M22.12 62.95 C30.06 52.58, 38.89 44.04, 62.8 16.16 M25.8 64.82 C38.81 50.96, 51.59 35.02, 64.5 20.3 M25.8 64.82 C36.25 54.09, 46.6 42.23, 64.5 20.3 M30.78 65.18 C42.76 48.92, 55.85 35.36, 66.21 24.43 M30.78 65.18 C39.48 53.63, 48.98 44.21, 66.21 24.43 M35.77 65.54 C49.8 50.95, 60.79 38.5, 67.92 28.56 M35.77 65.54 C43.35 55.59, 52.07 46.57, 67.92 28.56 M41.41 65.15 C50.34 55.04, 61.04 43.62, 70.28 31.94 M41.41 65.15 C48.17 58.68, 53.96 52.18, 70.28 31.94 M46.4 65.51 C53.26 56.59, 59.95 50.76, 68.05 40.6 M46.4 65.51 C51.68 58.85, 56.69 53.32, 68.05 40.6" stroke="#fa5252" stroke-width="0.5" fill="none"></path><path d="M21.47 1.61 C27.39 -1.06, 37.24 -0.89, 43.79 0.86 C50.33 2.6, 56.65 7.08, 60.74 12.08 C64.83 17.08, 67.86 24.39, 68.33 30.86 C68.79 37.34, 67.21 45.22, 63.54 50.96 C59.86 56.69, 52.64 62.93, 46.29 65.26 C39.95 67.59, 31.97 66.9, 25.47 64.94 C18.96 62.98, 11.35 58.46, 7.28 53.49 C3.21 48.52, 1.37 41.48, 1.04 35.1 C0.71 28.73, 0.68 21.06, 5.31 15.23 C9.94 9.4, 23.48 2.47, 28.83 0.09 C34.18 -2.28, 37.38 0.49, 37.42 0.97 M25.63 0.44 C32.08 -1.18, 43.12 -0.03, 49.4 2.54 C55.68 5.11, 60.24 10.26, 63.29 15.86 C66.34 21.46, 68.05 29.53, 67.68 36.16 C67.31 42.79, 65.51 50.49, 61.07 55.66 C56.64 60.83, 47.68 65.6, 41.07 67.17 C34.45 68.75, 27.31 67.77, 21.39 65.11 C15.47 62.45, 9.28 57.15, 5.53 51.21 C1.78 45.27, -1.82 36.1, -1.11 29.47 C-0.41 22.84, 4.92 16.43, 9.77 11.41 C14.62 6.38, 25.23 0.98, 27.97 -0.68 C30.71 -2.34, 26.05 0.54, 26.22 1.47" stroke="#000000" stroke-width="1" fill="none"></path></g><g stroke-linecap="round" transform="translate(249.44412231445324 10) rotate(0 34.44442749023426 33.33333333333326)"><path d="M11.19 8.4 C11.19 8.4, 11.19 8.4, 11.19 8.4 M11.19 8.4 C11.19 8.4, 11.19 8.4, 11.19 8.4 M1.09 26.12 C4.45 18.02, 11.65 13.79, 19.46 4.99 M1.09 26.12 C6.28 21.14, 10.92 14.9, 19.46 4.99 M1.48 31.76 C9.05 20.68, 18.27 12.68, 27.72 1.58 M1.48 31.76 C10.47 22.12, 18.83 12.56, 27.72 1.58 M1.88 37.41 C10.21 26.34, 20.18 17.02, 33.37 1.18 M1.88 37.41 C10.16 29.79, 16.8 20.95, 33.37 1.18 M2.27 43.05 C17.5 25.34, 30.67 9.97, 38.35 1.54 M2.27 43.05 C10.92 33.26, 20.72 22.29, 38.35 1.54 M3.98 47.18 C14.91 33.46, 23.74 23.32, 42.69 2.66 M3.98 47.18 C18.84 30.44, 32.44 14.1, 42.69 2.66 M6.34 50.56 C19.85 33.17, 32.24 19.4, 47.02 3.77 M6.34 50.56 C18.78 35.77, 32.54 21.35, 47.02 3.77 M9.36 53.19 C18.68 39.91, 32.67 29.39, 51.35 4.89 M9.36 53.19 C20.45 40.75, 31.88 26.99, 51.35 4.89 M11.72 56.57 C29.11 37.79, 43.88 19.74, 55.02 6.76 M11.72 56.57 C21.32 46.1, 29.57 36.64, 55.02 6.76 M14.74 59.19 C28.65 40.65, 42.29 23.69, 58.04 9.38 M14.74 59.19 C31.93 40.34, 48.32 20.86, 58.04 9.38 M17.1 62.57 C30.6 47.27, 47.55 30.04, 60.4 12.76 M17.1 62.57 C31.98 44.76, 47.6 26.44, 60.4 12.76 M21.44 63.68 C32.15 49.53, 47.7 32.25, 62.77 16.14 M21.44 63.68 C31.84 50.8, 42.29 39.14, 62.77 16.14 M25.77 64.8 C36.11 54.73, 45.66 43.26, 65.13 19.52 M25.77 64.8 C38.66 49.57, 51.74 34.89, 65.13 19.52 M30.1 65.91 C40.76 53.75, 51.76 40.84, 67.49 22.9 M30.1 65.91 C39.88 54.68, 51.68 42.35, 67.49 22.9 M34.43 67.03 C42.48 56.77, 52.22 43.95, 68.54 27.78 M34.43 67.03 C44.69 55.67, 53.52 46.53, 68.54 27.78 M38.1 68.9 C51.06 57.13, 61.94 40.06, 68.94 33.43 M38.1 68.9 C46.92 59.03, 56.72 47.97, 68.94 33.43 M46.37 65.48 C51.49 59.96, 57.92 53.67, 69.33 39.07 M46.37 65.48 C52.46 58.06, 61.03 49.11, 69.33 39.07" stroke="#fa5252" stroke-width="0.5" fill="none"></path><path d="M32.36 -0.28 C38.76 -1.41, 46.88 0.46, 52.53 4.12 C58.19 7.78, 63.64 15.5, 66.31 21.66 C68.98 27.82, 70.04 34.87, 68.56 41.07 C67.07 47.27, 62.72 54.52, 57.37 58.86 C52.03 63.21, 43.42 66.79, 36.48 67.13 C29.54 67.47, 21.4 64.41, 15.74 60.91 C10.09 57.41, 5.02 52.01, 2.53 46.14 C0.05 40.27, -0.66 32.07, 0.84 25.72 C2.34 19.37, 5.23 12.17, 11.51 8.04 C17.79 3.9, 32.97 1.88, 38.52 0.92 C44.07 -0.03, 44.92 2.02, 44.82 2.3 M48.53 1.92 C54.59 4.18, 62.12 10.85, 65.43 16.91 C68.73 22.97, 69.21 31.83, 68.35 38.27 C67.48 44.7, 64.7 50.77, 60.22 55.52 C55.73 60.26, 47.84 65.39, 41.44 66.74 C35.04 68.09, 28.04 66.21, 21.83 63.61 C15.61 61.02, 7.75 56.81, 4.15 51.18 C0.55 45.54, -0.55 36.42, 0.25 29.81 C1.05 23.2, 4.22 16.61, 8.96 11.52 C13.69 6.43, 22.19 0.77, 28.66 -0.74 C35.13 -2.25, 44.63 1.56, 47.79 2.47 C50.94 3.38, 47.66 4.27, 47.59 4.71" stroke="#000000" stroke-width="1" fill="none"></path></g><g stroke-linecap="round" transform="translate(15.55536905924464 175.55552164713572) rotate(0 34.44442749023426 33.33333333333326)"><path d="M10.77 9.36 C10.77 9.36, 10.77 9.36, 10.77 9.36 M10.77 9.36 C10.77 9.36, 10.77 9.36, 10.77 9.36 M2.63 24.81 C8.07 19.98, 11.28 17.79, 19.69 5.19 M2.63 24.81 C6.6 19.25, 11.75 13.7, 19.69 5.19 M2.37 31.21 C9.23 25.37, 13.69 16.58, 28.61 1.02 M2.37 31.21 C10.64 20.2, 20.71 10.56, 28.61 1.02 M2.77 36.85 C12.75 24.8, 23.35 13.28, 33.6 1.38 M2.77 36.85 C8.25 28.65, 15.63 22.29, 33.6 1.38 M3.16 42.5 C10.29 34.79, 18.04 25.58, 37.93 2.5 M3.16 42.5 C9.59 35.7, 17.32 26.32, 37.93 2.5 M3.56 48.14 C17.82 33.98, 29.2 17.76, 42.92 2.86 M3.56 48.14 C14.48 35.01, 25.85 21.6, 42.92 2.86 M6.57 50.77 C19.02 35.51, 33.55 22.49, 47.25 3.97 M6.57 50.77 C20.25 33.3, 34.84 17.77, 47.25 3.97 M8.94 54.14 C22.78 39.31, 35.71 22.12, 51.58 5.09 M8.94 54.14 C21.92 40.89, 33.94 26.96, 51.58 5.09 M11.96 56.77 C25.88 40.61, 38.75 24.05, 54.6 7.71 M11.96 56.77 C29 38.29, 44.54 18.44, 54.6 7.71 M14.97 59.39 C24.07 46.63, 35.33 34.85, 57.62 10.34 M14.97 59.39 C27.19 45.75, 38.99 31.78, 57.62 10.34 M17.99 62.02 C28.3 49.15, 39.99 35.06, 59.98 13.72 M17.99 62.02 C26.22 52.61, 34.16 42.29, 59.98 13.72 M22.32 63.13 C37.34 49.63, 50.09 32.09, 63 16.34 M22.32 63.13 C38.93 44.4, 54.08 26.38, 63 16.34 M26.66 64.25 C36.7 51.39, 51.38 39.51, 66.02 18.96 M26.66 64.25 C38.2 51.81, 47.15 39.4, 66.02 18.96 M30.99 65.36 C44.25 52.52, 55.25 36.66, 66.41 24.61 M30.99 65.36 C45.55 49.3, 59.84 33.24, 66.41 24.61 M35.32 66.48 C47.39 55.84, 56.44 41.59, 67.46 29.5 M35.32 66.48 C43.25 57.56, 49.7 48.68, 67.46 29.5 M39.65 67.59 C48.9 58.53, 56.67 48.17, 68.51 34.38 M39.65 67.59 C49.58 55.67, 59.34 45.28, 68.51 34.38 M48.57 63.42 C55.17 54.98, 63.61 47.05, 68.91 40.03 M48.57 63.42 C54.99 56.72, 58.92 49.21, 68.91 40.03" stroke="#82c91e" stroke-width="0.5" fill="none"></path><path d="M30.29 0.1 C36.52 -0.95, 45.89 1.98, 51.78 5.14 C57.66 8.29, 62.71 13.23, 65.58 19.02 C68.45 24.8, 70.3 33.36, 69 39.84 C67.71 46.31, 62.84 53.28, 57.81 57.87 C52.79 62.46, 45.71 66.68, 38.85 67.37 C31.99 68.06, 22.66 65.42, 16.67 62.02 C10.68 58.61, 5.45 52.78, 2.92 46.96 C0.39 41.14, 0.21 33.32, 1.48 27.1 C2.75 20.87, 4.64 14.18, 10.53 9.63 C16.42 5.07, 31.41 1.18, 36.8 -0.23 C42.2 -1.63, 42.9 0.72, 42.89 1.2 M24.56 1.4 C30.6 -0.62, 39.44 0.45, 45.76 2.64 C52.08 4.84, 58.49 9.25, 62.5 14.57 C66.5 19.89, 70.17 28.27, 69.78 34.57 C69.4 40.88, 64.49 47.28, 60.18 52.43 C55.86 57.57, 50.27 63.58, 43.89 65.46 C37.52 67.34, 28.29 65.81, 21.94 63.69 C15.58 61.57, 9.35 57.84, 5.76 52.74 C2.17 47.64, 0.32 39.63, 0.39 33.07 C0.46 26.51, 2.04 18.55, 6.17 13.37 C10.29 8.2, 22.13 4, 25.13 1.99 C28.14 -0.02, 24.18 0.73, 24.21 1.31" stroke="#000000" stroke-width="1" fill="none"></path></g><g stroke-linecap="round" transform="translate(133.33328247070324 174.9998982747402) rotate(0 34.44442749023426 33.33333333333326)"><path d="M7.3 14.29 C7.3 14.29, 7.3 14.29, 7.3 14.29 M7.3 14.29 C7.3 14.29, 7.3 14.29, 7.3 14.29 M1.79 26.73 C8.88 20.77, 14.26 15.11, 20.81 4.84 M1.79 26.73 C6.08 22.54, 9.9 17.06, 20.81 4.84 M0.21 34.64 C9.54 24.84, 19.19 12.3, 28.43 2.18 M0.21 34.64 C11.68 21.53, 21.5 8.31, 28.43 2.18 M1.92 38.77 C6.3 33.01, 13.94 25.47, 33.41 2.54 M1.92 38.77 C8.28 30.7, 15.57 24.35, 33.41 2.54 M3.63 42.9 C16.44 27.63, 28.62 13.62, 38.4 2.9 M3.63 42.9 C10.76 33.56, 18.07 26.72, 38.4 2.9 M4.68 47.79 C15.72 36.52, 22.55 25.66, 43.39 3.26 M4.68 47.79 C18.02 34.29, 29.8 20.36, 43.39 3.26 M6.39 51.93 C18.62 35.52, 33.1 19.59, 48.37 3.62 M6.39 51.93 C16.29 41.39, 25.39 30.82, 48.37 3.62 M9.4 54.55 C19.86 42.13, 30.83 33.6, 51.39 6.25 M9.4 54.55 C23.57 36.61, 39.23 19.72, 51.39 6.25 M12.42 57.17 C21.58 46.58, 32.25 33.15, 55.07 8.12 M12.42 57.17 C28.57 38.95, 45.75 19.62, 55.07 8.12 M16.1 59.04 C24.28 48.04, 35.36 38.85, 58.09 10.74 M16.1 59.04 C28.82 44.38, 41.29 30.65, 58.09 10.74 M19.12 61.67 C34.93 40.83, 53.36 24.92, 61.1 13.37 M19.12 61.67 C28.82 48.82, 40.45 36.92, 61.1 13.37 M22.14 64.29 C31.55 53.5, 40.27 45.4, 64.12 15.99 M22.14 64.29 C32.81 51.93, 44.24 38.05, 64.12 15.99 M27.12 64.65 C41.01 50.24, 53.61 33.33, 65.17 20.88 M27.12 64.65 C37.22 53.71, 47.84 41.33, 65.17 20.88 M32.11 65.01 C38.62 55.99, 47.45 48.45, 66.88 25.01 M32.11 65.01 C45.38 50.71, 56.81 37.04, 66.88 25.01 M37.75 64.62 C46.19 57.38, 51.16 46.92, 67.93 29.9 M37.75 64.62 C46.5 54.14, 56.52 43.03, 67.93 29.9 M42.74 64.98 C48.99 60.39, 53.52 54.12, 68.98 34.79 M42.74 64.98 C47.8 58.86, 54.41 51.96, 68.98 34.79 M52.32 60.06 C58.15 53.1, 64.02 47.33, 66.1 44.21 M52.32 60.06 C57.49 54.24, 63.34 47.52, 66.1 44.21" stroke="#82c91e" stroke-width="0.5" fill="none"></path><path d="M25.05 1.75 C31.28 -0.31, 40.31 0.34, 46.69 2.5 C53.06 4.67, 59.55 9.36, 63.3 14.75 C67.05 20.15, 69.45 28.56, 69.19 34.87 C68.94 41.17, 65.86 47.62, 61.77 52.6 C57.68 57.58, 51.14 62.71, 44.65 64.76 C38.16 66.81, 29.22 67.05, 22.84 64.89 C16.45 62.72, 10.26 57.22, 6.34 51.77 C2.41 46.32, -0.93 38.5, -0.73 32.2 C-0.52 25.9, 2.4 19.24, 7.57 13.98 C12.75 8.72, 25.32 2.9, 30.32 0.63 C35.32 -1.63, 37.4 -0.14, 37.57 0.41 M25.12 0.02 C31.31 -2.08, 40.87 -1.02, 47.38 1.7 C53.89 4.42, 60.69 10.79, 64.16 16.34 C67.62 21.89, 68.58 28.57, 68.17 34.98 C67.76 41.39, 65.8 49.92, 61.71 54.8 C57.61 59.67, 50.34 62.68, 43.6 64.24 C36.86 65.81, 27.47 66.27, 21.27 64.18 C15.06 62.09, 9.76 57.02, 6.35 51.72 C2.94 46.41, 0.58 38.91, 0.81 32.32 C1.04 25.73, 3.56 17.31, 7.74 12.18 C11.91 7.05, 23.01 3.15, 25.85 1.55 C28.68 -0.05, 24.66 2.32, 24.75 2.59" stroke="#000000" stroke-width="1" fill="none"></path></g><g stroke-linecap="round" transform="translate(252.2220357259115 173.88875325520894) rotate(0 34.44442749023426 33.33333333333326)"><path d="M15.61 5.62 C15.61 5.62, 15.61 5.62, 15.61 5.62 M15.61 5.62 C15.61 5.62, 15.61 5.62, 15.61 5.62 M2.22 27.11 C8 20.44, 11.26 17.17, 22.56 3.71 M2.22 27.11 C8.96 20.58, 15.16 13.22, 22.56 3.71 M2.62 32.75 C11.35 21.25, 19.7 15.43, 29.52 1.81 M2.62 32.75 C11.77 22.12, 19.66 12.26, 29.52 1.81 M2.36 39.15 C14.38 24.57, 27.39 9.01, 36.47 -0.1 M2.36 39.15 C16.12 23.75, 29.56 7.52, 36.47 -0.1 M2.75 44.79 C10.8 34.79, 17.63 25.48, 40.15 1.77 M2.75 44.79 C15.38 30.05, 27.1 16.89, 40.15 1.77 M5.11 48.17 C19.96 34.05, 30.74 20.11, 44.48 2.89 M5.11 48.17 C14.19 36.73, 23.95 26.3, 44.48 2.89 M8.13 50.8 C16.98 42.78, 26.86 30.48, 48.15 4.76 M8.13 50.8 C20.56 35.1, 33.06 21.85, 48.15 4.76 M10.5 54.17 C21.96 41.89, 30.39 32.14, 51.83 6.63 M10.5 54.17 C24.53 38.82, 38.54 22.22, 51.83 6.63 M12.86 57.55 C26.17 43.51, 35.73 30.23, 56.16 7.74 M12.86 57.55 C21.82 46.11, 30.65 36.67, 56.16 7.74 M15.22 60.93 C30.2 44.32, 43.8 29.94, 58.52 11.12 M15.22 60.93 C26.88 46.77, 40.15 32.38, 58.52 11.12 M19.55 62.05 C32.2 47.49, 45.59 33.6, 60.88 14.5 M19.55 62.05 C33.05 44.84, 45.93 30.4, 60.88 14.5 M23.23 63.92 C33.39 53.37, 44.09 40.55, 63.25 17.88 M23.23 63.92 C39.78 44.79, 54.21 27.82, 63.25 17.88 M27.56 65.03 C39.41 49.63, 54.99 34.55, 65.61 21.26 M27.56 65.03 C35.78 55.56, 42.34 47.54, 65.61 21.26 M31.89 66.15 C45.38 50.69, 57.29 37.06, 67.97 24.64 M31.89 66.15 C40.64 56.82, 48.47 45.64, 67.97 24.64 M38.19 65 C46.99 54.35, 59.81 39.14, 67.71 31.03 M38.19 65 C46.53 53.2, 57.12 42.72, 67.71 31.03 M45.14 63.09 C50.19 56.74, 53.68 53.4, 68.11 36.68 M45.14 63.09 C51.18 56.5, 57.25 47.75, 68.11 36.68 M52.75 60.43 C60.06 52.16, 66.01 45.87, 67.84 43.08 M52.75 60.43 C58.91 54.98, 63.9 48.36, 67.84 43.08" stroke="#82c91e" stroke-width="0.5" fill="none"></path><path d="M36.09 -0.41 C42.67 -0.39, 51.11 3.71, 56.29 7.79 C61.48 11.88, 65.39 17.87, 67.21 24.1 C69.03 30.32, 69.44 39.11, 67.22 45.13 C65 51.15, 59.64 56.64, 53.88 60.21 C48.12 63.78, 39.34 66.62, 32.64 66.55 C25.94 66.49, 18.83 63.73, 13.68 59.8 C8.53 55.87, 3.68 49.34, 1.74 43 C-0.2 36.65, -0.23 27.93, 2.04 21.74 C4.32 15.56, 9.39 9.36, 15.38 5.88 C21.36 2.4, 33.62 1.75, 37.94 0.88 C42.26 0.01, 41.37 0.18, 41.3 0.67 M35.88 0.25 C42.56 0.34, 51.68 4.7, 56.9 8.67 C62.12 12.65, 65.71 18.05, 67.18 24.09 C68.65 30.12, 68.36 38.38, 65.73 44.9 C63.09 51.42, 57.03 59.69, 51.37 63.2 C45.72 66.71, 38.23 66.57, 31.8 65.96 C25.38 65.36, 17.85 63.61, 12.81 59.56 C7.77 55.5, 3.03 48.36, 1.56 41.65 C0.1 34.95, 1.35 25.48, 4.02 19.31 C6.69 13.14, 11.99 7.68, 17.59 4.61 C23.2 1.54, 34.4 1.59, 37.66 0.9 C40.91 0.2, 37.19 0.26, 37.15 0.46" stroke="#000000" stroke-width="1" fill="none"></path></g><g stroke-linecap="round" transform="translate(370.555369059245 172.7777099609384) rotate(0 34.44442749023426 33.33333333333326)"><path d="M9.32 10.75 C9.32 10.75, 9.32 10.75, 9.32 10.75 M9.32 10.75 C9.32 10.75, 9.32 10.75, 9.32 10.75 M3.15 23.94 C6.44 18.56, 12.08 10.74, 19.55 5.07 M3.15 23.94 C6.26 20.05, 10.71 15.43, 19.55 5.07 M1.58 31.85 C11.67 21.82, 18.57 11.48, 28.47 0.9 M1.58 31.85 C9.49 22.85, 16.25 14.77, 28.47 0.9 M2.63 36.73 C16.16 24.3, 26.9 6.83, 33.46 1.26 M2.63 36.73 C8.34 30.08, 14.9 23.11, 33.46 1.26 M3.02 42.38 C14.69 28.52, 27.67 13.48, 38.45 1.62 M3.02 42.38 C10.25 33.7, 16.04 26.03, 38.45 1.62 M4.07 47.26 C16.95 33.18, 28.47 19.6, 42.78 2.74 M4.07 47.26 C15.99 34.33, 27.04 20.98, 42.78 2.74 M6.43 50.64 C23.07 33.41, 38.19 16.72, 47.77 3.1 M6.43 50.64 C17.39 38.44, 28.58 25.17, 47.77 3.1 M9.45 53.27 C24.22 38.33, 36.98 18.15, 51.44 4.97 M9.45 53.27 C24.31 37.08, 39.13 19.67, 51.44 4.97 M12.47 55.89 C21.06 47.18, 29.76 36.62, 54.46 7.59 M12.47 55.89 C22.19 44.63, 32.63 32.61, 54.46 7.59 M15.49 58.52 C32.28 39.55, 48.07 24.35, 57.48 10.22 M15.49 58.52 C28.77 41.89, 42.95 25.6, 57.48 10.22 M18.51 61.14 C27.24 51.97, 37.11 39.28, 60.5 12.84 M18.51 61.14 C34.03 43.36, 49.59 26.12, 60.5 12.84 M21.53 63.77 C33.52 51.07, 44.74 36.65, 63.52 15.46 M21.53 63.77 C31.86 51.92, 42.3 39.2, 63.52 15.46 M26.52 64.13 C39.57 49.51, 53.08 34.55, 65.88 18.84 M26.52 64.13 C40.6 48.82, 53.77 32.3, 65.88 18.84 M31.5 64.49 C43.67 50.43, 52.69 40.14, 66.93 23.73 M31.5 64.49 C43.81 50.3, 57.21 33.28, 66.93 23.73 M36.49 64.85 C44.47 53.74, 52.53 48.17, 67.32 29.37 M36.49 64.85 C48.89 51.26, 60.36 36.81, 67.32 29.37 M41.48 65.21 C48.05 57.4, 59.36 47.44, 68.38 34.26 M41.48 65.21 C47.79 58.56, 53.25 52.05, 68.38 34.26 M51.06 60.28 C56.09 53.08, 62.59 48.45, 66.8 42.17 M51.06 60.28 C55.4 55.37, 59.41 50.46, 66.8 42.17" stroke="#82c91e" stroke-width="0.5" fill="none"></path><path d="M27.4 0.42 C33.87 -1.15, 43.75 0.66, 50.07 3.53 C56.38 6.4, 62.1 11.93, 65.26 17.63 C68.42 23.34, 70.01 31.5, 69.01 37.76 C68.02 44.02, 64 50.61, 59.3 55.19 C54.61 59.77, 47.41 63.98, 40.85 65.24 C34.29 66.5, 26.1 65.57, 19.96 62.76 C13.82 59.96, 7.25 54.03, 4.02 48.43 C0.78 42.82, -0.31 35.41, 0.55 29.15 C1.42 22.89, 4.16 15.75, 9.21 10.87 C14.26 6, 26.5 1.56, 30.86 -0.09 C35.23 -1.75, 35.32 0.21, 35.4 0.94 M50.53 2.26 C56.24 4.63, 60.82 12.05, 63.68 17.8 C66.55 23.56, 68.45 30.43, 67.7 36.79 C66.95 43.15, 63.84 50.9, 59.17 55.99 C54.49 61.07, 46.42 66, 39.65 67.31 C32.87 68.62, 24.21 66.64, 18.52 63.86 C12.83 61.08, 8.63 56.36, 5.52 50.61 C2.41 44.86, -0.92 35.81, -0.15 29.36 C0.62 22.9, 5.43 16.89, 10.14 11.89 C14.85 6.89, 21.62 0.7, 28.11 -0.64 C34.6 -1.99, 45.74 3.12, 49.07 3.82 C52.4 4.52, 48.2 3.04, 48.09 3.57" stroke="#000000" stroke-width="1" fill="none"></path></g><g stroke-linecap="round" transform="translate(91.66648864746094 336.66651407877634) rotate(0 34.44442749023426 33.33333333333326)"><path d="M8.21 12.44 C8.21 12.44, 8.21 12.44, 8.21 12.44 M8.21 12.44 C8.21 12.44, 8.21 12.44, 8.21 12.44 M2.7 24.87 C8.87 18.71, 15.51 12.76, 21.07 3.74 M2.7 24.87 C9.37 17.09, 16.19 9.17, 21.07 3.74 M1.12 32.78 C12.2 20.42, 23.52 10.07, 28.02 1.83 M1.12 32.78 C8.05 23.37, 15.16 16.6, 28.02 1.83 M2.18 37.67 C12.2 28.42, 23.74 14.28, 33.01 2.2 M2.18 37.67 C10.73 26.89, 20.48 16.15, 33.01 2.2 M3.23 42.55 C16.57 30.07, 23.94 17.35, 38 2.56 M3.23 42.55 C16.01 28.15, 27.61 14.19, 38 2.56 M4.28 47.44 C17.93 33.44, 28.68 19.55, 42.98 2.92 M4.28 47.44 C14.56 35.37, 25.29 23.32, 42.98 2.92 M4.67 53.09 C16.93 40.87, 28.11 27.86, 47.97 3.28 M4.67 53.09 C15.5 41.32, 24.94 29.65, 47.97 3.28 M8.35 54.96 C18.47 44.47, 31.15 29.77, 51.65 5.14 M8.35 54.96 C24.1 37.39, 38.91 20.64, 51.65 5.14 M11.37 57.58 C21.85 44.41, 33.01 31.22, 54.67 7.77 M11.37 57.58 C26.71 41.41, 40.65 23.02, 54.67 7.77 M15.04 59.45 C31.28 41.97, 42.51 28.69, 57.68 10.39 M15.04 59.45 C23.6 48.27, 32.78 38.96, 57.68 10.39 M18.71 61.32 C33.59 42.94, 51.15 25.35, 61.36 12.26 M18.71 61.32 C36.47 42.81, 51.57 22.64, 61.36 12.26 M21.73 63.94 C32.57 52.12, 43.38 38.2, 64.38 14.89 M21.73 63.94 C31.77 51.63, 42.04 39.62, 64.38 14.89 M24.75 66.57 C33.85 55.99, 40.46 46.4, 65.43 19.78 M24.75 66.57 C37.34 50.98, 51.3 34.19, 65.43 19.78 M29.74 66.93 C39.45 56.45, 46.96 45.2, 66.48 24.66 M29.74 66.93 C40.93 54.66, 49.79 43.2, 66.48 24.66 M34.73 67.29 C45.91 51.82, 61.96 39.87, 67.53 29.55 M34.73 67.29 C42.47 59.17, 49.46 50.78, 67.53 29.55 M39.71 67.65 C50.96 56.98, 58.5 43.51, 68.58 34.44 M39.71 67.65 C50.22 54.47, 61.64 42.59, 68.58 34.44 M45.36 67.25 C54.63 56.18, 60.23 49.37, 70.94 37.82 M45.36 67.25 C54.03 58.33, 62.31 48.62, 70.94 37.82" stroke="#15aabf" stroke-width="0.5" fill="none"></path><path d="M46.66 2.06 C52.9 3.83, 60.49 8.53, 64.03 14.07 C67.57 19.62, 68.48 28.77, 67.9 35.31 C67.32 41.85, 64.62 48.22, 60.54 53.3 C56.46 58.38, 49.8 63.95, 43.43 65.79 C37.06 67.62, 28.75 66.49, 22.33 64.3 C15.91 62.12, 8.66 58.11, 4.91 52.69 C1.16 47.26, -0.77 38.5, -0.18 31.74 C0.41 24.99, 4.03 17.38, 8.44 12.17 C12.84 6.97, 19.69 1.91, 26.25 0.5 C32.81 -0.91, 43.92 3.08, 47.78 3.72 C51.64 4.36, 49.44 4.11, 49.39 4.34 M46.52 1.02 C53.05 2.63, 60.04 9.68, 63.86 15.24 C67.68 20.8, 69.77 28.22, 69.46 34.38 C69.15 40.54, 66.21 47.26, 61.99 52.2 C57.77 57.14, 50.67 62.07, 44.16 64 C37.65 65.94, 29.43 65.76, 22.95 63.81 C16.47 61.86, 9.24 57.26, 5.27 52.33 C1.29 47.39, -1.06 40.67, -0.91 34.2 C-0.76 27.73, 1.79 19.18, 6.17 13.5 C10.54 7.82, 18.74 2.16, 25.35 0.1 C31.96 -1.95, 42.45 0.86, 45.82 1.15 C49.19 1.44, 45.6 1.28, 45.56 1.86" stroke="#000000" stroke-width="1" fill="none"></path></g><g stroke-linecap="round" transform="translate(204.9997711181643 337.22203572591116) rotate(0 34.44442749023426 33.33333333333326)"><path d="M4.55 17.21 C4.55 17.21, 4.55 17.21, 4.55 17.21 M4.55 17.21 C4.55 17.21, 4.55 17.21, 4.55 17.21 M2.32 25.87 C8.9 20, 15.69 13.57, 22.66 2.48 M2.32 25.87 C9.71 17.37, 16.99 10.01, 22.66 2.48 M0.75 33.78 C11.69 22.44, 24.59 7.62, 28.31 2.08 M0.75 33.78 C6.15 25.83, 14.24 18.77, 28.31 2.08 M1.15 39.42 C13.37 29.68, 20.64 16.17, 33.95 1.69 M1.15 39.42 C11 27.98, 20.91 16.62, 33.95 1.69 M2.85 43.56 C11.35 31.89, 19.65 25.46, 38.94 2.05 M2.85 43.56 C16.76 27.14, 31.1 10.73, 38.94 2.05 M5.22 46.93 C16.84 33.23, 28.53 20.21, 43.92 2.41 M5.22 46.93 C17.12 33.32, 29.06 19.52, 43.92 2.41 M6.92 51.07 C21.14 36.27, 34.6 19.1, 47.6 4.28 M6.92 51.07 C21.27 34.18, 35.71 18.12, 47.6 4.28 M9.28 54.45 C20.53 44.8, 27.5 34.49, 51.27 6.15 M9.28 54.45 C19.24 42.69, 30.06 30.07, 51.27 6.15 M12.3 57.07 C24.43 41.85, 36.57 30.75, 54.95 8.01 M12.3 57.07 C26.04 41.72, 37.61 26.74, 54.95 8.01 M15.98 58.94 C23.83 47.05, 35.89 35.4, 58.62 9.88 M15.98 58.94 C29.09 42.85, 44.04 28.71, 58.62 9.88 M19.65 60.81 C32.74 46.49, 46.63 32.83, 60.99 13.26 M19.65 60.81 C32.55 45.77, 43.75 32.29, 60.99 13.26 M23.33 62.68 C39.03 45.67, 52.63 26.97, 62.69 17.4 M23.33 62.68 C39.08 43.96, 55.14 26.05, 62.69 17.4 M26.35 65.3 C38.5 49.12, 51.66 35.93, 65.05 20.78 M26.35 65.3 C37.49 52.25, 47.45 39.25, 65.05 20.78 M31.33 65.66 C43.41 51.16, 54.72 35.53, 66.76 24.91 M31.33 65.66 C39.54 54.71, 48.58 46.26, 66.76 24.91 M36.98 65.27 C45.45 56.58, 57.45 42.64, 69.12 28.29 M36.98 65.27 C46.87 54.12, 56.46 44.28, 69.12 28.29 M42.62 64.87 C52.52 53.23, 59.63 45.4, 67.55 36.2 M42.62 64.87 C49.97 56.02, 58.61 46.48, 67.55 36.2 M48.92 63.73 C53.43 55.22, 62.28 49.78, 64.66 45.61 M48.92 63.73 C53.77 59.12, 57.82 54.73, 64.66 45.61" stroke="#15aabf" stroke-width="0.5" fill="none"></path><path d="M41.78 1.62 C48.15 2.34, 54.74 5.64, 59.31 10.25 C63.88 14.85, 68.54 22.62, 69.21 29.24 C69.89 35.87, 66.79 44.24, 63.35 50.01 C59.9 55.78, 54.65 61.34, 48.56 63.86 C42.47 66.37, 33.29 66.53, 26.81 65.1 C20.33 63.66, 14.13 59.85, 9.67 55.25 C5.22 50.65, 0.95 43.82, 0.06 37.51 C-0.82 31.21, 1.04 23.3, 4.35 17.44 C7.67 11.58, 12.86 4.97, 19.95 2.36 C27.04 -0.25, 41.92 1.37, 46.9 1.78 C51.88 2.18, 50.28 4.14, 49.82 4.8 M26.65 1.93 C32.87 0.17, 43.3 1.04, 49.67 3.52 C56.04 6, 61.9 11.29, 64.88 16.79 C67.86 22.3, 68.56 30.12, 67.54 36.55 C66.52 42.99, 63.27 50.67, 58.75 55.41 C54.23 60.14, 46.83 63.74, 40.39 64.97 C33.96 66.2, 25.86 65.45, 20.12 62.81 C14.37 60.17, 9.22 54.48, 5.93 49.14 C2.64 43.79, 0.11 37.07, 0.38 30.74 C0.66 24.41, 3.18 16.11, 7.58 11.14 C11.98 6.16, 23.55 2.33, 26.79 0.88 C30.03 -0.57, 26.84 1.74, 27.01 2.43" stroke="#000000" stroke-width="1" fill="none"></path></g><g stroke-linecap="round" transform="translate(306.11091613769554 338.8887023925781) rotate(0 34.44442749023426 33.33333333333326)"><path d="M2.99 19.83 C2.99 19.83, 2.99 19.83, 2.99 19.83 M2.99 19.83 C2.99 19.83, 2.99 19.83, 2.99 19.83 M2.73 26.23 C10.17 20.23, 17.05 12.54, 22.42 3.59 M2.73 26.23 C10.3 17.62, 19.01 9.56, 22.42 3.59 M1.82 33.38 C8.64 28.6, 11.99 19.62, 28.71 2.44 M1.82 33.38 C11.95 22.11, 22.97 9.74, 28.71 2.44 M2.21 39.02 C10.74 30.04, 15.5 23.51, 34.36 2.04 M2.21 39.02 C13.26 26.29, 24.38 13.32, 34.36 2.04 M3.92 43.16 C14.99 28.4, 31.33 14.14, 40 1.65 M3.92 43.16 C13.94 31.38, 24 19.91, 40 1.65 M6.28 46.53 C14.57 36.59, 23.58 25.82, 44.33 2.76 M6.28 46.53 C17.8 33.47, 29.1 20.23, 44.33 2.76 M7.99 50.67 C24.34 33.64, 38.36 14.78, 48.01 4.63 M7.99 50.67 C19.55 37.1, 31.98 21.26, 48.01 4.63 M10.35 54.05 C19.95 43.18, 28.85 32.72, 51.68 6.5 M10.35 54.05 C26.48 36.11, 41.77 17.04, 51.68 6.5 M12.71 57.43 C26.15 40.86, 43.66 23.13, 56.01 7.62 M12.71 57.43 C28.87 37.49, 45.46 18.38, 56.01 7.62 M16.39 59.3 C28.29 45.79, 40.49 29.8, 59.03 10.24 M16.39 59.3 C26.7 47.91, 38.93 35.06, 59.03 10.24 M20.06 61.17 C35.88 44.93, 52.32 26.26, 60.74 14.37 M20.06 61.17 C29.38 48.58, 40.31 37.42, 60.74 14.37 M23.74 63.03 C36.12 48.21, 46.82 37.12, 63.1 17.75 M23.74 63.03 C35.54 49.2, 48.13 34.36, 63.1 17.75 M27.41 64.9 C38.02 50.81, 51.64 37.52, 64.81 21.89 M27.41 64.9 C41.32 47.69, 55.25 33.09, 64.81 21.89 M31.74 66.02 C45.03 49.09, 57.23 34.86, 67.17 25.26 M31.74 66.02 C43.9 51.11, 58.59 35.78, 67.17 25.26 M37.39 65.62 C49.37 56.22, 56.09 42.72, 68.22 30.15 M37.39 65.62 C43.51 58.54, 50.94 51.05, 68.22 30.15 M43.69 64.48 C48.43 56.28, 57.02 51.03, 67.3 37.31 M43.69 64.48 C52.33 55.13, 60.29 46.77, 67.3 37.31 M49.33 64.08 C51.51 60.9, 56.79 55.43, 66.39 44.46 M49.33 64.08 C55 58.19, 60.9 52.08, 66.39 44.46" stroke="#15aabf" stroke-width="0.5" fill="none"></path><path d="M18.92 3.11 C24.16 -0.14, 31.66 -0.1, 38.06 0.78 C44.47 1.66, 52.36 3.92, 57.37 8.4 C62.39 12.88, 66.79 21.14, 68.14 27.65 C69.49 34.17, 68.5 41.51, 65.48 47.51 C62.46 53.51, 55.99 60.52, 50.02 63.65 C44.05 66.77, 36.06 67.36, 29.66 66.27 C23.25 65.17, 16.29 61.68, 11.61 57.08 C6.92 52.47, 2.98 44.83, 1.54 38.63 C0.1 32.43, -0.91 26.05, 2.96 19.86 C6.84 13.68, 19.79 4.84, 24.78 1.54 C29.77 -1.77, 32.61 -0.38, 32.9 0.04 M45.9 2.58 C52.1 4.21, 58.79 9.06, 62.62 13.92 C66.45 18.79, 68.96 25.51, 68.88 31.76 C68.81 38, 66.11 46.04, 62.16 51.39 C58.2 56.73, 51.66 61.57, 45.17 63.84 C38.68 66.11, 29.77 66.52, 23.23 64.99 C16.69 63.46, 9.92 59.84, 5.93 54.67 C1.93 49.49, -0.97 40.94, -0.73 33.95 C-0.49 26.96, 3.3 18.19, 7.36 12.72 C11.41 7.25, 17.35 3.09, 23.6 1.12 C29.84 -0.84, 41.19 0.82, 44.84 0.94 C48.5 1.05, 45.56 1.37, 45.54 1.82" stroke="#000000" stroke-width="1" fill="none"></path></g><g stroke-linecap="round"><g transform="translate(63.3331298828125 239.99989827473928) rotate(0 22.77781168619788 47.2222900390625)"><path d="M0 0 C10.47 21.88, 19.64 42.52, 45.56 94.44 M0 0 C18.54 36.27, 36.57 74.22, 45.56 94.44" stroke="#000000" stroke-width="1" fill="none"></path></g></g><mask></mask><g stroke-linecap="round"><g transform="translate(69.99979654947924 238.88885498046875) rotate(0 71.66666666666663 52.22218831380201)"><path d="M0 0 C46.65 34.8, 93.02 68.18, 143.33 104.44 M0 0 C56.22 39.53, 109.29 78.7, 143.33 104.44" stroke="#000000" stroke-width="1" fill="none"></path></g></g><mask></mask><g stroke-linecap="round"><g transform="translate(73.3331298828125 232.22218831380178) rotate(0 120.55562337239587 58.88885498046875)"><path d="M0 0 C56.18 26.58, 112.51 56.16, 241.11 117.78 M0 0 C91.95 45.06, 185.01 91.29, 241.11 117.78" stroke="#000000" stroke-width="1" fill="none"></path></g></g><mask></mask><g stroke-linecap="round"><g transform="translate(121.11104329427076 336.66656494140716) rotate(0 20 -48.88885498046875)"><path d="M0 0 C10.81 -22.31, 17.71 -45.91, 40 -97.78 M0 0 C9.44 -24.31, 20.63 -49.81, 40 -97.78" stroke="#000000" stroke-width="1" fill="none"></path></g></g><mask></mask><g stroke-linecap="round"><g transform="translate(134.44437662760424 338.88885498046966) rotate(0 65 -52.77781168619799)"><path d="M0 0 C37.24 -33.43, 76.76 -62.15, 130 -105.56 M0 0 C28.56 -20.55, 54.71 -42.1, 130 -105.56" stroke="#000000" stroke-width="1" fill="none"></path></g></g><mask></mask><g stroke-linecap="round"><g transform="translate(153.3331298828125 348.88885498046966) rotate(0 111.11114501953125 -63.333333333333485)"><path d="M0 0 C63.38 -36.34, 129.95 -72.94, 222.22 -126.67 M0 0 C76.3 -42.06, 153.09 -86.83, 222.22 -126.67" stroke="#000000" stroke-width="1" fill="none"></path></g></g><mask></mask><g stroke-linecap="round"><g transform="translate(229.99979654947924 336.66656494140716) rotate(0 -25.555521647135492 -50.55552164713549)"><path d="M0 0 C-15.07 -32.17, -31.84 -65.31, -51.11 -101.11 M0 0 C-15.9 -29.51, -29.83 -59.74, -51.11 -101.11" stroke="#000000" stroke-width="1" fill="none"></path></g></g><mask></mask><g stroke-linecap="round"><g transform="translate(253.3331298828125 341.11114501953216) rotate(0 13.333333333333371 -50.555623372395985)"><path d="M0 0 C6.62 -26.8, 12.77 -50.55, 26.67 -101.11 M0 0 C8.03 -28.02, 15.06 -57.48, 26.67 -101.11" stroke="#000000" stroke-width="1" fill="none"></path></g></g><mask></mask><g stroke-linecap="round"><g transform="translate(353.3331298828125 342.2221883138027) rotate(0 18.33333333333337 -53.33333333333326)"><path d="M0 0 C10.01 -22.08, 15.95 -48.54, 36.67 -106.67 M0 0 C7.72 -22.03, 16.07 -44.9, 36.67 -106.67" stroke="#000000" stroke-width="1" fill="none"></path></g></g><mask></mask><g stroke-linecap="round"><g transform="translate(338.88875325520826 339.9998982747402) rotate(0 -20.55552164713538 -51.11104329427076)"><path d="M0 0 C-9.86 -26.36, -18.61 -48.86, -41.11 -102.22 M0 0 C-16.97 -37.17, -31.18 -74.6, -41.11 -102.22" stroke="#000000" stroke-width="1" fill="none"></path></g></g><mask></mask><g stroke-linecap="round"><g transform="translate(324.44437662760424 342.2221883138027) rotate(0 -66.66666666666674 -58.33333333333326)"><path d="M0 0 C-33.99 -30.72, -70.25 -60.1, -133.33 -116.67 M0 0 C-30.98 -28.74, -63.36 -55.46, -133.33 -116.67" stroke="#000000" stroke-width="1" fill="none"></path></g></g><mask></mask><g stroke-linecap="round"><g transform="translate(64.44437662760424 178.88885498046852) rotate(0 38.88885498046875 -52.77781168619799)"><path d="M0 0 C27.99 -37.5, 54.92 -75.53, 77.78 -105.56 M0 0 C24.86 -32.32, 48.98 -67.72, 77.78 -105.56" stroke="#000000" stroke-width="1" fill="none"></path></g></g><mask></mask><g stroke-linecap="round"><g transform="translate(164.44437662760424 176.66656494140602) rotate(0 1.1110432942707575 -48.333333333333485)"><path d="M0 0 C-0.38 -27.49, -0.41 -50.56, 2.22 -96.67 M0 0 C1.38 -34.83, 0.81 -71.62, 2.22 -96.67" stroke="#000000" stroke-width="1" fill="none"></path></g></g><mask></mask><g stroke-linecap="round"><g transform="translate(267.7777099609375 177.77770996093727) rotate(0 -41.66666666666663 -51.11109415690112)"><path d="M0 0 C-25.61 -31.84, -46.81 -59.23, -83.33 -102.22 M0 0 C-20.64 -24.93, -40.52 -49.76, -83.33 -102.22" stroke="#000000" stroke-width="1" fill="none"></path></g></g><mask></mask><g stroke-linecap="round"><g transform="translate(385.555419921875 179.99989827473905) rotate(0 -96.66666666666663 -56.11109415690089)"><path d="M0 0 C-50.67 -31.81, -104.89 -63.03, -193.33 -112.22 M0 0 C-67.7 -38.27, -133.94 -77.31, -193.33 -112.22" stroke="#000000" stroke-width="1" fill="none"></path></g></g><mask></mask><g stroke-linecap="round"><g transform="translate(72.22208658854174 182.22218831380155) rotate(0 92.77781168619788 -58.33333333333326)"><path d="M0 0 C63.92 -41.69, 125.84 -81.02, 185.56 -116.67 M0 0 C57.99 -37.38, 117.18 -73.64, 185.56 -116.67" stroke="#000000" stroke-width="1" fill="none"></path></g></g><mask></mask><g stroke-linecap="round"><g transform="translate(182.22208658854174 177.77770996093727) rotate(0 46.66666666666663 -52.77776082356786)"><path d="M0 0 C34.6 -37.28, 68.25 -78.15, 93.33 -105.56 M0 0 C35.52 -41.54, 70.82 -82.48, 93.33 -105.56" stroke="#000000" stroke-width="1" fill="none"></path></g></g><mask></mask><g stroke-linecap="round"><g transform="translate(286.66646321614576 174.44437662760447) rotate(0 1.11114501953125 -49.444427490234375)"><path d="M0 0 C3.35 -36.77, 4.09 -71.11, 2.22 -98.89 M0 0 C1.26 -24.46, 1.02 -48.76, 2.22 -98.89" stroke="#000000" stroke-width="1" fill="none"></path></g></g><mask></mask><g stroke-linecap="round"><g transform="translate(397.7777099609375 172.22218831380178) rotate(0 -45 -51.11114501953125)"><path d="M0 0 C-28.82 -30.84, -55.26 -65.27, -90 -102.22 M0 0 C-33.81 -37.47, -68.65 -75.89, -90 -102.22" stroke="#000000" stroke-width="1" fill="none"></path></g></g><mask></mask><g stroke-linecap="round"><g transform="translate(134.44437662760424 208.88885498046852) rotate(0 -26.666666666666742 0.5555216471352651)"><path d="M0 0 C-14.99 0.7, -31.94 1.41, -53.33 1.11 M0 0 C-12.04 0.66, -23.02 1.13, -53.33 1.11" stroke="#e67700" stroke-width="1" fill="none"></path></g></g><mask></mask><g stroke-linecap="round"><g transform="translate(38.88875325520826 238.88885498046875) rotate(0 -14.444376627604129 18.05557250976574)"><path d="M0 0 C-7.68 15.97, -12.78 29.56, -28.89 60.56 M0 0 C-7.8 15.26, -13.45 28.66, -28.89 60.56 M-28.89 60.56 C-25.14 39.48, -27.45 18.77, -22.22 -24.44 M-28.89 60.56 C-27.04 32.35, -24.49 5.48, -22.22 -24.44" stroke="#e67700" stroke-width="1" fill="none"></path></g></g><mask></mask><g stroke-linecap="round"><g transform="translate(262.22208658854174 193.333231608073) rotate(0 -91.11114501953125 2.2222391764323675)"><path d="M0 0 C-57.92 0.21, -114.25 4.08, -182.22 4.44 M0 0 C-53.65 2.65, -106.14 4.06, -182.22 4.44" stroke="#e67700" stroke-width="1" fill="none"></path></g></g><mask></mask><g stroke-linecap="round"><g transform="translate(376.66646321614576 184.44437662760424) rotate(0 -151.66666666666663 1.6666666666667425)"><path d="M0 0 C-88.61 0.8, -176.72 2.7, -303.33 3.33 M0 0 C-96.92 0.27, -194.25 0.61, -303.33 3.33" stroke="#e67700" stroke-width="1" fill="none"></path></g></g><mask></mask><g transform="translate(178.8885498046875 443.99989827473814) rotate(0 84.67198181152344 22.5)"><text x="0" y="0" font-family="Virgil, Segoe UI Emoji" font-size="36px" fill="#e67700" text-anchor="start" style="white-space: pre;" direction="ltr" dominant-baseline="text-before-edge">Elman网络</text></g><g transform="translate(410.27344790384524 358.78259135985513) rotate(0 30 12.5)"><text x="0" y="0" font-family="Virgil, Segoe UI Emoji" font-size="20px" fill="#1971c2" text-anchor="start" style="white-space: pre;" direction="ltr" dominant-baseline="text-before-edge">输入层</text></g><g transform="translate(406.31868381025646 27.543081660555572) rotate(0 30 12.5)"><text x="0" y="0" font-family="Virgil, Segoe UI Emoji" font-size="20px" fill="#1971c2" text-anchor="start" style="white-space: pre;" direction="ltr" dominant-baseline="text-before-edge">输出层</text></g><g stroke-linecap="round"><g transform="translate(255.8257288866489 205.59634816467337) rotate(0 -26.666666666666742 0.5555216471352651)"><path d="M0 0 C-15.65 -0.91, -27.7 0.34, -53.33 1.11 M0 0 C-18.69 0.38, -37.48 0.84, -53.33 1.11" stroke="#e67700" stroke-width="1" fill="none"></path></g></g><mask></mask><g stroke-linecap="round"><g transform="translate(371.7027521520234 202.30745796699284) rotate(0 -26.666666666666742 0.5555216471352651)"><path d="M0 0 C-14.59 1.88, -31.61 1.26, -53.33 1.11 M0 0 C-18.16 1.26, -35.67 1.57, -53.33 1.11" stroke="#e67700" stroke-width="1" fill="none"></path></g></g><mask></mask></svg>